<svg width="7" height="10" viewBox="0 0 7 10" fill="none" xmlns="http://www.w3.org/2000/svg">
<path d="M3.93606 0.263999C4.49606 0.263999 4.97606 0.364 5.37606 0.564C5.77606 0.756 6.07606 1.024 6.27606 1.368C6.48406 1.712 6.58806 2.096 6.58806 2.52C6.58806 3.056 6.43606 3.504 6.13206 3.864C5.83606 4.216 5.41606 4.428 4.87206 4.5V4.56C5.45606 4.728 5.91206 4.98 6.24006 5.316C6.57606 5.644 6.74406 6.1 6.74406 6.684C6.74406 7.396 6.50806 7.976 6.03606 8.424C5.56406 8.864 4.88806 9.084 4.00806 9.084C3.10406 9.084 2.37606 8.856 1.82406 8.4C1.27206 7.936 0.95606 7.252 0.87606 6.348H2.23206C2.28006 6.828 2.45206 7.212 2.74806 7.5C3.04406 7.78 3.44406 7.92 3.94806 7.92C4.42006 7.92 4.78006 7.796 5.02806 7.548C5.28406 7.3 5.41206 6.98 5.41206 6.588C5.41206 6.116 5.22806 5.756 4.86006 5.508C4.50006 5.26 3.97606 5.136 3.28806 5.136H2.96406V4.008H3.28806C4.59206 4.024 5.24406 3.58 5.24406 2.676C5.24406 2.284 5.12406 1.976 4.88406 1.752C4.64406 1.528 4.31606 1.416 3.90006 1.416C3.48406 1.416 3.13606 1.544 2.85606 1.8C2.57606 2.048 2.40806 2.412 2.35206 2.892H1.00806C1.06406 2.06 1.34406 1.416 1.84806 0.96C2.35206 0.496 3.04806 0.263999 3.93606 0.263999Z" fill="white"/>
</svg>
