<svg width="16" height="15" viewBox="0 0 16 15" fill="none" xmlns="http://www.w3.org/2000/svg">
<g clip-path="url(#clip0_1_724)">
<path d="M13.2722 3.89906C12.7438 2.1914 11.3546 0.801819 9.64696 0.273333C7.83957 -0.28653 5.91659 0.0246317 4.44878 1.10616C2.99179 2.18021 2.12206 3.90076 2.12206 5.70849C2.12206 6.95557 2.51657 8.14037 3.26267 9.13458L7.83664 15L12.4106 9.13414C13.5272 7.64539 13.8414 5.73726 13.2722 3.89906ZM7.83664 8.78554C6.14012 8.78554 4.75956 7.40498 4.75956 5.70846C4.75956 4.01194 6.14012 2.63138 7.83664 2.63138C9.53317 2.63138 10.9137 4.01194 10.9137 5.70846C10.9137 7.40498 9.53317 8.78554 7.83664 8.78554Z" fill="white"/>
<path d="M7.83664 3.5166C6.62478 3.5166 5.63873 4.49679 5.63873 5.70865C5.63873 6.92051 6.62478 7.90656 7.83664 7.90656C9.04851 7.90656 10.0345 6.92051 10.0345 5.70865C10.0346 4.49679 9.04851 3.5166 7.83664 3.5166Z" fill="white"/>
</g>
<defs>
<clipPath id="clip0_1_724">
<rect width="15" height="15" fill="white" transform="translate(0.33606)"/>
</clipPath>
</defs>
</svg>
