<svg width="1920" height="350" viewBox="0 0 1920 350" fill="none" xmlns="http://www.w3.org/2000/svg">
<path fill-rule="evenodd" clip-rule="evenodd" d="M1607.86 270.359C1637.96 341.1 1551.91 367.677 1517.04 387.386C1485.17 405.388 1453.32 469.283 1426.22 465.98C1356.88 457.536 1423.73 371.111 1375.56 319.948C1296.96 236.432 1386.47 165.538 1443.67 165.538C1500.88 165.56 1572.93 188.266 1607.86 270.359Z" stroke="#C4C4C4" stroke-opacity="0.1" stroke-width="2" stroke-miterlimit="10"/>
<path fill-rule="evenodd" clip-rule="evenodd" d="M1571.94 274.034C1583.89 300.523 1575.97 319.904 1559.61 334.691C1542.98 349.675 1518 359.102 1503.83 366.715C1479.26 379.927 1455.07 428.487 1434.38 425.053C1382.76 416.456 1431.91 352.715 1395.7 313.692C1336.89 250.279 1404.1 196.643 1447.35 196.206C1490.64 195.724 1544.34 212.83 1571.94 274.034Z" stroke="#C4C4C4" stroke-opacity="0.1" stroke-width="0.8125" stroke-miterlimit="10"/>
<path fill-rule="evenodd" clip-rule="evenodd" d="M1536.03 277.709C1545.02 295.624 1542.81 310.104 1531.89 321.763C1520.82 333.553 1501.42 340.728 1490.59 346.043C1473.38 354.509 1457.15 383.973 1442.54 384.126C1409.05 384.476 1440.09 334.319 1415.85 307.436C1376.81 264.125 1421.74 227.726 1451.02 226.851C1480.38 225.889 1515.84 237.416 1536.03 277.709Z" stroke="#C4C4C4" stroke-opacity="0.1" stroke-width="0.625" stroke-miterlimit="10"/>
<path fill-rule="evenodd" clip-rule="evenodd" d="M1500.11 281.384C1506.21 290.833 1509.65 300.283 1504.2 308.836C1498.67 317.432 1484.93 322.376 1477.4 325.351C1467.65 329.223 1458.96 342.128 1450.74 343.178C1431.58 345.606 1448.33 315.923 1436.04 301.158C1416.77 277.993 1439.41 258.832 1454.72 257.475C1470.14 256.075 1487.62 262.025 1500.11 281.384Z" stroke="#C4C4C4" stroke-opacity="0.1" stroke-width="0.4375" stroke-miterlimit="10"/>
<path fill-rule="evenodd" clip-rule="evenodd" d="M1476.51 295.886C1476.51 301.311 1468.61 304.658 1464.19 304.658C1459.77 304.658 1456.21 300.261 1456.21 294.858C1456.21 289.433 1459.77 285.058 1464.19 285.058C1468.61 285.037 1476.51 290.483 1476.51 295.886Z" stroke="#C4C4C4" stroke-opacity="0.1" stroke-width="0.5" stroke-miterlimit="10"/>
<path fill-rule="evenodd" clip-rule="evenodd" d="M1614.01 553.783C1597.65 583.466 1570.41 605.602 1538.06 615.686C1489.52 630.823 1418.8 642.023 1358.21 608.84C1254.09 551.814 1292.2 515.656 1225.26 443.777C1158.33 371.899 1142.53 335.085 1177.25 236.454C1211.96 137.846 1202.03 192.378 1251.62 83.2915C1301.21 -25.773 1353.44 -32.3352 1408.24 -12.2547C1473.77 11.7849 1635.71 229.389 1775.55 63.1892C1845.96 -20.5013 2000.24 131.787 1960.58 236.432C1920.92 341.078 1978.85 471.776 1889.6 455.961C1800.35 440.146 1771.11 454.365 1701.9 471.733C1660.73 482.079 1631.2 522.612 1614.01 553.783Z" stroke="#C4C4C4" stroke-opacity="0.1" stroke-miterlimit="10"/>
<path fill-rule="evenodd" clip-rule="evenodd" d="M1295.67 95.9565C1344.15 17.5377 1383.17 10.9098 1429.57 27.906C1451.92 36.0869 1480.66 66.9513 1516.01 94.4034C1573.94 139.398 1668.78 168.01 1742.1 114.396C1833.98 47.2209 1911.61 170.81 1882.4 258.744C1869.72 296.958 1882.97 311.832 1879.65 346.24C1875.25 391.41 1858.91 430.193 1815.8 435.29C1742.26 443.974 1717.15 448.59 1668.85 463.726C1664.93 464.973 1660.86 466.242 1656.64 467.533C1623.02 477.77 1598.08 510.909 1582.31 536.72C1567.57 560.891 1544.65 579.244 1517.5 587.95C1477.43 600.746 1420.64 608.883 1371.71 582.744C1289.57 538.536 1314.44 508.612 1261.35 451.564C1234.21 422.362 1217.52 396.092 1208 369.274C1195.73 334.735 1195.75 297.57 1210.82 246.144C1227.16 190.343 1232.46 179.319 1247.57 157.16C1257.85 142.023 1276.29 127.302 1295.67 95.9565Z" stroke="#C4C4C4" stroke-opacity="0.1" stroke-width="0.8594" stroke-miterlimit="10"/>
<path fill-rule="evenodd" clip-rule="evenodd" d="M1339.75 108.622C1383.94 60.7612 1412.92 54.1771 1450.92 68.0453C1470.3 75.1106 1493.77 97.7285 1521.87 117.656C1570.3 152.02 1643.76 185.028 1711.37 150.445C1762.82 124.131 1897.45 87.032 1804.23 281.034C1792.33 305.795 1792.3 333.882 1788.89 360.59C1785.22 389.355 1778.46 407.991 1750.85 421.007C1715.94 437.478 1676.74 439.84 1640.5 452.177C1604.47 464.449 1572.43 488.466 1550.57 519.615C1537.47 538.296 1518.86 552.864 1496.92 560.148C1465.31 570.582 1422.39 575.832 1385.18 556.582C1364.91 546.105 1346.97 532.936 1334.41 513.643C1305.04 468.473 1266.3 428.422 1249.08 376.58C1237.31 341.231 1233.95 302.952 1244.36 255.813C1255.25 206.487 1261.68 185.706 1279.29 161.164C1292.63 142.571 1318.38 131.787 1339.75 108.622Z" stroke="#C4C4C4" stroke-opacity="0.1" stroke-width="0.7188" stroke-miterlimit="10"/>
<path fill-rule="evenodd" clip-rule="evenodd" d="M1365.96 122.687C1396.36 107.637 1431.27 101.994 1464.96 110.459C1511.66 122.205 1548.78 158.517 1594.74 172.91C1626.67 182.906 1663.18 182.556 1689.65 203.052C1711.02 219.611 1721.41 246.954 1724.87 273.75C1728.74 303.673 1725.11 334.516 1714.41 362.734C1705.25 386.904 1689.89 410.047 1666.77 421.597C1646.75 431.593 1623.26 431.856 1602.31 439.665C1558.47 456.027 1532.68 502.05 1491.89 524.952C1373.92 591.165 1288.13 414.925 1278.55 324.366C1272.71 269.243 1279.05 198.918 1318.93 157.226C1332.38 143.183 1348.41 131.371 1365.96 122.687Z" stroke="#C4C4C4" stroke-opacity="0.1" stroke-width="0.5781" stroke-miterlimit="10"/>
<path fill-rule="evenodd" clip-rule="evenodd" d="M1526.05 452.265C1512.03 463.639 1499.41 476.742 1484.99 487.635C1470.36 498.681 1453.23 507.562 1434.92 508.197C1417.01 508.831 1399.47 501.438 1385.36 490.369C1352.24 464.405 1338.2 421.422 1327.96 380.605C1320.11 349.303 1313.41 317.52 1312.17 285.277C1310.05 230.658 1324.68 162.76 1381.75 140.952C1446.06 116.365 1523.8 153.858 1577.92 187.106C1601.8 201.784 1624.86 218.714 1641.72 241.113C1658.57 263.513 1668.69 292.124 1664.17 319.795C1658.89 352.103 1634.94 378.33 1608.5 397.601C1582.05 416.872 1552.17 431.244 1526.67 451.761C1526.47 451.936 1526.25 452.09 1526.05 452.265Z" stroke="#C4C4C4" stroke-opacity="0.1" stroke-width="0.4375" stroke-miterlimit="10"/>
<path fill-rule="evenodd" clip-rule="evenodd" d="M533.579 10.9975C577.174 14.8254 639.341 2.13844 656.905 -7.37681C688.032 -24.2418 689.629 -63.5496 736.221 -68.9307C830.652 -79.8459 865.257 -88.9018 866.832 -136.062C867.182 -146.628 865.957 -157.346 864.185 -168.305C857.841 -206.891 848.523 -242.546 866.154 -286.075C874.466 -306.593 885.687 -350.626 857.71 -377.662C730.906 -500.179 358.236 -602.747 196.63 -459.406C28.9206 -310.662 63.2849 -193.001 60.1788 -171.28C59.2163 -164.608 56.9195 -153.496 54.8196 -143.128C47.6449 -107.626 35.2641 29.2843 162.025 -26.7135C342.727 -106.532 383.26 -78.6865 430.53 -93.8891C470.122 -106.62 478.041 6.11952 533.579 10.9975Z" stroke="#C4C4C4" stroke-opacity="0.1" stroke-width="0.7188" stroke-miterlimit="10"/>
<path fill-rule="evenodd" clip-rule="evenodd" d="M526.492 66.7766C573.893 73.1639 650.431 57.1083 669.199 46.1931C704.11 25.8501 702.841 -23.8042 756.892 -31.4383C860.357 -46.0721 899.271 -52.8968 899.205 -105.854C899.227 -117.579 897.39 -129.303 895.027 -141.093C886.584 -182.982 874.225 -221.284 905.724 -269.276C919.089 -289.663 940.788 -341.351 909.421 -370.75C778.219 -493.639 354.517 -603.36 179.655 -449.934C-17.5401 -276.932 36.0297 -153.496 33.9516 -139.015C33.3173 -134.553 30.3643 -122.413 27.5644 -108.588C18.0054 -61.2527 5.03402 78.698 142.819 10.6257C331.768 -82.755 394.284 -61.7777 430.967 -52.3937C470.078 -42.3972 478.084 60.2581 526.492 66.7766Z" stroke="#C4C4C4" stroke-opacity="0.1" stroke-width="0.8125" stroke-miterlimit="10"/>
<path fill-rule="evenodd" clip-rule="evenodd" d="M519.405 122.556C570.481 132.115 661.521 112.056 681.47 99.7409C720.122 75.8762 716.053 16.0066 777.563 6.01015C890.084 -12.2548 933.154 -16.9358 931.579 -75.6898C931.251 -88.5955 928.823 -101.283 925.87 -113.948C915.305 -159.14 899.534 -201.116 945.294 -252.52C963.712 -273.213 995.933 -332.164 961.131 -363.86C825.643 -487.274 350.558 -604.257 162.659 -440.507C-64.3288 -243.552 8.75268 -114.013 7.70272 -106.773C7.37461 -104.542 3.78725 -91.3298 0.287388 -74.0492C-11.6778 -14.8796 -25.0647 128.308 123.57 47.9429C320.962 -58.7592 402.75 -40.9317 431.361 -10.9204C467.06 26.4844 478.019 114.812 519.405 122.556Z" stroke="#C4C4C4" stroke-opacity="0.1" stroke-width="0.9063" stroke-miterlimit="10"/>
<path fill-rule="evenodd" clip-rule="evenodd" d="M-18.5244 -74.5305C-18.5244 -74.5305 -101.581 205.152 104.386 85.282C310.353 -34.5883 408.043 -21.9451 431.821 30.5748C460.541 94.0098 477.8 169.651 512.339 178.313C566.828 191.984 672.589 166.96 693.785 153.267C736.156 125.859 729.331 55.8394 798.256 43.4586C919.855 21.6282 967.059 19.0034 963.975 -45.5254C960.912 -110.076 908.174 -166.555 984.887 -235.765C1008.47 -257.048 1051.12 -323.021 1012.86 -356.991C873.153 -480.996 346.927 -604.782 145.663 -431.057C-110.746 -209.756 -18.5244 -74.5305 -18.5244 -74.5305Z" stroke="#C4C4C4" stroke-opacity="0.1" stroke-miterlimit="10"/>
<path fill-rule="evenodd" clip-rule="evenodd" d="M894.021 423.478C895.552 435.115 895.574 443.537 894.546 450.383C891.987 467.73 884.047 474.795 885.95 502.903C886.343 508.7 886.825 514.059 887.197 519.003C889.275 546.411 888.181 559.951 851.651 557.195C820.305 554.811 818.402 510.712 775.704 505.506C774.151 505.309 772.532 505.178 770.87 505.091C746.327 503.822 725.743 496.778 711.547 485.798C697.307 474.773 690.745 456.399 691.904 438.746C693.238 418.338 705.204 402.851 719.794 389.486C729.965 380.167 741.099 371.899 752.539 364.199C788.96 339.416 856.266 295.602 879.431 368.443C883.39 380.867 890.018 393.226 894.021 423.478Z" stroke="#C4C4C4" stroke-opacity="0.1" stroke-width="0.75" stroke-miterlimit="10"/>
<path fill-rule="evenodd" clip-rule="evenodd" d="M913.467 418.863C915.195 433.3 914.933 443.581 913.577 451.893C910.099 473.154 900.058 481.423 902.333 515.962C902.793 523.049 903.383 529.59 903.821 535.583C906.358 569.116 905.089 585.303 859.766 581.322C820.874 577.91 819.124 522.502 766.21 516.203C764.286 515.962 762.295 515.809 760.239 515.7C729.856 514.3 704.285 505.856 686.632 492.447C654.368 467.926 655.396 420.875 680.398 391.367C696.629 372.227 717.366 356.85 738.102 342.981C783.579 312.467 867.728 258.46 895.859 349.937C900.715 365.621 908.939 381.086 913.467 418.863Z" stroke="#C4C4C4" stroke-opacity="0.1" stroke-width="0.875" stroke-miterlimit="10"/>
<path fill-rule="evenodd" clip-rule="evenodd" d="M634.791 414.313C643.212 389.595 662.855 368.661 683.198 351.687C696.082 340.947 709.731 331.103 723.709 321.807C778.219 285.561 879.234 221.361 912.352 331.453C918.039 350.353 927.86 368.946 932.935 414.225C939.847 475.91 915.042 472.104 918.717 528.977C922.282 584.297 931.645 611.53 867.903 605.427C819.78 600.812 819.802 529.327 749.652 526.352C703.891 524.405 641.44 505.9 631.838 453.555C629.235 439.577 630.656 426.475 634.791 414.313Z" stroke="#C4C4C4" stroke-opacity="0.1" stroke-miterlimit="10"/>
<path d="M825.686 672.231C769.513 590.837 678.145 560.52 594.345 549.058C547.469 545.164 500.461 518.5 479.09 474.62C452.798 420.613 473.731 364.309 515.336 326.816C537.319 307.02 562.234 293.59 590.627 285.606C652.312 268.259 721.39 252.466 772.904 211.715C796.791 192.815 796.112 168.12 810.921 143.927C824.768 121.309 849.595 110.547 873.438 101.797C903.558 90.7726 928.889 90.4882 960.562 95.6724C986.089 99.8503 1011.57 86.004 1024.59 63.6924C1061.77 -0.114497 1015.01 -76.2584 1006.04 -140.7C1002.8 -163.93 1004.35 -190.879 1027.37 -203.282C1040.71 -210.478 1054.64 -218.309 1062.89 -231.543C1068.42 -240.402 1071.11 -250.552 1075.14 -260.111C1079.4 -270.26 1085.62 -279.25 1092 -288.153C1125.34 -334.439 1181.6 -334.745 1246.76 -335.095L1252.06 -335.117C1315.69 -335.117 1673.18 -305.609 1750.92 -299.112C1756.85 -278.026 1772.6 -292.419 1775.86 -277.697C1741.47 -274.176 1723.01 -205.163 1715.88 -189.566C1655.26 -56.9654 1499.58 -120.204 1404.39 -156.405C1335.09 -182.764 1203.19 -121.56 1171.95 -107.976C1132.89 -91.0016 1133.96 -36.6006 1136.28 -7.77048C1140.91 49.4742 1091.28 56.9114 1054.82 94.9287C1022.09 129.052 1026.49 176.279 1024.35 221.974C1022.31 265.678 1019.56 310.498 1016.14 354.203C1013.06 393.817 1006.85 446.359 1010.41 486.629C1015.44 543.764 1044.36 637.123 997.77 688.462C972.746 716.067 860.663 722.914 825.686 672.231Z" stroke="#C4C4C4" stroke-opacity="0.1" stroke-width="0.25" stroke-miterlimit="10"/>
<path fill-rule="evenodd" clip-rule="evenodd" d="M1030.89 400.182C1030.25 426.694 1032.99 453.599 1041.23 478.886C1049.52 504.347 1066.74 524.471 1076.04 549.32C1097.21 605.887 1063.2 671.487 1019.14 706.967C992.258 728.623 957.719 741.397 923.682 745.794C851.454 755.134 798.759 698.699 749.652 650.51C704.219 605.909 668.083 571.698 589.052 557.545C560.244 552.383 533.207 547.592 507.527 531.646C448.97 495.269 444.77 408.341 474.628 347.203C479.003 338.235 483.575 329.07 488.715 320.539C507.439 289.455 546.485 274.1 579.712 264.847C607.82 257.016 636.103 246.823 664.627 239.189C691.707 231.948 720.056 227.355 743.943 211.715C754.136 205.043 762.229 195.965 766.495 184.46C772.51 168.163 779.947 158.211 786.225 142.002C795.347 118.509 819.496 103.831 841.239 93.6819C866.328 81.9573 894.218 72.2452 922.261 74.192C948.597 76.0294 980.271 82.3948 1000.85 61.1331C1014.77 46.7399 1019.84 20.0535 1020.34 1.54797C1021.57 -42.3316 1006.39 -77.7677 995.145 -128.603C991.252 -146.278 990.989 -166.27 997.223 -183.682C1003.06 -199.979 1018.55 -209.384 1032.2 -218.55C1044.34 -226.709 1054.75 -237.536 1061.45 -250.617C1068.82 -265.054 1074.7 -279.491 1084.35 -292.769C1119.39 -341.023 1173.53 -341.898 1238.71 -342.292C1239.33 -342.292 1243.5 -342.314 1244.14 -342.314C1246.96 -342.314 1250.11 -342.292 1253.57 -342.248C1332.64 -340.914 1706.3 -310.049 1756.43 -305.893C1760.41 -291.828 1766.84 -268.488 1771.17 -250.289C1757.77 -237.361 1749.23 -221.875 1746.02 -205.863C1718.02 -65.8463 1636.1 -12.6484 1563.65 -44.1909C1465.05 -87.1298 1411.8 -140.35 1317.24 -114.101C1295.04 -107.932 1260.5 -88.2892 1246.57 -71.9929C1223.18 -44.6721 1197.79 -18.6638 1177.05 10.8007C1155.02 42.0807 1106.18 89.9851 1084.24 121.331C1051.12 168.71 1068.9 206.465 1055.3 260.735C1044.21 304.877 1032 353.35 1030.89 400.182Z" stroke="#C4C4C4" stroke-opacity="0.1" stroke-width="0.5" stroke-miterlimit="10"/>
<path fill-rule="evenodd" clip-rule="evenodd" d="M1071.77 332.832C1071.09 377.521 1081.07 421.663 1106.59 462.261C1120.31 484.07 1153.14 490.523 1156.55 522.721C1161.8 572.288 1118.3 604.421 1090.17 679.165C1073.87 722.498 1028.96 750.453 988.649 768.412C954.394 783.68 916.377 795.12 878.687 796.957C847.035 798.511 818.643 784.074 795.741 763.096C742.98 714.711 715.791 644.363 658.087 600.44C637.459 584.735 614.12 572.988 589.402 565.266C560.09 556.254 530.189 552.864 503.13 536.961C419.308 487.723 436.852 362.624 487.271 295.865C514.33 260.035 556.394 240.02 599.136 229.673C624.466 223.527 650.562 223.483 676.198 219.371C715.747 213.005 748.011 186.188 764.395 150.095C781.479 112.45 812.737 83.1166 851.323 68.3297C870.594 60.9581 891.178 57.2395 911.805 56.8457C933.701 56.4301 959.775 66.6891 979.615 53.5865C1018.46 27.9281 1008.49 -30.5196 999.739 -68.7337C990.836 -107.517 969.553 -171.105 1001.51 -204.944C1011.33 -215.334 1024.81 -221.087 1034.91 -231.193C1043.62 -239.899 1050.51 -250.42 1054.91 -261.904C1059.76 -274.526 1066.65 -285.769 1074.61 -296.728C1111.1 -346.973 1170.27 -349.182 1234.95 -349.641C1236.2 -349.641 1239.22 -349.663 1240.46 -349.685C1243.5 -349.707 1246.72 -349.685 1250.09 -349.685C1324.53 -349.182 1736.96 -314.883 1762.03 -312.805C1764.02 -305.784 1771.07 -281.066 1776.47 -259.389C1775.77 -255.43 1774.72 -251.405 1773.12 -247.489C1772.97 -235.152 1769.25 -224.434 1767.89 -218.9C1743.88 -120.925 1713.82 59.5144 1590.14 21.3877C1552.3 9.72883 1525.72 -17.3732 1493.64 -37.3662C1455.81 -60.9246 1414.82 -81.8801 1369.85 -86.4737C1301.12 -93.4734 1256.78 -30.7383 1214.65 16.9911C1177.18 59.4269 1147.46 102.191 1125.17 153.945C1100.4 211.387 1072.75 268.981 1071.77 332.832Z" stroke="#C4C4C4" stroke-opacity="0.1" stroke-width="0.75" stroke-miterlimit="10"/>
<path fill-rule="evenodd" clip-rule="evenodd" d="M600.098 576.706C591.371 573.185 582.14 571.107 572.778 570.188C533.12 566.316 390.85 540.483 423.005 370.389C445.973 248.791 498.93 220.88 587.564 212.043C676.198 203.205 709.185 205.765 746.546 125.574C773.604 67.4983 795.456 61.8329 853.642 50.8302C956.756 31.3403 1003.17 34.2058 983.64 -51.6939C964.937 -134.028 951.375 -192.257 1003.68 -231.587C1045.59 -263.107 1038.63 -269.014 1047.47 -313.134C1061.14 -381.468 1176.81 -356.576 1246.63 -356.969C1316.45 -357.385 1767.63 -319.652 1767.63 -319.652C1767.63 -319.652 1797.18 -219.315 1789.11 -222.553C1781.06 -225.79 1781.65 42.9336 1697.31 80.0103C1637.22 106.412 1598.5 89.3287 1500.44 1.96334C1403.05 -84.7895 1311.16 -61.9529 1272.03 -5.12386C1232.13 52.7989 1191.58 131.436 1160.65 195.812C1120.53 279.306 1081.09 354.29 1136.93 429.45C1155.48 454.43 1200.7 460.664 1204.28 501.153C1209.23 556.757 1170.62 573.797 1139.54 674.506C1102.28 795.185 901.24 859.32 849.923 849.543C586.23 799.363 734.165 630.954 600.098 576.706Z" stroke="#C4C4C4" stroke-opacity="0.1" stroke-width="2" stroke-miterlimit="10"/>
<path fill-rule="evenodd" clip-rule="evenodd" d="M85.7715 153.289C241.647 20.9719 409.443 -44.2568 419.724 91.8004C429.983 227.879 481.365 197.365 405.44 304.658C386.628 331.235 392.119 390.732 378.973 405.476C346.949 441.371 216.01 361.027 136.738 386.751C51.9541 414.269 32.9235 493.278 -0.893895 528.802C-34.7113 564.326 -109.237 305.576 -50.8544 185.662C-35.0832 153.289 -54.1574 272.065 85.7715 153.289Z" stroke="#C4C4C4" stroke-opacity="0.1" stroke-miterlimit="10"/>
<path fill-rule="evenodd" clip-rule="evenodd" d="M-1.20016 210.818C9.3213 189.228 3.34966 265.678 107.274 181.244C126.064 165.998 145.4 151.714 164.584 138.48C265.446 68.8327 359.198 43.5462 372.804 127.674C388.422 224.183 421.233 208.871 370.398 285.977C356.901 306.43 359.286 348.887 349.486 361.356C323.303 394.67 221.566 346.219 156.819 357.243C88.287 368.902 54.6445 432.097 32.0923 455.786C9.54004 479.476 -40.1361 290.768 -1.20016 210.818Z" stroke="#C4C4C4" stroke-opacity="0.1" stroke-width="0.75" stroke-miterlimit="10"/>
<path fill-rule="evenodd" clip-rule="evenodd" d="M48.4542 235.995C53.704 225.211 61.0537 259.531 128.776 209.243C142.272 199.224 156.534 189.49 170.884 179.8C241.122 132.136 306.832 110.109 325.906 163.613C346.118 220.311 361.539 220.858 335.355 267.362C327.24 281.777 326.562 307.195 320.022 317.301C299.897 348.297 227.297 331.65 176.921 327.779C124.773 323.776 76.3874 370.98 65.1223 382.814C53.8133 394.626 28.9862 275.959 48.4542 235.995Z" stroke="#C4C4C4" stroke-opacity="0.1" stroke-width="0.5" stroke-miterlimit="10"/>
<path fill-rule="evenodd" clip-rule="evenodd" d="M98.1085 309.798C98.1085 309.798 161.128 279.043 197.002 298.271C232.875 317.498 277.148 302.252 290.535 273.181C300.007 252.641 314.4 228.055 279.008 199.509C252.037 177.766 216.82 195.375 177.184 221.077C132.495 250.016 98.1085 261.15 98.1085 261.15V309.798Z" stroke="#C4C4C4" stroke-opacity="0.1" stroke-width="0.25" stroke-miterlimit="10"/>
<path fill-rule="evenodd" clip-rule="evenodd" d="M946.191 122.577C946.191 122.577 898.615 105.975 871.688 122.577C825.402 151.101 836.755 208.74 764.57 248.31C692.385 287.902 440.833 342.456 502.452 452.571C564.071 562.685 596.27 517.887 696.41 552.82C796.528 587.753 818.14 627.848 846.073 655.803C874.006 683.737 889.034 694.739 937.944 690.255C989.086 685.574 1003.13 652.982 1000.88 600.484C998.908 554.614 989.655 532.914 987.249 484.157C984.799 434.35 991.208 417.266 993.374 345.562C995.911 261.631 1021.63 162.148 946.191 122.577Z" stroke="#C4C4C4" stroke-opacity="0.1" stroke-width="2" stroke-miterlimit="10"/>
<path fill-rule="evenodd" clip-rule="evenodd" d="M895.268 191.656C870.922 189.84 845.854 200.777 825.971 214.799C799.109 233.764 795.084 247.894 748.47 273.465C682.301 309.754 486.987 347.225 537.079 450.996C572.034 523.421 606.857 509.268 698.641 541.292C790.447 573.316 811.577 608.533 837.192 634.148C852.482 649.438 872.081 657.225 893.321 659.784C915.873 662.497 944.091 665.056 958.025 642.876C972.702 619.514 962.028 588.103 960.672 562.751C959.206 534.949 962.028 507.147 962.859 479.366C964.937 409.304 970.865 341.866 965.79 271.693C963.668 242.448 947.11 212.393 920.095 198.568C912.067 194.456 903.711 192.29 895.268 191.656Z" stroke="#C4C4C4" stroke-opacity="0.1" stroke-width="0.25" stroke-miterlimit="10"/>
<path fill-rule="evenodd" clip-rule="evenodd" d="M828.486 249.382C794.275 260.472 763.717 281.471 732.437 298.62C672.261 331.628 537.647 349.915 571.771 449.399C583.168 482.604 614.513 504.74 697.985 533.855C781.457 562.969 805.103 589.153 828.399 612.449C851.695 635.745 868.472 643.554 908.392 634.454C960.89 622.489 933.788 548.707 938.819 513.774C942.45 488.466 952.491 464.186 953.234 438.44C954.153 407.05 951.791 380.451 948.663 349.193C946.038 322.988 941.947 292.627 928.123 269.659C910.252 239.998 872.891 238.423 842.507 245.466C837.739 246.582 833.08 247.894 828.486 249.382Z" stroke="#C4C4C4" stroke-opacity="0.1" stroke-miterlimit="10"/>
</svg>
