<svg width="50" height="52" viewBox="0 0 50 52" fill="none" xmlns="http://www.w3.org/2000/svg">
<rect y="0.265625" width="50" height="51.1983" rx="10" fill="#797EF6"/>
<path d="M35.9939 30.38C34.4634 30.38 32.9605 30.1349 31.5363 29.653C30.8385 29.4093 29.9806 29.6329 29.5547 30.0808L26.7437 32.2536C23.4838 30.4718 21.4757 28.4162 19.7593 25.1032L21.8189 22.2999C22.3539 21.7527 22.5459 20.9534 22.3159 20.2034C21.8433 18.7374 21.6032 17.1993 21.6032 15.6313C21.6032 14.4987 20.7033 13.5771 19.5972 13.5771H15.006C13.8999 13.5771 13 14.4987 13 15.6313C13 28.6142 23.3149 39.1763 35.9939 39.1763C37.1001 39.1763 38 38.2548 38 37.1221V32.4341C37.9999 31.3015 37.1 30.38 35.9939 30.38Z" fill="white"/>
</svg>
