<svg width="21" height="20" viewBox="0 0 21 20" fill="none" xmlns="http://www.w3.org/2000/svg">
<path d="M8.41606 8.86512C8.47106 8.54012 8.57106 8.25012 8.71606 7.99512C8.86106 7.74012 9.06106 7.53512 9.30606 7.38012C9.54106 7.23512 9.83606 7.15512 10.2011 7.15012C10.4411 7.15512 10.6611 7.19512 10.8511 7.28012C11.0561 7.37012 11.2261 7.49012 11.3711 7.64012C11.5161 7.79012 11.6261 7.97012 11.7061 8.17012C11.7861 8.37012 11.8311 8.58512 11.8411 8.81012H13.6311C13.6161 8.34012 13.5211 7.91012 13.3561 7.52012C13.1911 7.13012 12.9511 6.79512 12.6511 6.51012C12.3511 6.22512 11.9911 6.01012 11.5711 5.85512C11.1511 5.70012 10.6861 5.62012 10.1761 5.62012C9.52606 5.62012 8.96106 5.73012 8.48106 5.95512C8.00106 6.18012 7.60106 6.48512 7.28106 6.87512C6.96106 7.26512 6.72106 7.71512 6.56606 8.23012C6.41106 8.74512 6.33606 9.29012 6.33606 9.86512V10.1401C6.33606 10.7201 6.41606 11.2651 6.57106 11.7801C6.72606 12.2951 6.96606 12.7451 7.28606 13.1301C7.60606 13.5151 8.00606 13.8201 8.49106 14.0451C8.97606 14.2701 9.54106 14.3801 10.1911 14.3801C10.6611 14.3801 11.1011 14.3051 11.5111 14.1501C11.9211 13.9951 12.2811 13.7851 12.5911 13.5151C12.9011 13.2451 13.1511 12.9351 13.3311 12.5751C13.5111 12.2151 13.6161 11.8351 13.6311 11.4251H11.8411C11.8311 11.6351 11.7811 11.8251 11.6911 12.0051C11.6011 12.1851 11.4811 12.3351 11.3311 12.4601C11.1811 12.5851 11.0061 12.6851 10.8061 12.7551C10.6161 12.8201 10.4161 12.8551 10.2011 12.8551C9.84106 12.8451 9.54606 12.7701 9.30606 12.6201C9.05606 12.4601 8.85606 12.2551 8.71106 12.0001C8.56606 11.7451 8.46606 11.4551 8.41106 11.1251C8.35606 10.7951 8.33606 10.4751 8.33606 10.1401V9.86512C8.33606 9.52512 8.36106 9.19012 8.41606 8.86512Z" fill="white"/>
<path d="M10.3361 0C4.81106 0 0.33606 4.475 0.33606 10C0.33606 15.525 4.81106 20 10.3361 20C15.8611 20 20.3361 15.525 20.3361 10C20.3361 4.475 15.8611 0 10.3361 0ZM10.3361 18C5.92606 18 2.33606 14.41 2.33606 10C2.33606 5.59 5.92606 2 10.3361 2C14.7461 2 18.3361 5.59 18.3361 10C18.3361 14.41 14.7461 18 10.3361 18Z" fill="white"/>
</svg>
