<svg width="246" height="49" viewBox="0 0 246 49" fill="none" xmlns="http://www.w3.org/2000/svg">
<path d="M6.63672 16C4.60128 16 2.94531 17.656 2.94531 19.6914C2.94531 21.7268 4.60128 23.3828 6.63672 23.3828C8.67216 23.3828 10.3281 21.7268 10.3281 19.6914C10.3281 17.656 8.67216 16 6.63672 16ZM6.63672 22.5625C5.0536 22.5625 3.76562 21.2745 3.76562 19.6914C3.76562 18.1083 5.0536 16.8203 6.63672 16.8203C8.21984 16.8203 9.50781 18.1083 9.50781 19.6914C9.50781 21.2745 8.21984 22.5625 6.63672 22.5625Z" fill="#FC7575"/>
<path d="M7.78059 24.2305H5.49282C3.60058 24.2305 1.73314 25.1041 0.484375 26.9774V30H12.7891V26.9774C11.5421 25.1068 9.67518 24.2305 7.78059 24.2305ZM11.9688 29.1797H11.9688H1.30469V27.2284C2.26257 25.8624 3.819 25.0508 5.49285 25.0508H7.78062C9.45446 25.0508 11.0109 25.8624 11.9688 27.2284V29.1797Z" fill="#FC7575"/>
<path d="M23.554 30C23.4607 30 23.3813 29.972 23.316 29.916C23.26 29.8507 23.232 29.7713 23.232 29.678V20.536C23.232 20.4333 23.26 20.354 23.316 20.298C23.372 20.2327 23.4513 20.2 23.554 20.2H24.212C24.38 20.2 24.4967 20.27 24.562 20.41L27.544 26.136L30.554 20.41C30.6287 20.27 30.7407 20.2 30.89 20.2H31.548C31.6507 20.2 31.73 20.2327 31.786 20.298C31.842 20.354 31.87 20.4333 31.87 20.536V29.678C31.87 29.7713 31.8373 29.8507 31.772 29.916C31.716 29.972 31.6413 30 31.548 30H30.904C30.8107 30 30.736 29.972 30.68 29.916C30.624 29.8507 30.596 29.7713 30.596 29.678V22.72L28.202 27.354C28.1087 27.55 27.9593 27.648 27.754 27.648H27.334C27.138 27.648 26.9887 27.55 26.886 27.354L24.506 22.72V29.678C24.506 29.7713 24.4733 29.8507 24.408 29.916C24.352 29.972 24.2773 30 24.184 30H23.554ZM37.0356 30.14C36.0836 30.14 35.3229 29.846 34.7536 29.258C34.1842 28.6607 33.8716 27.8487 33.8156 26.822L33.8016 26.346L33.8156 25.884C33.8716 24.876 34.1842 24.0733 34.7536 23.476C35.3229 22.8787 36.0836 22.58 37.0356 22.58C38.0622 22.58 38.8556 22.9067 39.4156 23.56C39.9849 24.2133 40.2696 25.1 40.2696 26.22V26.472C40.2696 26.5653 40.2369 26.6447 40.1716 26.71C40.1156 26.766 40.0409 26.794 39.9476 26.794H35.0896V26.92C35.1176 27.5267 35.3042 28.0447 35.6496 28.474C35.9949 28.9033 36.4522 29.118 37.0216 29.118C37.4602 29.118 37.8149 29.034 38.0856 28.866C38.3656 28.6887 38.5756 28.5067 38.7156 28.32C38.7996 28.208 38.8649 28.1427 38.9116 28.124C38.9582 28.096 39.0376 28.082 39.1496 28.082H39.7656C39.8496 28.082 39.9196 28.1053 39.9756 28.152C40.0409 28.1987 40.0736 28.2593 40.0736 28.334C40.0736 28.5393 39.9476 28.7867 39.6956 29.076C39.4436 29.3653 39.0842 29.6173 38.6176 29.832C38.1602 30.0373 37.6329 30.14 37.0356 30.14ZM38.9956 25.842V25.8C38.9956 25.1467 38.8182 24.6147 38.4636 24.204C38.1089 23.7933 37.6329 23.588 37.0356 23.588C36.4289 23.588 35.9529 23.7933 35.6076 24.204C35.2622 24.6147 35.0896 25.1467 35.0896 25.8V25.842H38.9956ZM44.6319 30.14C43.6519 30.14 42.9145 29.8227 42.4199 29.188C41.9345 28.5533 41.6732 27.7507 41.6359 26.78L41.6219 26.36L41.6359 25.94C41.6732 24.9787 41.9392 24.1807 42.4339 23.546C42.9285 22.902 43.6612 22.58 44.6319 22.58C45.6025 22.58 46.3585 22.9253 46.8999 23.616V20.382C46.8999 20.2887 46.9279 20.214 46.9839 20.158C47.0492 20.0927 47.1285 20.06 47.2219 20.06H47.8519C47.9452 20.06 48.0199 20.0927 48.0759 20.158C48.1412 20.214 48.1739 20.2887 48.1739 20.382V29.678C48.1739 29.7713 48.1412 29.8507 48.0759 29.916C48.0199 29.972 47.9452 30 47.8519 30H47.2499C47.1565 30 47.0819 29.972 47.0259 29.916C46.9699 29.8507 46.9419 29.7713 46.9419 29.678V29.076C46.4099 29.7853 45.6399 30.14 44.6319 30.14ZM44.8979 29.048C45.5512 29.048 46.0412 28.8333 46.3679 28.404C46.6945 27.9653 46.8719 27.4473 46.8999 26.85C46.9092 26.7473 46.9139 26.57 46.9139 26.318C46.9139 26.0567 46.9092 25.8747 46.8999 25.772C46.8812 25.2027 46.6992 24.7127 46.3539 24.302C46.0179 23.882 45.5325 23.672 44.8979 23.672C44.2259 23.672 43.7359 23.882 43.4279 24.302C43.1199 24.722 42.9519 25.2727 42.9239 25.954L42.9099 26.36C42.9099 28.152 43.5725 29.048 44.8979 29.048ZM50.4944 21.348C50.401 21.348 50.3217 21.32 50.2564 21.264C50.2004 21.1987 50.1724 21.1193 50.1724 21.026V20.298C50.1724 20.2047 50.2004 20.1253 50.2564 20.06C50.3217 19.9947 50.401 19.962 50.4944 19.962H51.3204C51.4137 19.962 51.493 19.9947 51.5584 20.06C51.6237 20.1253 51.6564 20.2047 51.6564 20.298V21.026C51.6564 21.1193 51.6237 21.1987 51.5584 21.264C51.493 21.32 51.4137 21.348 51.3204 21.348H50.4944ZM50.6064 30C50.513 30 50.4337 29.972 50.3684 29.916C50.3124 29.8507 50.2844 29.7713 50.2844 29.678V23.042C50.2844 22.9487 50.3124 22.874 50.3684 22.818C50.4337 22.7527 50.513 22.72 50.6064 22.72H51.2224C51.3157 22.72 51.3904 22.7527 51.4464 22.818C51.5117 22.874 51.5444 22.9487 51.5444 23.042V29.678C51.5444 29.7713 51.5117 29.8507 51.4464 29.916C51.3904 29.972 51.3157 30 51.2224 30H50.6064ZM56.5597 30.14C55.561 30.14 54.7817 29.86 54.2217 29.3C53.6617 28.7307 53.3677 27.9373 53.3397 26.92L53.3257 26.36L53.3397 25.8C53.3677 24.7827 53.6617 23.994 54.2217 23.434C54.7817 22.8647 55.561 22.58 56.5597 22.58C57.2317 22.58 57.7963 22.7013 58.2537 22.944C58.7203 23.1773 59.0657 23.4713 59.2897 23.826C59.523 24.1807 59.649 24.5353 59.6677 24.89C59.677 24.974 59.6443 25.0487 59.5697 25.114C59.5043 25.1793 59.4297 25.212 59.3457 25.212H58.7297C58.6363 25.212 58.5663 25.1933 58.5197 25.156C58.473 25.1093 58.4263 25.03 58.3797 24.918C58.2117 24.4607 57.9783 24.1387 57.6797 23.952C57.3903 23.756 57.0217 23.658 56.5737 23.658C55.9857 23.658 55.519 23.84 55.1737 24.204C54.8283 24.568 54.6417 25.1233 54.6137 25.87L54.5997 26.36L54.6137 26.85C54.6417 27.5967 54.8283 28.152 55.1737 28.516C55.519 28.88 55.9857 29.062 56.5737 29.062C57.031 29.062 57.4043 28.9687 57.6937 28.782C57.983 28.586 58.2117 28.2593 58.3797 27.802C58.4263 27.69 58.473 27.6153 58.5197 27.578C58.5663 27.5313 58.6363 27.508 58.7297 27.508H59.3457C59.4297 27.508 59.5043 27.5407 59.5697 27.606C59.6443 27.6713 59.677 27.746 59.6677 27.83C59.649 28.1753 59.523 28.5253 59.2897 28.88C59.0657 29.2347 58.7203 29.5333 58.2537 29.776C57.7963 30.0187 57.2317 30.14 56.5597 30.14ZM61.5549 21.348C61.4616 21.348 61.3823 21.32 61.3169 21.264C61.2609 21.1987 61.2329 21.1193 61.2329 21.026V20.298C61.2329 20.2047 61.2609 20.1253 61.3169 20.06C61.3823 19.9947 61.4616 19.962 61.5549 19.962H62.3809C62.4743 19.962 62.5536 19.9947 62.6189 20.06C62.6843 20.1253 62.7169 20.2047 62.7169 20.298V21.026C62.7169 21.1193 62.6843 21.1987 62.6189 21.264C62.5536 21.32 62.4743 21.348 62.3809 21.348H61.5549ZM61.6669 30C61.5736 30 61.4943 29.972 61.4289 29.916C61.3729 29.8507 61.3449 29.7713 61.3449 29.678V23.042C61.3449 22.9487 61.3729 22.874 61.4289 22.818C61.4943 22.7527 61.5736 22.72 61.6669 22.72H62.2829C62.3763 22.72 62.4509 22.7527 62.5069 22.818C62.5723 22.874 62.6049 22.9487 62.6049 23.042V29.678C62.6049 29.7713 62.5723 29.8507 62.5069 29.916C62.4509 29.972 62.3763 30 62.2829 30H61.6669ZM67.5082 30C66.0615 30 65.3382 29.1833 65.3382 27.55V23.798H64.2322C64.1389 23.798 64.0642 23.77 64.0082 23.714C63.9522 23.658 63.9242 23.5833 63.9242 23.49V23.042C63.9242 22.9487 63.9522 22.874 64.0082 22.818C64.0642 22.7527 64.1389 22.72 64.2322 22.72H65.3382V20.382C65.3382 20.2887 65.3662 20.214 65.4222 20.158C65.4782 20.0927 65.5529 20.06 65.6462 20.06H66.2622C66.3555 20.06 66.4302 20.0927 66.4862 20.158C66.5515 20.214 66.5842 20.2887 66.5842 20.382V22.72H68.3202C68.4135 22.72 68.4882 22.7527 68.5442 22.818C68.6095 22.874 68.6422 22.9487 68.6422 23.042V23.49C68.6422 23.5833 68.6095 23.658 68.5442 23.714C68.4882 23.77 68.4135 23.798 68.3202 23.798H66.5842V27.452C66.5842 27.928 66.6589 28.2873 66.8082 28.53C66.9669 28.7727 67.2329 28.894 67.6062 28.894H68.4602C68.5535 28.894 68.6282 28.9267 68.6842 28.992C68.7402 29.048 68.7682 29.1227 68.7682 29.216V29.678C68.7682 29.7713 68.7402 29.8507 68.6842 29.916C68.6282 29.972 68.5535 30 68.4602 30H67.5082Z" fill="#999999"/>
<path d="M107.714 19.2857H106.429V18.4286C106.429 18.1919 106.237 18 106 18C105.763 18 105.571 18.1919 105.571 18.4286V19.2857H100.429V18.4286C100.429 18.1919 100.237 18 100 18C99.7633 18 99.5714 18.1919 99.5714 18.4286V19.2857H98.2857C97.5756 19.2857 97 19.8613 97 20.5714V28.7143C97 29.4244 97.5756 30 98.2857 30H107.714C108.424 30 109 29.4244 109 28.7143V20.5714C109 19.8613 108.424 19.2857 107.714 19.2857ZM108.143 28.7143C108.143 28.951 107.951 29.1429 107.714 29.1429H98.2857C98.049 29.1429 97.8571 28.951 97.8571 28.7143V23.1429H108.143V28.7143ZM108.143 22.2857H97.8571V20.5714C97.8571 20.3347 98.049 20.1428 98.2857 20.1428H99.5714V21C99.5714 21.2367 99.7633 21.4286 100 21.4286C100.237 21.4286 100.429 21.2367 100.429 21V20.1428H105.571V21C105.571 21.2367 105.763 21.4286 106 21.4286C106.237 21.4286 106.429 21.2367 106.429 21V20.1428H107.714C107.951 20.1428 108.143 20.3347 108.143 20.5714V22.2857H108.143Z" fill="#FC7575"/>
<path d="M105.864 24.1257C105.698 23.9653 105.435 23.9653 105.269 24.1257L102.143 27.2512L100.732 25.8399C100.561 25.6755 100.29 25.6802 100.126 25.8505C99.9653 26.0166 99.9653 26.2799 100.126 26.4459L101.84 28.1602C102.007 28.3275 102.279 28.3275 102.446 28.1602L105.875 24.7317C106.039 24.5614 106.034 24.2901 105.864 24.1257Z" fill="#FC7575"/>
<path d="M122.864 29C122.771 29 122.696 28.972 122.64 28.916C122.584 28.8507 122.556 28.7713 122.556 28.678V20.782L120.204 22.588C120.139 22.644 120.069 22.672 119.994 22.672C119.91 22.672 119.831 22.6253 119.756 22.532L119.42 22.098C119.373 22.0327 119.35 21.9673 119.35 21.902C119.35 21.7993 119.397 21.7153 119.49 21.65L122.528 19.298C122.631 19.2327 122.752 19.2 122.892 19.2H123.55C123.643 19.2 123.718 19.2327 123.774 19.298C123.839 19.354 123.872 19.4287 123.872 19.522V28.678C123.872 28.7713 123.839 28.8507 123.774 28.916C123.718 28.972 123.643 29 123.55 29H122.864ZM127.663 29C127.579 29 127.509 28.972 127.453 28.916C127.407 28.8507 127.383 28.776 127.383 28.692C127.383 28.6267 127.402 28.566 127.439 28.51L129.595 25.514C129.371 25.57 129.11 25.598 128.811 25.598C128.139 25.5887 127.551 25.4347 127.047 25.136C126.543 24.828 126.156 24.4313 125.885 23.946C125.624 23.4513 125.493 22.924 125.493 22.364C125.493 21.804 125.624 21.272 125.885 20.768C126.156 20.264 126.553 19.8533 127.075 19.536C127.607 19.2187 128.247 19.06 128.993 19.06C129.74 19.06 130.379 19.214 130.911 19.522C131.443 19.83 131.845 20.236 132.115 20.74C132.386 21.2347 132.521 21.7667 132.521 22.336C132.521 22.8493 132.428 23.302 132.241 23.694C132.064 24.086 131.826 24.492 131.527 24.912L128.811 28.72C128.746 28.804 128.681 28.874 128.615 28.93C128.559 28.9767 128.475 29 128.363 29H127.663ZM128.993 24.492C129.395 24.492 129.763 24.4033 130.099 24.226C130.435 24.0487 130.701 23.8013 130.897 23.484C131.093 23.1573 131.191 22.784 131.191 22.364C131.191 21.9347 131.093 21.5567 130.897 21.23C130.701 20.9033 130.435 20.6513 130.099 20.474C129.763 20.2967 129.395 20.208 128.993 20.208C128.601 20.208 128.237 20.2967 127.901 20.474C127.575 20.6513 127.313 20.9033 127.117 21.23C126.921 21.5567 126.823 21.9347 126.823 22.364C126.823 22.784 126.921 23.1573 127.117 23.484C127.313 23.8013 127.575 24.0487 127.901 24.226C128.228 24.4033 128.592 24.492 128.993 24.492ZM141.018 29.14C140.253 29.14 139.585 29.0187 139.016 28.776C138.456 28.5333 138.027 28.216 137.728 27.824C137.439 27.4227 137.285 26.9933 137.266 26.536C137.266 26.4613 137.294 26.396 137.35 26.34C137.406 26.284 137.476 26.256 137.56 26.256H138.246C138.414 26.256 138.531 26.3493 138.596 26.536C138.68 26.928 138.918 27.2687 139.31 27.558C139.711 27.838 140.281 27.978 141.018 27.978C141.811 27.978 142.404 27.838 142.796 27.558C143.188 27.278 143.384 26.8907 143.384 26.396C143.384 26.0787 143.286 25.8173 143.09 25.612C142.903 25.4067 142.619 25.2293 142.236 25.08C141.863 24.9213 141.298 24.73 140.542 24.506C139.823 24.3007 139.249 24.0813 138.82 23.848C138.4 23.6147 138.083 23.33 137.868 22.994C137.653 22.6487 137.546 22.2147 137.546 21.692C137.546 21.188 137.681 20.74 137.952 20.348C138.223 19.9467 138.615 19.634 139.128 19.41C139.641 19.1767 140.248 19.06 140.948 19.06C141.676 19.06 142.297 19.1907 142.81 19.452C143.333 19.704 143.729 20.026 144 20.418C144.271 20.8007 144.415 21.188 144.434 21.58C144.434 21.664 144.406 21.734 144.35 21.79C144.294 21.846 144.224 21.874 144.14 21.874H143.44C143.365 21.874 143.295 21.8507 143.23 21.804C143.165 21.7573 143.118 21.6873 143.09 21.594C143.034 21.1927 142.81 20.8613 142.418 20.6C142.026 20.3387 141.536 20.208 140.948 20.208C140.313 20.208 139.809 20.334 139.436 20.586C139.063 20.8287 138.876 21.1927 138.876 21.678C138.876 22.0047 138.96 22.2707 139.128 22.476C139.305 22.6813 139.571 22.8633 139.926 23.022C140.29 23.1807 140.817 23.3627 141.508 23.568C142.301 23.792 142.922 24.016 143.37 24.24C143.827 24.464 144.168 24.744 144.392 25.08C144.616 25.4067 144.728 25.8313 144.728 26.354C144.728 27.2313 144.392 27.9173 143.72 28.412C143.057 28.8973 142.157 29.14 141.018 29.14ZM149.28 29.14C148.328 29.14 147.567 28.846 146.998 28.258C146.428 27.6607 146.116 26.8487 146.06 25.822L146.046 25.346L146.06 24.884C146.116 23.876 146.428 23.0733 146.998 22.476C147.567 21.8787 148.328 21.58 149.28 21.58C150.306 21.58 151.1 21.9067 151.66 22.56C152.229 23.2133 152.514 24.1 152.514 25.22V25.472C152.514 25.5653 152.481 25.6447 152.416 25.71C152.36 25.766 152.285 25.794 152.192 25.794H147.334V25.92C147.362 26.5267 147.548 27.0447 147.894 27.474C148.239 27.9033 148.696 28.118 149.266 28.118C149.704 28.118 150.059 28.034 150.33 27.866C150.61 27.6887 150.82 27.5067 150.96 27.32C151.044 27.208 151.109 27.1427 151.156 27.124C151.202 27.096 151.282 27.082 151.394 27.082H152.01C152.094 27.082 152.164 27.1053 152.22 27.152C152.285 27.1987 152.318 27.2593 152.318 27.334C152.318 27.5393 152.192 27.7867 151.94 28.076C151.688 28.3653 151.328 28.6173 150.862 28.832C150.404 29.0373 149.877 29.14 149.28 29.14ZM151.24 24.842V24.8C151.24 24.1467 151.062 23.6147 150.708 23.204C150.353 22.7933 149.877 22.588 149.28 22.588C148.673 22.588 148.197 22.7933 147.852 23.204C147.506 23.6147 147.334 24.1467 147.334 24.8V24.842H151.24ZM154.552 31.66C154.459 31.66 154.379 31.632 154.314 31.576C154.258 31.52 154.23 31.4407 154.23 31.338V22.042C154.23 21.9393 154.258 21.86 154.314 21.804C154.379 21.748 154.459 21.72 154.552 21.72H155.14C155.243 21.72 155.322 21.748 155.378 21.804C155.434 21.86 155.462 21.9393 155.462 22.042V22.658C156.003 21.9393 156.773 21.58 157.772 21.58C158.752 21.58 159.485 21.8927 159.97 22.518C160.465 23.134 160.726 23.9227 160.754 24.884C160.763 24.9867 160.768 25.1453 160.768 25.36C160.768 25.5747 160.763 25.7333 160.754 25.836C160.726 26.788 160.465 27.5767 159.97 28.202C159.485 28.8273 158.752 29.14 157.772 29.14C156.773 29.14 156.017 28.7853 155.504 28.076V31.338C155.504 31.4313 155.471 31.506 155.406 31.562C155.35 31.6273 155.275 31.66 155.182 31.66H154.552ZM157.506 28.048C158.178 28.048 158.668 27.838 158.976 27.418C159.284 26.998 159.452 26.4473 159.48 25.766C159.489 25.6727 159.494 25.5373 159.494 25.36C159.494 23.568 158.831 22.672 157.506 22.672C156.853 22.672 156.358 22.8913 156.022 23.33C155.695 23.7593 155.523 24.268 155.504 24.856C155.495 24.9587 155.49 25.1407 155.49 25.402C155.49 25.6633 155.495 25.8453 155.504 25.948C155.523 26.5173 155.7 27.012 156.036 27.432C156.381 27.8427 156.871 28.048 157.506 28.048ZM165.246 29C163.8 29 163.076 28.1833 163.076 26.55V22.798H161.97C161.877 22.798 161.802 22.77 161.746 22.714C161.69 22.658 161.662 22.5833 161.662 22.49V22.042C161.662 21.9487 161.69 21.874 161.746 21.818C161.802 21.7527 161.877 21.72 161.97 21.72H163.076V19.382C163.076 19.2887 163.104 19.214 163.16 19.158C163.216 19.0927 163.291 19.06 163.384 19.06H164C164.094 19.06 164.168 19.0927 164.224 19.158C164.29 19.214 164.322 19.2887 164.322 19.382V21.72H166.058C166.152 21.72 166.226 21.7527 166.282 21.818C166.348 21.874 166.38 21.9487 166.38 22.042V22.49C166.38 22.5833 166.348 22.658 166.282 22.714C166.226 22.77 166.152 22.798 166.058 22.798H164.322V26.452C164.322 26.928 164.397 27.2873 164.546 27.53C164.705 27.7727 164.971 27.894 165.344 27.894H166.198C166.292 27.894 166.366 27.9267 166.422 27.992C166.478 28.048 166.506 28.1227 166.506 28.216V28.678C166.506 28.7713 166.478 28.8507 166.422 28.916C166.366 28.972 166.292 29 166.198 29H165.246ZM170.758 29.14C169.806 29.14 169.046 28.846 168.476 28.258C167.907 27.6607 167.594 26.8487 167.538 25.822L167.524 25.346L167.538 24.884C167.594 23.876 167.907 23.0733 168.476 22.476C169.046 21.8787 169.806 21.58 170.758 21.58C171.785 21.58 172.578 21.9067 173.138 22.56C173.708 23.2133 173.992 24.1 173.992 25.22V25.472C173.992 25.5653 173.96 25.6447 173.894 25.71C173.838 25.766 173.764 25.794 173.67 25.794H168.812V25.92C168.84 26.5267 169.027 27.0447 169.372 27.474C169.718 27.9033 170.175 28.118 170.744 28.118C171.183 28.118 171.538 28.034 171.808 27.866C172.088 27.6887 172.298 27.5067 172.438 27.32C172.522 27.208 172.588 27.1427 172.634 27.124C172.681 27.096 172.76 27.082 172.872 27.082H173.488C173.572 27.082 173.642 27.1053 173.698 27.152C173.764 27.1987 173.796 27.2593 173.796 27.334C173.796 27.5393 173.67 27.7867 173.418 28.076C173.166 28.3653 172.807 28.6173 172.34 28.832C171.883 29.0373 171.356 29.14 170.758 29.14ZM172.718 24.842V24.8C172.718 24.1467 172.541 23.6147 172.186 23.204C171.832 22.7933 171.356 22.588 170.758 22.588C170.152 22.588 169.676 22.7933 169.33 23.204C168.985 23.6147 168.812 24.1467 168.812 24.8V24.842H172.718ZM176.017 29C175.923 29 175.844 28.972 175.779 28.916C175.723 28.8507 175.695 28.7713 175.695 28.678V22.042C175.695 21.9487 175.723 21.874 175.779 21.818C175.844 21.7527 175.923 21.72 176.017 21.72H176.605C176.698 21.72 176.773 21.7527 176.829 21.818C176.885 21.874 176.913 21.9487 176.913 22.042V22.518C177.417 21.8927 178.098 21.58 178.957 21.58C179.983 21.58 180.711 22.0093 181.141 22.868C181.365 22.476 181.682 22.1633 182.093 21.93C182.513 21.6967 182.979 21.58 183.493 21.58C184.258 21.58 184.883 21.8413 185.369 22.364C185.854 22.8867 186.097 23.6427 186.097 24.632V28.678C186.097 28.7713 186.064 28.8507 185.999 28.916C185.943 28.972 185.868 29 185.775 29H185.173C185.079 29 185 28.972 184.935 28.916C184.879 28.8507 184.851 28.7713 184.851 28.678V24.758C184.851 24.0113 184.697 23.4793 184.389 23.162C184.081 22.8353 183.675 22.672 183.171 22.672C182.723 22.672 182.335 22.84 182.009 23.176C181.691 23.5027 181.533 24.03 181.533 24.758V28.678C181.533 28.7713 181.5 28.8507 181.435 28.916C181.379 28.972 181.304 29 181.211 29H180.595C180.501 29 180.422 28.972 180.357 28.916C180.301 28.8507 180.273 28.7713 180.273 28.678V24.758C180.273 24.0207 180.109 23.4887 179.783 23.162C179.465 22.8353 179.069 22.672 178.593 22.672C178.145 22.672 177.757 22.8353 177.431 23.162C177.113 23.4887 176.955 24.016 176.955 24.744V28.678C176.955 28.7713 176.922 28.8507 176.857 28.916C176.801 28.972 176.726 29 176.633 29H176.017ZM191.678 29.14C190.67 29.14 189.9 28.7853 189.368 28.076V28.678C189.368 28.7713 189.336 28.8507 189.27 28.916C189.214 28.972 189.14 29 189.046 29H188.458C188.365 29 188.286 28.972 188.22 28.916C188.164 28.8507 188.136 28.7713 188.136 28.678V19.382C188.136 19.2793 188.164 19.2 188.22 19.144C188.286 19.088 188.365 19.06 188.458 19.06H189.088C189.182 19.06 189.256 19.0927 189.312 19.158C189.378 19.214 189.41 19.2887 189.41 19.382V22.616C189.933 21.9253 190.689 21.58 191.678 21.58C192.658 21.58 193.391 21.902 193.876 22.546C194.371 23.1807 194.632 23.9787 194.66 24.94C194.67 25.0427 194.674 25.1827 194.674 25.36C194.674 25.5373 194.67 25.6773 194.66 25.78C194.632 26.7413 194.371 27.544 193.876 28.188C193.391 28.8227 192.658 29.14 191.678 29.14ZM191.412 28.048C192.084 28.048 192.574 27.838 192.882 27.418C193.19 26.998 193.358 26.4473 193.386 25.766C193.396 25.6727 193.4 25.5373 193.4 25.36C193.4 23.568 192.738 22.672 191.412 22.672C190.778 22.672 190.288 22.882 189.942 23.302C189.606 23.7127 189.429 24.2027 189.41 24.772C189.401 24.8747 189.396 25.0567 189.396 25.318C189.396 25.57 189.401 25.7473 189.41 25.85C189.429 26.4473 189.602 26.9653 189.928 27.404C190.264 27.8333 190.759 28.048 191.412 28.048ZM199.319 29.14C198.367 29.14 197.606 28.846 197.037 28.258C196.467 27.6607 196.155 26.8487 196.099 25.822L196.085 25.346L196.099 24.884C196.155 23.876 196.467 23.0733 197.037 22.476C197.606 21.8787 198.367 21.58 199.319 21.58C200.345 21.58 201.139 21.9067 201.699 22.56C202.268 23.2133 202.553 24.1 202.553 25.22V25.472C202.553 25.5653 202.52 25.6447 202.455 25.71C202.399 25.766 202.324 25.794 202.231 25.794H197.373V25.92C197.401 26.5267 197.587 27.0447 197.933 27.474C198.278 27.9033 198.735 28.118 199.305 28.118C199.743 28.118 200.098 28.034 200.369 27.866C200.649 27.6887 200.859 27.5067 200.999 27.32C201.083 27.208 201.148 27.1427 201.195 27.124C201.241 27.096 201.321 27.082 201.433 27.082H202.049C202.133 27.082 202.203 27.1053 202.259 27.152C202.324 27.1987 202.357 27.2593 202.357 27.334C202.357 27.5393 202.231 27.7867 201.979 28.076C201.727 28.3653 201.367 28.6173 200.901 28.832C200.443 29.0373 199.916 29.14 199.319 29.14ZM201.279 24.842V24.8C201.279 24.1467 201.101 23.6147 200.747 23.204C200.392 22.7933 199.916 22.588 199.319 22.588C198.712 22.588 198.236 22.7933 197.891 23.204C197.545 23.6147 197.373 24.1467 197.373 24.8V24.842H201.279ZM204.577 29C204.484 29 204.404 28.972 204.339 28.916C204.283 28.8507 204.255 28.7713 204.255 28.678V22.056C204.255 21.9627 204.283 21.8833 204.339 21.818C204.404 21.7527 204.484 21.72 204.577 21.72H205.165C205.268 21.72 205.347 21.7527 205.403 21.818C205.468 21.874 205.501 21.9533 205.501 22.056V22.672C205.884 22.0373 206.532 21.72 207.447 21.72H207.993C208.096 21.72 208.175 21.748 208.231 21.804C208.287 21.86 208.315 21.9393 208.315 22.042V22.56C208.315 22.6533 208.287 22.7327 208.231 22.798C208.175 22.854 208.096 22.882 207.993 22.882H207.195C206.682 22.882 206.276 23.0313 205.977 23.33C205.688 23.6287 205.543 24.0347 205.543 24.548V28.678C205.543 28.7713 205.51 28.8507 205.445 28.916C205.38 28.972 205.3 29 205.207 29H204.577ZM212.594 29C212.501 29 212.421 28.972 212.356 28.916C212.3 28.8507 212.272 28.7713 212.272 28.678V28.258C212.272 28.0433 212.389 27.838 212.622 27.642L215.674 24.604C216.365 24.016 216.841 23.5353 217.102 23.162C217.363 22.7887 217.494 22.392 217.494 21.972C217.494 21.4213 217.34 20.992 217.032 20.684C216.724 20.3667 216.276 20.208 215.688 20.208C215.128 20.208 214.685 20.3713 214.358 20.698C214.031 21.0247 213.831 21.4633 213.756 22.014C213.737 22.1167 213.691 22.196 213.616 22.252C213.541 22.308 213.467 22.336 213.392 22.336H212.72C212.636 22.336 212.566 22.308 212.51 22.252C212.454 22.196 212.426 22.1307 212.426 22.056C212.445 21.5613 212.575 21.0853 212.818 20.628C213.07 20.1613 213.439 19.7833 213.924 19.494C214.409 19.1953 214.997 19.046 215.688 19.046C216.733 19.046 217.517 19.3213 218.04 19.872C218.572 20.4133 218.838 21.104 218.838 21.944C218.838 22.532 218.693 23.064 218.404 23.54C218.124 24.0067 217.681 24.5013 217.074 25.024L214.316 27.824H218.726C218.829 27.824 218.908 27.852 218.964 27.908C219.02 27.964 219.048 28.0433 219.048 28.146V28.678C219.048 28.7713 219.015 28.8507 218.95 28.916C218.894 28.972 218.819 29 218.726 29H212.594ZM224.186 29.14C222.982 29.14 222.1 28.79 221.54 28.09C220.989 27.3807 220.695 26.4567 220.658 25.318L220.644 24.114L220.658 22.868C220.686 21.7387 220.98 20.824 221.54 20.124C222.109 19.4147 222.991 19.06 224.186 19.06C225.39 19.06 226.272 19.4147 226.832 20.124C227.401 20.824 227.7 21.7387 227.728 22.868C227.737 23.1293 227.742 23.5447 227.742 24.114C227.742 24.6647 227.737 25.066 227.728 25.318C227.69 26.4567 227.392 27.3807 226.832 28.09C226.281 28.79 225.399 29.14 224.186 29.14ZM224.186 27.978C224.904 27.978 225.446 27.74 225.81 27.264C226.174 26.788 226.365 26.116 226.384 25.248C226.393 24.9773 226.398 24.59 226.398 24.086C226.398 23.5727 226.393 23.19 226.384 22.938C226.365 22.0793 226.169 21.412 225.796 20.936C225.432 20.4507 224.895 20.208 224.186 20.208C223.476 20.208 222.94 20.4507 222.576 20.936C222.212 21.412 222.02 22.0793 222.002 22.938L221.988 24.086L222.002 25.248C222.02 26.116 222.212 26.788 222.576 27.264C222.94 27.74 223.476 27.978 224.186 27.978ZM229.629 29C229.536 29 229.456 28.972 229.391 28.916C229.335 28.8507 229.307 28.7713 229.307 28.678V28.258C229.307 28.0433 229.424 27.838 229.657 27.642L232.709 24.604C233.4 24.016 233.876 23.5353 234.137 23.162C234.398 22.7887 234.529 22.392 234.529 21.972C234.529 21.4213 234.375 20.992 234.067 20.684C233.759 20.3667 233.311 20.208 232.723 20.208C232.163 20.208 231.72 20.3713 231.393 20.698C231.066 21.0247 230.866 21.4633 230.791 22.014C230.772 22.1167 230.726 22.196 230.651 22.252C230.576 22.308 230.502 22.336 230.427 22.336H229.755C229.671 22.336 229.601 22.308 229.545 22.252C229.489 22.196 229.461 22.1307 229.461 22.056C229.48 21.5613 229.61 21.0853 229.853 20.628C230.105 20.1613 230.474 19.7833 230.959 19.494C231.444 19.1953 232.032 19.046 232.723 19.046C233.768 19.046 234.552 19.3213 235.075 19.872C235.607 20.4133 235.873 21.104 235.873 21.944C235.873 22.532 235.728 23.064 235.439 23.54C235.159 24.0067 234.716 24.5013 234.109 25.024L231.351 27.824H235.761C235.864 27.824 235.943 27.852 235.999 27.908C236.055 27.964 236.083 28.0433 236.083 28.146V28.678C236.083 28.7713 236.05 28.8507 235.985 28.916C235.929 28.972 235.854 29 235.761 29H229.629ZM241.221 29.14C240.017 29.14 239.135 28.79 238.575 28.09C238.024 27.3807 237.73 26.4567 237.693 25.318L237.679 24.114L237.693 22.868C237.721 21.7387 238.015 20.824 238.575 20.124C239.144 19.4147 240.026 19.06 241.221 19.06C242.425 19.06 243.307 19.4147 243.867 20.124C244.436 20.824 244.735 21.7387 244.763 22.868C244.772 23.1293 244.777 23.5447 244.777 24.114C244.777 24.6647 244.772 25.066 244.763 25.318C244.726 26.4567 244.427 27.3807 243.867 28.09C243.316 28.79 242.434 29.14 241.221 29.14ZM241.221 27.978C241.94 27.978 242.481 27.74 242.845 27.264C243.209 26.788 243.4 26.116 243.419 25.248C243.428 24.9773 243.433 24.59 243.433 24.086C243.433 23.5727 243.428 23.19 243.419 22.938C243.4 22.0793 243.204 21.412 242.831 20.936C242.467 20.4507 241.93 20.208 241.221 20.208C240.512 20.208 239.975 20.4507 239.611 20.936C239.247 21.412 239.056 22.0793 239.037 22.938L239.023 24.086L239.037 25.248C239.056 26.116 239.247 26.788 239.611 27.264C239.975 27.74 240.512 27.978 241.221 27.978Z" fill="#999999"/>
</svg>
