<svg width="35" height="35" viewBox="0 0 35 35" fill="none" xmlns="http://www.w3.org/2000/svg">
<circle cx="17.5" cy="17.5" r="17.5" fill="white" fill-opacity="0.1"/>
<path d="M20.3125 10H14.6875C12.0991 10 10 12.0991 10 14.6875V20.3125C10 22.9009 12.0991 25 14.6875 25H20.3125C22.9009 25 25 22.9009 25 20.3125V14.6875C25 12.0991 22.9009 10 20.3125 10ZM23.5938 20.3125C23.5938 22.1219 22.1219 23.5938 20.3125 23.5938H14.6875C12.8781 23.5938 11.4062 22.1219 11.4062 20.3125V14.6875C11.4062 12.8781 12.8781 11.4062 14.6875 11.4062H20.3125C22.1219 11.4062 23.5938 12.8781 23.5938 14.6875V20.3125Z" fill="white"/>
<path d="M17.5 13.75C15.4291 13.75 13.75 15.4291 13.75 17.5C13.75 19.5709 15.4291 21.25 17.5 21.25C19.5709 21.25 21.25 19.5709 21.25 17.5C21.25 15.4291 19.5709 13.75 17.5 13.75ZM17.5 19.8438C16.2081 19.8438 15.1562 18.7919 15.1562 17.5C15.1562 16.2072 16.2081 15.1562 17.5 15.1562C18.7919 15.1562 19.8438 16.2072 19.8438 17.5C19.8438 18.7919 18.7919 19.8438 17.5 19.8438Z" fill="white"/>
</svg>
