<svg width="67" height="24" viewBox="0 0 67 24" fill="none" xmlns="http://www.w3.org/2000/svg">
<path d="M46.8478 18.9904H55.846C56.0688 18.9904 56.2642 18.843 56.3245 18.629L58.3169 11.6562C58.3597 11.5059 58.3304 11.3444 58.2361 11.2195C58.1416 11.095 57.9948 11.0215 57.8381 11.0215H45.698L45.342 9.41943C45.2914 9.19129 45.0891 9.0293 44.8556 9.0293H41.8341C41.5589 9.0293 41.3361 9.25212 41.3361 9.52734C41.3361 9.8027 41.5589 10.0254 41.8341 10.0254H44.4559L46.2544 18.1187C45.7252 18.3487 45.3536 18.8755 45.3536 19.4884C45.3536 20.3123 46.0239 20.9826 46.8478 20.9826H55.846C56.1213 20.9826 56.344 20.7599 56.344 20.4845C56.344 20.2093 56.1213 19.9865 55.846 19.9865H46.8478C46.5735 19.9865 46.3497 19.7632 46.3497 19.4884C46.3497 19.2136 46.5735 18.9904 46.8478 18.9904Z" fill="var(--primary-color)"/>
<path d="M46.3497 22.4766C46.3497 23.3005 47.02 23.9707 47.844 23.9707C48.6679 23.9707 49.3381 23.3005 49.3381 22.4766C49.3381 21.6527 48.6679 20.9824 47.844 20.9824C47.02 20.9824 46.3497 21.6527 46.3497 22.4766Z" fill="var(--primary-color)"/>
<path d="M53.3557 22.4766C53.3557 23.3005 54.026 23.9707 54.8499 23.9707C55.6738 23.9707 56.344 23.3005 56.344 22.4766C56.344 21.6527 55.6738 20.9824 54.8499 20.9824C54.026 20.9824 53.3557 21.6527 53.3557 22.4766Z" fill="var(--primary-color)"/>
<circle cx="58.8361" cy="9.5" r="7.5" fill="#F96969"/>
<path d="M12.0777 18.3276C12.8651 17.2524 13.336 15.9317 13.336 14.5C13.336 10.916 10.42 8 6.83602 8C3.25205 8 0.33606 10.916 0.33606 14.5C0.33606 18.084 3.25208 21 6.83605 21C8.26775 21 9.58854 20.529 10.6637 19.7417L14.922 24L16.3361 22.5859C16.3361 22.5859 12.0777 18.3276 12.0777 18.3276ZM6.83605 19C4.3546 19 2.33607 16.9815 2.33607 14.5C2.33607 12.0186 4.3546 10 6.83605 10C9.31749 10 11.336 12.0186 11.336 14.5C11.336 16.9815 9.31746 19 6.83605 19Z" fill="var(--primary-color)"/>
<path d="M58.9361 4.264C59.4961 4.264 59.9761 4.364 60.3761 4.564C60.7761 4.756 61.0761 5.024 61.2761 5.368C61.4841 5.712 61.5881 6.096 61.5881 6.52C61.5881 7.056 61.4361 7.504 61.1321 7.864C60.8361 8.216 60.4161 8.428 59.8721 8.5V8.56C60.4561 8.728 60.9121 8.98 61.2401 9.316C61.5761 9.644 61.7441 10.1 61.7441 10.684C61.7441 11.396 61.5081 11.976 61.0361 12.424C60.5641 12.864 59.8881 13.084 59.0081 13.084C58.1041 13.084 57.3761 12.856 56.8241 12.4C56.2721 11.936 55.9561 11.252 55.8761 10.348H57.2321C57.2801 10.828 57.4521 11.212 57.7481 11.5C58.0441 11.78 58.4441 11.92 58.9481 11.92C59.4201 11.92 59.7801 11.796 60.0281 11.548C60.2841 11.3 60.4121 10.98 60.4121 10.588C60.4121 10.116 60.2281 9.756 59.8601 9.508C59.5001 9.26 58.9761 9.136 58.2881 9.136H57.9641V8.008H58.2881C59.5921 8.024 60.2441 7.58 60.2441 6.676C60.2441 6.284 60.1241 5.976 59.8841 5.752C59.6441 5.528 59.3161 5.416 58.9001 5.416C58.4841 5.416 58.1361 5.544 57.8561 5.8C57.5761 6.048 57.4081 6.412 57.3521 6.892H56.0081C56.0641 6.06 56.3441 5.416 56.8481 4.96C57.3521 4.496 58.0481 4.264 58.9361 4.264Z" fill="white"/>
</svg>
