<svg width="559" height="470" viewBox="0 0 559 470" fill="none" xmlns="http://www.w3.org/2000/svg">
<path d="M89 311.531C89 294.004 98.1776 277.756 113.189 268.708L483.189 45.6943C516.513 25.6083 559 49.6074 559 88.5171V420C559 447.614 536.614 470 509 470H139C111.386 470 89 447.614 89 420L89 311.531Z" fill="#FC7575" fill-opacity="0.4"/>
<rect y="76" width="526" height="373" fill="#C4C4C4"/>
<path d="M173.12 248.24H153.02V258.92C153.94 257.84 155.2 256.98 156.8 256.34C158.44 255.66 160.24 255.32 162.2 255.32C165.12 255.32 167.54 255.96 169.46 257.24C171.42 258.48 172.86 260.16 173.78 262.28C174.74 264.36 175.22 266.68 175.22 269.24C175.22 273.76 173.94 277.38 171.38 280.1C168.86 282.82 165.24 284.18 160.52 284.18C157.44 284.18 154.76 283.64 152.48 282.56C150.2 281.44 148.42 279.9 147.14 277.94C145.86 275.94 145.16 273.62 145.04 270.98H153.26C153.58 272.78 154.32 274.22 155.48 275.3C156.64 276.34 158.18 276.86 160.1 276.86C162.42 276.86 164.14 276.16 165.26 274.76C166.42 273.32 167 271.42 167 269.06C167 266.82 166.4 265.08 165.2 263.84C164 262.6 162.3 261.98 160.1 261.98C158.5 261.98 157.14 262.34 156.02 263.06C154.9 263.74 154.08 264.66 153.56 265.82H145.34V240.8H173.12V248.24ZM180.189 277.34C193.749 267.94 200.529 260.14 200.529 253.94C200.529 252.06 200.069 250.58 199.149 249.5C198.269 248.42 196.869 247.88 194.949 247.88C190.989 247.88 188.889 250.58 188.649 255.98H180.429C180.669 250.98 182.189 247.2 184.989 244.64C187.789 242.04 191.329 240.74 195.609 240.74C199.969 240.74 203.309 241.88 205.629 244.16C207.989 246.4 209.169 249.4 209.169 253.16C209.169 256.12 208.289 259.1 206.529 262.1C204.809 265.06 202.609 267.8 199.929 270.32C197.249 272.8 194.429 274.94 191.469 276.74H210.009V283.64H180.189V277.34ZM237.213 253.16C236.573 249 234.453 246.92 230.853 246.92C228.053 246.92 226.013 248.16 224.733 250.64C223.453 253.08 222.893 256.92 223.053 262.16C223.693 260.24 224.933 258.72 226.773 257.6C228.653 256.44 230.833 255.86 233.313 255.86C237.393 255.86 240.593 257.1 242.913 259.58C245.273 262.02 246.453 265.5 246.453 270.02C246.453 272.82 245.893 275.3 244.773 277.46C243.653 279.62 241.973 281.32 239.733 282.56C237.533 283.8 234.853 284.42 231.693 284.42C225.533 284.42 221.293 282.52 218.973 278.72C216.653 274.88 215.493 269.6 215.493 262.88C215.493 255.16 216.733 249.44 219.213 245.72C221.733 242 225.793 240.14 231.393 240.14C235.673 240.14 238.953 241.36 241.233 243.8C243.513 246.24 244.813 249.36 245.133 253.16H237.213ZM223.773 269.42C223.773 271.66 224.413 273.52 225.693 275C227.013 276.44 228.933 277.16 231.453 277.16C233.613 277.16 235.333 276.52 236.613 275.24C237.893 273.96 238.533 272.18 238.533 269.9C238.533 267.5 237.873 265.66 236.553 264.38C235.273 263.1 233.533 262.46 231.333 262.46C229.253 262.46 227.473 263.06 225.993 264.26C224.513 265.46 223.773 267.18 223.773 269.42ZM273.513 284L265.953 273.32L259.593 284H250.293L261.273 266.66L250.053 250.76H259.533L266.913 261.26L273.273 250.76H282.573L271.413 267.62L282.993 284H273.513ZM301.556 240.02C304.436 240.02 306.896 240.52 308.936 241.52C311.016 242.52 312.576 243.9 313.616 245.66C314.696 247.42 315.236 249.38 315.236 251.54C315.236 254.26 314.496 256.5 313.016 258.26C311.536 259.98 309.576 261.04 307.136 261.44V261.74C313.056 263.5 316.016 266.98 316.016 272.18C316.016 275.82 314.796 278.78 312.356 281.06C309.916 283.3 306.476 284.42 302.036 284.42C297.316 284.42 293.556 283.26 290.756 280.94C287.956 278.58 286.396 275.04 286.076 270.32H294.356C294.556 272.48 295.256 274.2 296.456 275.48C297.696 276.72 299.436 277.34 301.676 277.34C303.596 277.34 305.096 276.82 306.176 275.78C307.256 274.7 307.796 273.3 307.796 271.58C307.796 269.54 307.016 267.98 305.456 266.9C303.896 265.82 301.596 265.28 298.556 265.28H296.816V258.38H298.556C304.156 258.46 306.956 256.52 306.956 252.56C306.956 250.84 306.456 249.5 305.456 248.54C304.456 247.54 303.096 247.04 301.376 247.04C299.576 247.04 298.096 247.62 296.936 248.78C295.776 249.9 295.116 251.48 294.956 253.52H286.676C286.916 249.2 288.316 245.88 290.876 243.56C293.436 241.2 296.996 240.02 301.556 240.02ZM348.574 247.58L333.094 284H324.334L339.994 248.54H320.374V241.28H348.574V247.58ZM367.943 240.02C370.823 240.02 373.283 240.52 375.323 241.52C377.403 242.52 378.963 243.9 380.003 245.66C381.083 247.42 381.623 249.38 381.623 251.54C381.623 254.26 380.883 256.5 379.403 258.26C377.923 259.98 375.963 261.04 373.523 261.44V261.74C379.443 263.5 382.403 266.98 382.403 272.18C382.403 275.82 381.183 278.78 378.743 281.06C376.303 283.3 372.863 284.42 368.423 284.42C363.703 284.42 359.943 283.26 357.143 280.94C354.343 278.58 352.783 275.04 352.463 270.32H360.743C360.943 272.48 361.643 274.2 362.843 275.48C364.083 276.72 365.823 277.34 368.063 277.34C369.983 277.34 371.483 276.82 372.563 275.78C373.643 274.7 374.183 273.3 374.183 271.58C374.183 269.54 373.403 267.98 371.843 266.9C370.283 265.82 367.983 265.28 364.943 265.28H363.203V258.38H364.943C370.543 258.46 373.343 256.52 373.343 252.56C373.343 250.84 372.843 249.5 371.843 248.54C370.843 247.54 369.483 247.04 367.763 247.04C365.963 247.04 364.483 247.62 363.323 248.78C362.163 249.9 361.503 251.48 361.343 253.52H353.063C353.303 249.2 354.703 245.88 357.263 243.56C359.823 241.2 363.383 240.02 367.943 240.02Z" fill="black"/>
<circle cx="493" cy="110" r="30" fill="#F1F9F4"/>
<path d="M499.895 108.132L488.8 100.537C488.288 100.186 487.772 100 487.343 100C486.513 100 486 100.666 486 101.78V118.196C486 119.309 486.513 119.973 487.34 119.973C487.77 119.973 488.278 119.787 488.791 119.435L499.891 111.84C500.605 111.351 501 110.693 501 109.986C501 109.279 500.609 108.621 499.895 108.132Z" fill="var(--primary-color)"/>
</svg>
