<svg width="161" height="160" viewBox="0 0 161 160" fill="none" xmlns="http://www.w3.org/2000/svg">
<g filter="url(#filter0_d_1_551)">
<circle cx="80.3361" cy="60" r="60" fill="url(#paint0_linear_1_551)"/>
</g>
<path d="M69.403 57.7146C72.1438 57.7146 74.8229 56.9019 77.1017 55.3793C79.3806 53.8566 81.1567 51.6924 82.2055 49.1603C83.2544 46.6282 83.5288 43.8419 82.9941 41.1539C82.4594 38.4658 81.1396 35.9967 79.2016 34.0587C77.2637 32.1207 74.7945 30.801 72.1065 30.2663C69.4184 29.7316 66.6322 30.006 64.1001 31.0548C61.568 32.1037 59.4038 33.8798 57.8811 36.1586C56.3584 38.4374 55.5457 41.1166 55.5457 43.8573C55.5499 47.5312 57.0112 51.0534 59.6091 53.6513C62.2069 56.2491 65.7291 57.7104 69.403 57.7146ZM69.403 55.0751C66.8849 55.0759 64.4408 54.2236 62.4691 52.6574L78.2031 36.9234C79.5103 38.575 80.3252 40.5617 80.5545 42.6555C80.7837 44.7494 80.4179 46.8654 79.499 48.7607C78.5801 50.656 77.1455 52.2538 75.3597 53.3707C73.5739 54.4877 71.5093 55.0784 69.403 55.0751ZM69.403 32.6395C71.9211 32.6393 74.365 33.4915 76.337 35.0573L60.603 50.7913C59.2958 49.1396 58.4808 47.1529 58.2516 45.0591C58.0224 42.9653 58.3882 40.8493 59.3071 38.954C60.2259 37.0586 61.6606 35.4608 63.4464 34.3439C65.2322 33.227 67.2967 32.6362 69.403 32.6395Z" fill="white"/>
<path d="M72.3158 64.06C71.4579 63.2021 70.4394 62.5215 69.3185 62.0573C68.1976 61.593 66.9963 61.354 65.783 61.354C63.3328 61.354 60.9829 62.3274 59.2503 64.06C58.3924 64.9178 57.7119 65.9363 57.2476 67.0572C56.7833 68.1781 56.5443 69.3794 56.5443 70.5927C56.5443 73.0429 57.5177 75.3928 59.2503 77.1254L70.4496 88.3235C72.1822 90.056 74.5321 91.0294 76.9824 91.0294C79.4326 91.0294 81.7825 90.056 83.5151 88.3235C85.2477 86.5909 86.2211 84.241 86.2211 81.7907C86.2211 79.3405 85.2477 76.9906 83.5151 75.258L72.3158 64.06ZM61.1164 65.9261C62.3552 64.6905 64.0334 63.9966 65.783 63.9966C67.5327 63.9966 69.2109 64.6905 70.4496 65.9261L75.1149 70.5914L65.783 79.9246L61.1164 75.258C59.8809 74.0195 59.187 72.3415 59.187 70.592C59.187 68.8426 59.8809 67.1646 61.1164 65.9261ZM81.6477 86.456C80.4102 87.6935 78.7318 88.3887 76.9817 88.3887C75.2316 88.3887 73.5533 87.6935 72.3158 86.456L67.6491 81.7907L76.9811 72.4575L81.6477 77.1241C82.8832 78.3626 83.5771 80.0406 83.5771 81.7901C83.5771 83.5395 82.8832 85.2175 81.6477 86.456Z" fill="white"/>
<path d="M105.255 33.1162C102.172 31.8057 98.3926 32.8602 94.5904 36.0869C90.6281 39.6856 87.5309 44.1336 85.5303 49.0983C80.5984 60.6711 81.5328 71.7834 87.6604 74.3952C91.2989 75.9419 95.2846 74.0072 98.3253 71.4244C102.287 67.8256 105.384 63.3776 107.384 58.4131C112.316 46.8402 111.381 35.728 105.255 33.1162ZM96.6162 69.4092C93.6626 71.9167 90.7724 72.8537 88.6977 71.9642C84.2805 70.0809 83.8001 60.8163 87.473 51.3577L104.411 58.5767C102.603 62.6963 99.9473 66.3884 96.6162 69.4118V69.4092ZM105.444 56.1484L88.5064 48.9294C90.3135 44.8115 92.969 41.1212 96.2994 38.0995C98.4374 36.2809 101.64 34.4425 104.218 35.5445C108.635 37.4278 109.117 46.6924 105.444 56.151V56.1484Z" fill="white"/>
<defs>
<filter id="filter0_d_1_551" x="0.33606" y="0" width="160" height="160" filterUnits="userSpaceOnUse" color-interpolation-filters="sRGB">
<feFlood flood-opacity="0" result="BackgroundImageFix"/>
<feColorMatrix in="SourceAlpha" type="matrix" values="0 0 0 0 0 0 0 0 0 0 0 0 0 0 0 0 0 0 127 0" result="hardAlpha"/>
<feOffset dy="20"/>
<feGaussianBlur stdDeviation="10"/>
<feColorMatrix type="matrix" values="0 0 0 0 0.47451 0 0 0 0 0.494118 0 0 0 0 0.964706 0 0 0 0.15 0"/>
<feBlend mode="normal" in2="BackgroundImageFix" result="effect1_dropShadow_1_551"/>
<feBlend mode="normal" in="SourceGraphic" in2="effect1_dropShadow_1_551" result="shape"/>
</filter>
<linearGradient id="paint0_linear_1_551" x1="80.3361" y1="0" x2="80.3361" y2="120" gradientUnits="userSpaceOnUse">
<stop stop-color="#7DD6F6"/>
<stop offset="1" stop-color="#797EF6"/>
</linearGradient>
</defs>
</svg>
