<svg width="56" height="47" viewBox="0 0 56 47" fill="none" xmlns="http://www.w3.org/2000/svg">
<path d="M18.0956 13.4785C19.3938 11.8412 20.1115 9.81921 20.1361 7.72987C20.1607 6.70437 19.9762 5.6846 19.5935 4.73283C19.2109 3.78106 18.6383 2.91726 17.9107 2.19418C17.1831 1.4711 16.3158 0.903914 15.3616 0.527257C14.4075 0.1506 13.3866 -0.0276237 12.3613 0.00346829C6.81396 0.00346829 0.33606 3.74897 0.33606 14.3035C0.33606 24.858 6.81396 28.6035 12.3613 28.6035C13.3866 28.6347 14.4076 28.4566 15.3618 28.08C16.316 27.7034 17.1834 27.1362 17.9111 26.4131C18.6387 25.69 19.2113 24.8261 19.5939 23.8743C19.9764 22.9225 20.1609 21.9026 20.1361 20.8771C20.1218 19.1324 19.6134 17.4276 18.6698 15.9601C20.0761 16.5274 21.281 17.5017 22.1302 18.758C22.9793 20.0144 23.434 21.4957 23.4361 23.0122V45.1035C23.4361 45.3952 23.552 45.675 23.7582 45.8813C23.9645 46.0876 24.2443 46.2035 24.5361 46.2035C24.8278 46.2035 25.1076 46.0876 25.3139 45.8813C25.5202 45.675 25.6361 45.3952 25.6361 45.1035V23.0122C25.6322 20.8072 24.8863 18.6676 23.5185 16.9382C22.1506 15.2087 20.2404 13.9901 18.0956 13.4785ZM12.3613 26.4035C7.61146 26.4035 2.53606 23.2245 2.53606 14.3035C2.53606 5.38247 7.61146 2.20347 12.3613 2.20347C13.0974 2.17296 13.8319 2.29466 14.5189 2.56096C15.2058 2.82725 15.8304 3.23241 16.3537 3.75111C16.8769 4.2698 17.2875 4.89087 17.5598 5.57547C17.832 6.26008 17.9601 6.9935 17.9361 7.72987C17.9024 8.84021 17.6295 9.93019 17.1359 10.9254C16.6423 11.9205 15.9397 12.7974 15.0761 13.4961C14.9648 13.5991 14.8759 13.7239 14.8152 13.8629C14.7545 14.0018 14.7231 14.1518 14.7231 14.3035C14.7231 14.4551 14.7545 14.6051 14.8152 14.7441C14.8759 14.883 14.9648 15.0079 15.0761 15.1109C15.919 15.8277 16.6072 16.7086 17.0989 17.6999C17.5906 18.6912 17.8754 19.7722 17.9361 20.8771C17.9603 21.6135 17.8323 22.347 17.5601 23.0317C17.2879 23.7163 16.8773 24.3375 16.354 24.8562C15.8308 25.3749 15.2061 25.7801 14.519 26.0463C13.832 26.3126 13.0974 26.4341 12.3613 26.4035Z" fill="white"/>
<path d="M43.3108 0.00350309C42.2854 -0.0277481 41.2645 0.150367 40.3103 0.526967C39.356 0.903567 38.4886 1.47075 37.761 2.19386C37.0333 2.91697 36.4608 3.78083 36.0782 4.73268C35.6957 5.68452 35.5112 6.70436 35.536 7.7299C35.5603 9.81948 36.2785 11.8417 37.5776 13.4785C35.4326 13.9899 33.5221 15.2085 32.154 16.9379C30.786 18.6674 30.0399 20.8071 30.036 23.0122V45.1035C30.036 45.3952 30.1519 45.675 30.3582 45.8813C30.5645 46.0876 30.8443 46.2035 31.136 46.2035C31.4277 46.2035 31.7075 46.0876 31.9138 45.8813C32.1201 45.675 32.236 45.3952 32.236 45.1035V23.0122C32.2381 21.4959 32.6927 20.0148 33.5416 18.7584C34.3906 17.5021 35.5952 16.5277 37.0012 15.9601C36.0584 17.4279 35.5505 19.1327 35.536 20.8771C35.5113 21.9026 35.6959 22.9224 36.0785 23.8741C36.4611 24.8259 37.0337 25.6897 37.7613 26.4128C38.4889 27.1359 39.3563 27.7031 40.3104 28.0797C41.2646 28.4564 42.2855 28.6346 43.3108 28.6035C48.8581 28.6035 55.336 24.8635 55.336 14.3035C55.336 3.7435 48.8581 0.00350309 43.3108 0.00350309ZM43.3108 26.4035C42.5747 26.434 41.8402 26.3123 41.1532 26.046C40.4663 25.7797 39.8416 25.3746 39.3184 24.8559C38.7952 24.3372 38.3846 23.7161 38.1123 23.0315C37.84 22.3469 37.7119 21.6135 37.736 20.8771C37.7697 19.7668 38.0426 18.6768 38.5362 17.6816C39.0298 16.6865 39.7324 15.8096 40.596 15.1109C40.7073 15.0079 40.7961 14.883 40.8569 14.7441C40.9176 14.6051 40.9489 14.4551 40.9489 14.3035C40.9489 14.1519 40.9176 14.0019 40.8569 13.8629C40.7961 13.724 40.7073 13.5991 40.596 13.4961C39.7531 12.7792 39.0649 11.8983 38.5732 10.907C38.0815 9.91575 37.7967 8.83477 37.736 7.7299C37.7118 6.99349 37.8397 6.26 38.112 5.57532C38.3842 4.89064 38.7948 4.2695 39.318 3.75077C39.8413 3.23205 40.466 2.82689 41.153 2.56065C41.8401 2.29442 42.5746 2.17283 43.3108 2.2035C48.0606 2.2035 53.136 5.3825 53.136 14.3035C53.136 23.2245 48.0606 26.4035 43.3108 26.4035Z" fill="white"/>
<path d="M13.5361 11.0036C13.0481 10.9479 12.5813 10.773 12.1769 10.4943C11.7725 10.2156 11.4429 9.84154 11.2173 9.40527C11.086 9.1446 10.8566 8.94676 10.5794 8.85527C10.3022 8.76378 10.0001 8.78614 9.73944 8.91742C9.47877 9.0487 9.28093 9.27816 9.18944 9.55531C9.09795 9.83246 9.1203 10.1346 9.25159 10.3953C9.66022 11.1953 10.2702 11.875 11.0216 12.3674C11.7729 12.8598 12.6395 13.148 13.5361 13.2036C13.8278 13.2036 14.1076 13.0877 14.3139 12.8814C14.5202 12.6751 14.6361 12.3953 14.6361 12.1036C14.6361 11.8118 14.5202 11.532 14.3139 11.3258C14.1076 11.1195 13.8278 11.0036 13.5361 11.0036Z" fill="white"/>
<path d="M13.5361 15.4036C12.6395 15.4591 11.7729 15.7473 11.0215 16.2397C10.2702 16.7322 9.66022 17.4119 9.25159 18.2119C9.18658 18.3409 9.14764 18.4815 9.13697 18.6257C9.12631 18.7698 9.14414 18.9146 9.18944 19.0518C9.23474 19.1891 9.30663 19.316 9.40099 19.4255C9.49536 19.5349 9.61037 19.6247 9.73944 19.6897C9.86851 19.7547 10.0091 19.7937 10.1532 19.8043C10.2974 19.815 10.4422 19.7972 10.5794 19.7519C10.7166 19.7066 10.8436 19.6347 10.953 19.5403C11.0625 19.4459 11.1523 19.3309 11.2173 19.2019C11.4431 18.7658 11.7728 18.3919 12.1771 18.1132C12.5815 17.8345 13.0482 17.6595 13.5361 17.6036C13.8278 17.6036 14.1076 17.4877 14.3139 17.2814C14.5202 17.0751 14.6361 16.7953 14.6361 16.5036C14.6361 16.2118 14.5202 15.932 14.3139 15.7257C14.1076 15.5195 13.8278 15.4036 13.5361 15.4036Z" fill="white"/>
<path d="M42.136 13.2036C43.0336 13.149 43.9013 12.8612 44.6537 12.3687C45.406 11.8762 46.0169 11.196 46.426 10.3953C46.491 10.2662 46.53 10.1256 46.5406 9.98147C46.5513 9.83735 46.5335 9.69254 46.4882 9.55531C46.4429 9.41808 46.371 9.29111 46.2766 9.18166C46.1822 9.07221 46.0672 8.98242 45.9382 8.91742C45.6775 8.78614 45.3753 8.76378 45.0982 8.85527C44.821 8.94676 44.5916 9.1446 44.4603 9.40527C44.2339 9.84207 43.9035 10.2164 43.4981 10.4952C43.0927 10.7739 42.6249 10.9485 42.136 11.0036C41.8443 11.0036 41.5645 11.1195 41.3582 11.3258C41.1519 11.532 41.036 11.8118 41.036 12.1036C41.036 12.3953 41.1519 12.6751 41.3582 12.8814C41.5645 13.0877 41.8443 13.2036 42.136 13.2036Z" fill="white"/>
<path d="M42.136 15.4036C41.8443 15.4036 41.5645 15.5195 41.3582 15.7257C41.1519 15.932 41.036 16.2118 41.036 16.5036C41.036 16.7953 41.1519 17.0751 41.3582 17.2814C41.5645 17.4877 41.8443 17.6036 42.136 17.6036C42.624 17.6592 43.0908 17.8341 43.4952 18.1128C43.8996 18.3916 44.2292 18.7656 44.4548 19.2019C44.5861 19.4625 44.8155 19.6604 45.0927 19.7519C45.3698 19.8434 45.672 19.821 45.9327 19.6897C46.1933 19.5584 46.3912 19.329 46.4827 19.0518C46.5741 18.7747 46.5518 18.4725 46.4205 18.2119C46.0119 17.4119 45.4018 16.7322 44.6505 16.2397C43.8992 15.7473 43.0326 15.4591 42.136 15.4036Z" fill="white"/>
</svg>
