<svg width="1920" height="550" viewBox="0 0 1920 550" fill="none" xmlns="http://www.w3.org/2000/svg">
<mask id="mask0_1_5" style="mask-type:alpha" maskUnits="userSpaceOnUse" x="0" y="0" width="1920" height="550">
<rect width="1920" height="550" fill="#162F62"/>
</mask>
<g mask="url(#mask0_1_5)">
<rect width="1920" height="550" fill="#162F62" fill-opacity="0.9"/>
<path fill-rule="evenodd" clip-rule="evenodd" d="M1585.15 246.473C1613.69 313.56 1532.09 338.764 1499.02 357.454C1468.79 374.527 1438.59 435.121 1412.89 431.988C1347.13 423.981 1410.52 342.021 1364.85 293.5C1290.31 214.299 1375.2 147.067 1429.44 147.067C1483.69 147.087 1552.02 168.62 1585.15 246.473Z" stroke="#C4C4C4" stroke-opacity="0.1" stroke-width="2" stroke-miterlimit="10"/>
<path fill-rule="evenodd" clip-rule="evenodd" d="M1551.09 249.958C1562.41 275.079 1554.9 293.458 1539.39 307.481C1523.62 321.691 1499.93 330.632 1486.49 337.851C1463.19 350.381 1440.25 396.433 1420.63 393.176C1371.67 385.023 1418.28 324.575 1383.95 287.567C1328.17 227.43 1391.92 176.565 1432.93 176.15C1473.98 175.694 1524.91 191.916 1551.09 249.958Z" stroke="#C4C4C4" stroke-opacity="0.1" stroke-width="0.8125" stroke-miterlimit="10"/>
<path fill-rule="evenodd" clip-rule="evenodd" d="M1517.02 253.443C1525.55 270.433 1523.46 284.165 1513.1 295.222C1502.61 306.403 1484.21 313.207 1473.94 318.248C1457.61 326.276 1442.22 354.218 1428.36 354.364C1396.61 354.696 1426.04 307.129 1403.06 281.634C1366.03 240.561 1408.64 206.043 1436.41 205.213C1464.25 204.3 1497.88 215.232 1517.02 253.443Z" stroke="#C4C4C4" stroke-opacity="0.1" stroke-width="0.625" stroke-miterlimit="10"/>
<path fill-rule="evenodd" clip-rule="evenodd" d="M1482.96 256.928C1488.75 265.889 1492.01 274.851 1486.84 282.962C1481.59 291.114 1468.57 295.803 1461.43 298.624C1452.18 302.296 1443.94 314.535 1436.14 315.53C1417.97 317.833 1433.86 289.683 1422.2 275.681C1403.93 253.713 1425.4 235.541 1439.92 234.255C1454.54 232.927 1471.12 238.569 1482.96 256.928Z" stroke="#C4C4C4" stroke-opacity="0.1" stroke-width="0.4375" stroke-miterlimit="10"/>
<path fill-rule="evenodd" clip-rule="evenodd" d="M1460.58 270.682C1460.58 275.826 1453.09 279 1448.9 279C1444.71 279 1441.33 274.83 1441.33 269.707C1441.33 264.562 1444.71 260.413 1448.9 260.413C1453.09 260.392 1460.58 265.558 1460.58 270.682Z" stroke="#C4C4C4" stroke-opacity="0.1" stroke-width="0.5" stroke-miterlimit="10"/>
<path fill-rule="evenodd" clip-rule="evenodd" d="M1590.98 515.256C1575.46 543.406 1549.63 564.399 1518.95 573.962C1472.92 588.317 1405.86 598.938 1348.4 567.469C1249.65 513.389 1285.79 479.098 1222.31 410.933C1158.83 342.767 1143.86 307.855 1176.78 214.319C1209.7 120.804 1200.28 172.52 1247.31 69.0684C1294.34 -34.3622 1343.87 -40.5855 1395.84 -21.5423C1457.99 1.2556 1611.56 207.619 1744.17 50.0045C1810.95 -29.3628 1957.26 115.058 1919.65 214.299C1882.04 313.539 1936.97 437.486 1852.33 422.488C1767.7 407.489 1739.96 420.973 1674.33 437.444C1635.29 447.256 1607.28 485.695 1590.98 515.256Z" stroke="#C4C4C4" stroke-opacity="0.1" stroke-miterlimit="10"/>
<path fill-rule="evenodd" clip-rule="evenodd" d="M1289.09 81.0791C1335.06 6.71109 1372.06 0.425592 1416.06 16.5438C1437.26 24.3022 1464.52 53.5722 1498.04 79.6062C1552.97 122.277 1642.92 149.41 1712.46 98.5664C1799.58 34.861 1873.2 152.066 1845.51 235.457C1833.48 271.698 1846.05 285.804 1842.9 318.434C1838.73 361.271 1823.23 398.051 1782.34 402.884C1712.6 411.119 1688.79 415.496 1642.98 429.851C1639.27 431.034 1635.41 432.237 1631.41 433.461C1599.52 443.169 1575.88 474.597 1560.92 499.075C1546.94 521.997 1525.2 539.402 1499.45 547.658C1461.45 559.793 1407.6 567.51 1361.19 542.721C1283.3 500.797 1306.89 472.419 1256.54 418.318C1230.8 390.624 1214.97 365.71 1205.94 340.278C1194.31 307.523 1194.33 272.278 1208.62 223.509C1224.12 170.59 1229.14 160.135 1243.47 139.121C1253.22 124.766 1270.71 110.806 1289.09 81.0791Z" stroke="#C4C4C4" stroke-opacity="0.1" stroke-width="0.8594" stroke-miterlimit="10"/>
<path fill-rule="evenodd" clip-rule="evenodd" d="M1330.89 93.0901C1372.79 47.7018 1400.28 41.4578 1436.31 54.6096C1454.69 61.31 1476.95 82.7595 1503.6 101.658C1549.53 134.247 1619.19 165.55 1683.31 132.753C1732.1 107.798 1859.78 72.6156 1771.37 256.596C1760.08 280.078 1760.06 306.714 1756.83 332.043C1753.34 359.321 1746.93 376.995 1720.75 389.338C1687.65 404.959 1650.47 407.199 1616.1 418.899C1581.93 430.536 1551.54 453.313 1530.82 482.853C1518.39 500.569 1500.74 514.384 1479.93 521.292C1449.96 531.187 1409.26 536.166 1373.97 517.911C1354.74 507.974 1337.73 495.486 1325.83 477.19C1297.97 434.353 1261.23 396.37 1244.9 347.207C1233.74 313.684 1230.55 277.382 1240.42 232.678C1250.75 185.9 1256.85 166.193 1273.55 142.918C1286.2 125.285 1310.62 115.058 1330.89 93.0901Z" stroke="#C4C4C4" stroke-opacity="0.1" stroke-width="0.7188" stroke-miterlimit="10"/>
<path fill-rule="evenodd" clip-rule="evenodd" d="M1355.74 106.429C1384.57 92.1567 1417.68 86.8047 1449.63 94.8327C1493.92 105.972 1529.12 140.408 1572.7 154.057C1602.99 163.537 1637.61 163.206 1662.71 182.643C1682.98 198.346 1692.83 224.277 1696.11 249.688C1699.78 278.066 1696.34 307.316 1686.19 334.076C1677.5 356.998 1662.94 378.945 1641.01 389.898C1622.03 399.378 1599.75 399.627 1579.88 407.033C1538.31 422.55 1513.85 466.195 1475.16 487.915C1363.29 550.707 1281.93 383.571 1272.85 297.69C1267.31 245.415 1273.32 178.722 1311.14 139.184C1323.9 125.866 1339.1 114.664 1355.74 106.429Z" stroke="#C4C4C4" stroke-opacity="0.1" stroke-width="0.5781" stroke-miterlimit="10"/>
<path fill-rule="evenodd" clip-rule="evenodd" d="M1507.57 418.982C1494.27 429.769 1482.3 442.194 1468.63 452.525C1454.75 463.001 1438.51 471.423 1421.15 472.025C1404.16 472.626 1387.52 465.615 1374.14 455.118C1342.73 430.495 1329.41 389.732 1319.71 351.024C1312.26 321.339 1305.91 291.197 1304.73 260.62C1302.72 208.822 1316.59 144.432 1370.72 123.75C1431.7 100.434 1505.43 135.989 1556.75 167.52C1579.4 181.44 1601.27 197.496 1617.26 218.738C1633.23 239.98 1642.84 267.113 1638.54 293.355C1633.55 323.994 1610.83 348.866 1585.75 367.142C1560.67 385.418 1532.33 399.047 1508.15 418.505C1507.96 418.671 1507.75 418.816 1507.57 418.982Z" stroke="#C4C4C4" stroke-opacity="0.1" stroke-width="0.4375" stroke-miterlimit="10"/>
<path fill-rule="evenodd" clip-rule="evenodd" d="M91.7944 491.295C91.7944 491.295 175.228 345.36 334.502 403.506C493.776 461.652 374.953 542.554 564.576 547.616C754.198 552.677 554.452 752.403 824.978 851H112.02L91.7944 491.295Z" stroke="#C4C4C4" stroke-opacity="0.1" stroke-miterlimit="10"/>
<path fill-rule="evenodd" clip-rule="evenodd" d="M533.169 578.815C694.372 599.601 515.08 758.916 755.277 842.37H122.226L104.262 537.887C104.262 537.887 173.962 399.025 315.375 448.251C456.809 497.477 375.057 558.423 533.169 578.815Z" stroke="#C4C4C4" stroke-opacity="0.1" stroke-width="0.8125" stroke-miterlimit="10"/>
<path fill-rule="evenodd" clip-rule="evenodd" d="M501.783 610.014C634.774 647.043 475.707 765.43 685.597 833.741H132.432L116.75 584.499C116.75 584.499 172.697 452.711 296.27 492.996C419.843 533.302 375.347 574.811 501.783 610.014Z" stroke="#C4C4C4" stroke-opacity="0.1" stroke-width="0.625" stroke-miterlimit="10"/>
<path fill-rule="evenodd" clip-rule="evenodd" d="M470.397 641.193C575.114 695.377 436.335 771.923 615.917 825.111H142.638L129.217 631.111C129.217 631.111 171.431 506.397 277.165 537.762C382.877 569.107 375.534 592.133 470.397 641.193Z" stroke="#C4C4C4" stroke-opacity="0.1" stroke-width="0.4375" stroke-miterlimit="10"/>
<path fill-rule="evenodd" clip-rule="evenodd" d="M566.36 0.508461C607.703 4.1387 666.658 -7.89293 683.315 -16.9167C712.834 -32.9104 714.349 -70.1878 758.534 -75.2909C848.087 -85.6422 880.904 -94.2303 882.398 -138.955C882.73 -148.974 881.568 -159.139 879.888 -169.532C873.872 -206.125 865.035 -239.938 881.755 -281.219C889.637 -300.677 900.279 -342.435 873.747 -368.075C753.493 -484.263 400.074 -581.532 246.816 -445.596C87.77 -304.535 120.359 -192.952 117.413 -172.353C116.501 -166.026 114.323 -155.488 112.331 -145.655C105.527 -111.987 93.7858 17.8506 213.998 -35.2545C385.366 -110.95 423.805 -84.5428 468.634 -98.96C506.181 -111.033 513.69 -4.1175 566.36 0.508461Z" stroke="#C4C4C4" stroke-opacity="0.1" stroke-width="0.7188" stroke-miterlimit="10"/>
<path fill-rule="evenodd" clip-rule="evenodd" d="M559.638 53.4062C604.591 59.4635 677.175 44.2372 694.974 33.8859C728.081 14.5938 726.878 -32.4956 778.137 -39.7353C876.257 -53.6132 913.161 -60.0854 913.099 -110.307C913.12 -121.426 911.377 -132.545 909.137 -143.726C901.13 -183.451 889.409 -219.774 919.281 -265.287C931.955 -284.621 952.534 -333.639 922.787 -361.52C798.363 -478.061 396.548 -582.113 230.718 -436.614C43.7093 -272.548 94.5118 -155.488 92.5411 -141.755C91.9396 -137.524 89.1391 -126.01 86.4838 -112.9C77.4186 -68.0097 65.1173 64.7118 195.785 0.155804C374.974 -88.4012 434.26 -68.5075 469.049 -59.6083C506.139 -50.1282 513.732 47.2244 559.638 53.4062Z" stroke="#C4C4C4" stroke-opacity="0.1" stroke-width="0.8125" stroke-miterlimit="10"/>
<path fill-rule="evenodd" clip-rule="evenodd" d="M552.917 106.304C601.355 115.369 687.692 96.3466 706.611 84.6677C743.266 62.0357 739.408 5.25878 797.74 -4.22132C904.449 -21.5427 945.294 -25.982 943.8 -81.7009C943.489 -93.94 941.187 -105.972 938.386 -117.983C928.367 -160.84 913.41 -200.648 956.807 -249.397C974.274 -269.021 1004.83 -324.927 971.826 -354.985C843.336 -472.024 392.793 -582.964 214.6 -427.673C-0.662548 -240.892 68.6438 -118.045 67.6481 -111.178C67.337 -109.063 63.9349 -96.533 60.6158 -80.1451C49.2687 -24.032 36.5733 111.76 177.53 35.5453C364.726 -65.6449 442.289 -48.7384 469.422 -20.2773C503.276 15.1953 513.669 98.9604 552.917 106.304Z" stroke="#C4C4C4" stroke-opacity="0.1" stroke-width="0.9063" stroke-miterlimit="10"/>
<path fill-rule="evenodd" clip-rule="evenodd" d="M42.7758 -80.6015C42.7758 -80.6015 -35.99 184.634 159.337 70.9557C354.665 -42.7226 447.309 -30.7324 469.858 19.0744C497.095 79.2326 513.462 150.966 546.217 159.181C597.891 172.146 698.189 148.415 718.29 135.429C758.472 109.436 752 43.034 817.365 31.2927C932.682 10.59 977.448 8.10073 974.523 -53.0947C971.619 -114.311 921.604 -167.872 994.354 -233.507C1016.72 -253.691 1057.17 -316.256 1020.89 -348.471C888.393 -466.07 389.349 -583.462 198.482 -418.711C-44.6818 -208.842 42.7758 -80.6015 42.7758 -80.6015Z" stroke="#C4C4C4" stroke-opacity="0.1" stroke-miterlimit="10"/>
<path fill-rule="evenodd" clip-rule="evenodd" d="M837.279 419.52C837.507 422.3 837.175 425.059 835.827 427.071C834.707 428.751 832.383 429.851 830.579 428.917C829.292 428.253 828.629 426.822 828.193 425.453C827.197 422.362 826.886 419.043 827.301 415.807C827.612 413.38 829.541 408.194 832.985 409.314C834.001 409.646 834.644 410.642 835.122 411.596C836.159 413.67 837.03 416.595 837.279 419.52Z" stroke="#C4C4C4" stroke-opacity="0.1" stroke-width="0.25" stroke-miterlimit="10"/>
<path fill-rule="evenodd" clip-rule="evenodd" d="M851.738 404.896C856.405 422.321 859.371 448.396 844.622 449.703C839.727 450.139 836.532 446.488 833.006 443.75C824.687 437.277 813.506 438.999 805.665 431.552C793.343 419.852 804.047 403.921 814.709 395.499C823.629 388.446 839.395 375.875 847.215 391.848C848.543 394.544 850.244 399.274 851.738 404.896Z" stroke="#C4C4C4" stroke-opacity="0.1" stroke-width="0.375" stroke-miterlimit="10"/>
<path fill-rule="evenodd" clip-rule="evenodd" d="M871.092 400.457C871.714 408.588 871.465 416.575 870.947 423.151C869.744 438.978 877.315 473.082 852.505 472.667C843.647 472.522 839.084 465.241 833.358 459.723C818.651 445.554 797.637 450.823 782.245 437.983C771.707 429.187 769.611 413.505 775.337 401.432C780.481 390.603 791.787 382.264 801.226 375.501C814.004 366.353 835.018 349.903 851.509 359.113C865.035 366.664 869.847 383.903 871.092 400.457Z" stroke="#C4C4C4" stroke-opacity="0.1" stroke-width="0.5" stroke-miterlimit="10"/>
<path fill-rule="evenodd" clip-rule="evenodd" d="M889.7 396.058C890.965 404.439 891.235 410.662 890.612 415.765C889.056 428.523 883.539 434.082 884.991 454.64C885.302 458.913 885.654 462.896 885.945 466.547C887.48 486.731 886.629 497.041 860.284 495.589C837.694 494.324 835.765 463.29 804.959 459.287C803.818 459.141 802.657 459.017 801.454 458.955C783.717 457.876 768.947 452.503 758.721 444.392C744.946 433.481 740.777 413.815 746.647 397.614C753.452 378.841 771.935 366.332 787.638 355.483C813.672 337.518 861.446 305.531 878.705 356.956C881.651 365.73 886.422 374.484 889.7 396.058Z" stroke="#C4C4C4" stroke-opacity="0.1" stroke-width="0.625" stroke-miterlimit="10"/>
<path fill-rule="evenodd" clip-rule="evenodd" d="M908.183 391.682C909.635 402.718 909.655 410.704 908.68 417.197C906.253 433.647 898.723 440.348 900.528 467.004C900.901 472.501 901.358 477.584 901.71 482.272C903.681 508.264 902.644 521.105 868.001 518.491C838.275 516.23 836.47 474.41 795.977 469.473C794.504 469.286 792.969 469.161 791.393 469.078C768.118 467.875 748.597 461.196 735.134 450.782C721.63 440.327 715.407 422.902 716.506 406.161C717.772 386.807 729.119 372.12 742.955 359.445C752.601 350.608 763.16 342.767 774.009 335.465C808.548 311.962 872.378 270.411 894.346 339.489C898.101 351.272 904.386 362.993 908.183 391.682Z" stroke="#C4C4C4" stroke-opacity="0.1" stroke-width="0.75" stroke-miterlimit="10"/>
<path fill-rule="evenodd" clip-rule="evenodd" d="M926.624 387.305C928.263 400.996 928.014 410.746 926.728 418.629C923.43 438.792 913.908 446.633 916.065 479.388C916.501 486.109 917.061 492.312 917.476 497.996C919.882 529.797 918.679 545.147 875.697 541.372C838.814 538.136 837.154 485.591 786.974 479.616C785.149 479.388 783.261 479.243 781.311 479.139C752.497 477.812 728.247 469.804 711.507 457.088C680.909 433.834 681.884 389.213 705.595 361.229C720.987 343.078 740.652 328.495 760.318 315.343C803.445 286.405 883.248 235.188 909.925 321.94C914.53 336.813 922.33 351.48 926.624 387.305Z" stroke="#C4C4C4" stroke-opacity="0.1" stroke-width="0.875" stroke-miterlimit="10"/>
<path fill-rule="evenodd" clip-rule="evenodd" d="M662.343 382.99C670.33 359.549 688.958 339.697 708.25 323.599C720.468 313.414 733.413 304.079 746.668 295.263C798.363 260.89 894.159 200.005 925.566 304.411C930.96 322.334 940.274 339.967 945.086 382.907C951.642 441.406 928.118 437.796 931.603 491.731C934.984 544.193 943.863 570.02 883.414 564.232C837.777 559.855 837.797 492.063 771.271 489.242C727.874 487.396 668.649 469.846 659.543 420.205C657.074 406.95 658.422 394.524 662.343 382.99Z" stroke="#C4C4C4" stroke-opacity="0.1" stroke-miterlimit="10"/>
<path d="M843.378 627.586C790.107 550.397 703.458 521.645 623.987 510.775C579.532 507.083 534.953 481.795 514.686 440.183C489.751 388.965 509.603 335.569 549.059 300.014C569.907 281.24 593.535 268.503 620.461 260.932C678.959 244.482 744.469 229.504 793.322 190.858C815.975 172.935 815.332 149.515 829.375 126.572C842.507 105.122 866.051 94.916 888.662 86.6183C917.227 76.1632 941.249 75.8935 971.287 80.8099C995.495 84.772 1019.66 71.641 1032 50.4819C1067.27 -10.029 1022.92 -82.2396 1014.41 -143.352C1011.34 -165.382 1012.82 -190.939 1034.64 -202.701C1047.29 -209.526 1060.51 -216.952 1068.33 -229.503C1073.58 -237.904 1076.13 -247.529 1079.94 -256.595C1083.99 -266.22 1089.88 -274.746 1095.94 -283.189C1127.55 -327.083 1180.91 -327.374 1242.7 -327.706L1247.72 -327.727C1308.07 -327.727 1647.09 -299.743 1720.82 -293.582C1726.44 -273.584 1741.37 -287.234 1744.46 -273.273C1711.85 -269.933 1694.35 -204.485 1687.58 -189.695C1630.1 -63.9432 1482.47 -123.915 1392.19 -158.246C1326.47 -183.243 1201.38 -125.201 1171.76 -112.319C1134.71 -96.2212 1135.73 -44.6304 1137.92 -17.2895C1142.32 36.9981 1095.25 44.0512 1060.67 80.1046C1029.64 112.466 1033.81 157.252 1031.78 200.587C1029.85 242.034 1027.23 284.539 1024 325.986C1021.07 363.553 1015.18 413.381 1018.56 451.571C1023.33 505.755 1050.76 594.291 1006.57 642.978C982.841 669.157 876.548 675.65 843.378 627.586Z" stroke="#C4C4C4" stroke-opacity="0.1" stroke-width="0.25" stroke-miterlimit="10"/>
<path fill-rule="evenodd" clip-rule="evenodd" d="M1037.98 369.59C1037.38 394.732 1039.97 420.247 1047.79 444.227C1055.65 468.373 1071.98 487.458 1080.8 511.023C1100.88 564.668 1068.62 626.88 1026.84 660.527C1001.34 681.064 968.59 693.178 936.312 697.348C867.814 706.206 817.842 652.686 771.271 606.986C728.185 564.689 693.916 532.245 618.967 518.823C591.647 513.928 566.007 509.385 541.653 494.262C486.121 459.765 482.138 377.327 510.454 319.347C514.603 310.842 518.938 302.15 523.813 294.06C541.57 264.582 578.599 250.02 610.109 241.245C636.765 233.819 663.588 224.152 690.638 216.912C716.319 210.046 743.204 205.69 765.857 190.857C775.523 184.53 783.199 175.922 787.244 165.01C792.949 149.556 800.002 140.117 805.955 124.746C814.606 102.466 837.507 88.5471 858.127 78.9217C881.92 67.8028 908.369 58.5924 934.963 60.4386C959.939 62.1812 989.977 68.2177 1009.5 48.0544C1022.69 34.4047 1027.5 9.09676 1027.98 -8.45284C1029.14 -50.0657 1014.75 -83.6713 1004.08 -131.881C1000.39 -148.642 1000.14 -167.602 1006.05 -184.115C1011.59 -199.569 1026.28 -208.489 1039.22 -217.181C1050.74 -224.919 1060.61 -235.187 1066.96 -247.592C1073.95 -261.283 1079.53 -274.974 1088.68 -287.566C1121.91 -333.328 1173.25 -334.158 1235.07 -334.531C1235.65 -334.531 1239.61 -334.552 1240.21 -334.552C1242.89 -334.552 1245.88 -334.531 1249.16 -334.49C1324.15 -333.224 1678.5 -303.954 1726.04 -300.013C1729.82 -286.674 1735.92 -264.54 1740.03 -247.281C1727.31 -235.021 1719.22 -220.334 1716.17 -205.149C1689.62 -72.3658 1611.93 -21.9158 1543.23 -51.829C1449.71 -92.5498 1399.22 -143.021 1309.54 -118.127C1288.49 -112.278 1255.73 -93.6493 1242.52 -78.1949C1220.34 -52.2854 1196.26 -27.6205 1176.59 0.321921C1155.7 29.9861 1109.38 75.4159 1088.57 105.142C1057.17 150.074 1074.03 185.879 1061.13 237.345C1050.61 279.207 1039.04 325.176 1037.98 369.59Z" stroke="#C4C4C4" stroke-opacity="0.1" stroke-width="0.5" stroke-miterlimit="10"/>
<path fill-rule="evenodd" clip-rule="evenodd" d="M1076.75 305.718C1076.11 348.099 1085.57 389.96 1109.77 428.462C1122.78 449.144 1153.92 455.263 1157.15 485.799C1162.13 532.805 1120.87 563.278 1094.2 634.161C1078.74 675.256 1036.15 701.767 997.922 718.798C965.437 733.277 929.383 744.126 893.641 745.869C863.624 747.342 836.698 733.65 814.979 713.757C764.944 667.871 739.159 601.157 684.436 559.503C664.874 544.609 642.74 533.469 619.299 526.146C591.502 517.6 563.144 514.384 537.484 499.303C457.992 452.608 474.629 333.972 522.444 270.661C548.105 236.681 587.996 217.701 628.53 207.889C652.552 202.059 677.3 202.018 701.612 198.118C739.117 192.081 769.715 166.649 785.252 132.421C801.454 96.7203 831.097 68.9023 867.69 54.8793C885.966 47.8885 905.486 44.3619 925.048 43.9886C945.813 43.5944 970.54 53.3234 989.355 40.8977C1026.2 16.5647 1016.74 -38.8638 1008.44 -75.1039C999.996 -111.883 979.812 -172.187 1010.12 -204.278C1019.43 -214.132 1032.21 -219.587 1041.8 -229.171C1050.05 -237.427 1056.59 -247.405 1060.76 -258.296C1065.36 -270.265 1071.9 -280.928 1079.45 -291.321C1114.05 -338.97 1170.16 -341.065 1231.5 -341.501C1232.68 -341.501 1235.55 -341.522 1236.73 -341.543C1239.61 -341.563 1242.66 -341.543 1245.86 -341.543C1316.45 -341.065 1707.58 -308.539 1731.35 -306.568C1733.24 -299.909 1739.92 -276.468 1745.05 -255.91C1744.38 -252.156 1743.39 -248.339 1741.87 -244.626C1741.73 -232.926 1738.2 -222.761 1736.91 -217.513C1714.14 -124.6 1685.63 46.5193 1568.35 10.3622C1532.46 -0.694484 1507.25 -26.3965 1476.82 -45.3567C1440.96 -67.6982 1402.08 -87.5712 1359.43 -91.9275C1294.25 -98.5656 1252.2 -39.0713 1212.25 6.1926C1176.72 46.4364 1148.53 86.9913 1127.39 136.072C1103.9 190.546 1077.68 245.166 1076.75 305.718Z" stroke="#C4C4C4" stroke-opacity="0.1" stroke-width="0.75" stroke-miterlimit="10"/>
<path fill-rule="evenodd" clip-rule="evenodd" d="M629.443 536.995C621.166 533.655 612.412 531.685 603.533 530.813C565.924 527.142 431.004 502.643 461.498 341.336C483.279 226.019 533.501 199.549 617.556 191.169C701.612 182.788 732.894 185.215 768.325 109.167C793.986 54.0909 814.709 48.7181 869.889 38.2838C967.677 19.8007 1011.7 22.5182 993.172 -58.9443C975.435 -137.025 962.574 -192.247 1012.17 -229.545C1051.92 -259.437 1045.32 -265.038 1053.7 -306.879C1066.67 -371.684 1176.36 -348.077 1242.58 -348.45C1308.79 -348.845 1736.66 -313.061 1736.66 -313.061C1736.66 -313.061 1764.69 -217.907 1757.04 -220.977C1749.4 -224.047 1749.96 30.7951 1669.97 65.9566C1612.99 90.9948 1576.27 74.7936 1483.27 -8.05878C1390.92 -90.3303 1303.77 -68.6733 1266.66 -14.7799C1228.83 40.1508 1190.37 114.726 1161.03 175.776C1122.99 254.957 1085.59 326.068 1138.55 397.345C1156.14 421.035 1199.02 426.947 1202.42 465.345C1207.11 518.076 1170.49 534.236 1141.02 629.743C1105.69 744.188 915.028 805.01 866.362 795.738C616.291 748.15 756.584 588.441 629.443 536.995Z" stroke="#C4C4C4" stroke-opacity="0.1" stroke-width="2" stroke-miterlimit="10"/>
<path fill-rule="evenodd" clip-rule="evenodd" d="M141.684 135.45C289.507 9.96809 448.636 -51.8911 458.386 77.1378C468.115 206.188 516.843 177.249 444.84 279C427 304.204 432.207 360.628 419.74 374.61C389.37 408.651 265.195 332.458 190.018 356.853C109.614 382.949 91.5662 457.877 59.4956 491.566C27.4251 525.254 -43.2504 279.871 12.1159 166.151C27.0724 135.45 8.98347 248.091 141.684 135.45Z" stroke="#C4C4C4" stroke-opacity="0.1" stroke-miterlimit="10"/>
<path fill-rule="evenodd" clip-rule="evenodd" d="M59.2052 190.007C69.1831 169.532 63.52 242.033 162.076 161.961C179.895 147.502 198.233 133.956 216.426 121.406C312.077 55.3563 400.987 31.376 413.89 111.158C428.701 202.682 459.817 188.161 411.608 261.284C398.809 280.68 401.07 320.944 391.776 332.769C366.945 364.362 270.464 318.414 209.061 328.869C144.07 339.925 112.165 399.855 90.7779 422.321C69.3906 444.787 22.2805 265.827 59.2052 190.007Z" stroke="#C4C4C4" stroke-opacity="0.1" stroke-width="0.75" stroke-miterlimit="10"/>
<path fill-rule="evenodd" clip-rule="evenodd" d="M106.295 213.883C111.273 203.656 118.243 236.204 182.467 188.513C195.266 179.012 208.792 169.781 222.4 160.592C289.009 115.39 351.325 94.5005 369.414 145.241C388.582 199.01 403.206 199.528 378.375 243.631C370.679 257.301 370.036 281.406 363.834 290.99C344.749 320.384 275.899 304.598 228.125 300.926C178.671 297.13 132.785 341.896 122.102 353.118C111.377 364.32 87.8322 251.783 106.295 213.883Z" stroke="#C4C4C4" stroke-opacity="0.1" stroke-width="0.5" stroke-miterlimit="10"/>
<path fill-rule="evenodd" clip-rule="evenodd" d="M153.384 283.875C153.384 283.875 213.148 254.708 247.168 272.942C281.189 291.177 323.175 276.718 335.871 249.149C344.853 229.67 358.503 206.354 324.938 179.282C299.361 158.663 265.963 175.362 228.374 199.736C185.994 227.181 153.384 237.74 153.384 237.74V283.875Z" stroke="#C4C4C4" stroke-opacity="0.1" stroke-width="0.25" stroke-miterlimit="10"/>
<path fill-rule="evenodd" clip-rule="evenodd" d="M957.658 106.325C957.658 106.325 912.539 90.5798 887.003 106.325C843.108 133.375 853.874 188.036 785.418 225.562C716.963 263.109 478.404 314.845 536.841 419.272C595.277 523.698 625.812 481.214 720.779 514.342C815.726 547.471 836.221 585.495 862.711 612.006C889.202 638.497 903.453 648.931 949.837 644.678C998.337 640.239 1011.65 609.33 1009.52 559.544C1007.65 516.043 998.876 495.465 996.594 449.226C994.271 401.992 1000.35 385.791 1002.4 317.791C1004.81 238.196 1029.2 143.851 957.658 106.325Z" stroke="#C4C4C4" stroke-opacity="0.1" stroke-width="2" stroke-miterlimit="10"/>
<path fill-rule="evenodd" clip-rule="evenodd" d="M909.365 171.835C886.277 170.113 862.504 180.485 843.647 193.782C818.174 211.768 814.357 225.168 770.151 249.418C707.399 283.833 522.174 319.368 569.679 417.778C602.828 486.462 635.853 473.041 722.895 503.41C809.959 533.78 829.998 567.178 854.289 591.47C868.789 605.97 887.376 613.355 907.519 615.782C928.906 618.354 955.666 620.781 968.88 599.746C982.8 577.592 972.676 547.803 971.39 523.76C970 497.395 972.676 471.029 973.465 444.684C975.435 378.24 981.057 314.285 976.244 247.738C974.232 220.003 958.529 191.5 932.91 178.39C925.297 174.49 917.372 172.437 909.365 171.835Z" stroke="#C4C4C4" stroke-opacity="0.1" stroke-width="0.25" stroke-miterlimit="10"/>
<path fill-rule="evenodd" clip-rule="evenodd" d="M846.033 226.579C813.589 237.096 784.609 257.011 754.945 273.274C697.878 304.577 570.218 321.919 602.579 416.264C613.387 447.754 643.113 468.747 722.273 496.357C801.433 523.968 823.857 548.799 845.95 570.891C868.043 592.984 883.953 600.39 921.812 591.76C971.598 580.413 945.896 510.443 950.667 477.314C954.11 453.313 963.632 430.287 964.337 405.871C965.208 376.103 962.968 350.878 960.002 321.235C957.512 296.383 953.633 267.59 940.523 245.809C923.575 217.68 888.144 216.186 859.33 222.866C854.808 223.924 850.389 225.168 846.033 226.579Z" stroke="#C4C4C4" stroke-opacity="0.1" stroke-miterlimit="10"/>
<path fill-rule="evenodd" clip-rule="evenodd" d="M1876.27 732.634C1876.27 732.634 1905.63 484.782 1758.36 464.702C1611.1 444.621 1656.92 541.497 1531.44 614.475C1486.18 640.799 1391.75 636.692 1295.48 569.75C1210.14 510.401 1215.26 611.135 1184.33 665.111C1138.69 744.748 1060.76 756.573 977.074 779.993C893.392 803.413 1883.37 806.317 1883.37 806.317L1876.27 732.634Z" stroke="#C4C4C4" stroke-opacity="0.1" stroke-width="0.25" stroke-miterlimit="10"/>
<path fill-rule="evenodd" clip-rule="evenodd" d="M1854.6 748.42C1853.18 744.894 1904.94 554.669 1772.45 520.358C1666.65 492.976 1667.01 567.655 1606.06 631.36C1596.87 640.965 1585.27 649.118 1570.84 655.839C1527.52 675.815 1441.56 664.883 1353.31 617.441C1349.18 615.221 1345.2 613.354 1341.38 611.716C1274.03 582.653 1270.38 644.533 1235.42 687.805C1228.85 695.937 1222.15 703.779 1214.45 710.79C1160.93 759.435 1081.81 757.838 1051.11 780.034C995.329 795.655 1844.16 797.584 1844.16 797.584L1854.6 748.42Z" stroke="#C4C4C4" stroke-opacity="0.1" stroke-width="0.5" stroke-miterlimit="10"/>
</g>
</svg>
