<svg width="226" height="163" viewBox="0 0 226 163" fill="none" xmlns="http://www.w3.org/2000/svg">
<path d="M133.956 65.94V87H128.826V73.83L124.266 87H119.826L115.236 73.8V87H110.106V65.94H116.376L122.106 80.61L127.716 65.94H133.956ZM153.399 78.18C153.399 78.6 153.349 79.06 153.249 79.56H141.639C141.699 80.82 142.019 81.73 142.599 82.29C143.179 82.83 143.919 83.1 144.819 83.1C145.579 83.1 146.209 82.91 146.709 82.53C147.209 82.15 147.539 81.66 147.699 81.06H153.129C152.909 82.24 152.429 83.3 151.689 84.24C150.949 85.16 150.009 85.89 148.869 86.43C147.729 86.95 146.459 87.21 145.059 87.21C143.419 87.21 141.959 86.87 140.679 86.19C139.419 85.49 138.429 84.49 137.709 83.19C136.989 81.89 136.629 80.37 136.629 78.63C136.629 76.87 136.979 75.35 137.679 74.07C138.399 72.77 139.399 71.78 140.679 71.1C141.959 70.4 143.419 70.05 145.059 70.05C146.719 70.05 148.179 70.39 149.439 71.07C150.699 71.75 151.669 72.71 152.349 73.95C153.049 75.17 153.399 76.58 153.399 78.18ZM148.209 77.4C148.229 76.3 147.929 75.48 147.309 74.94C146.709 74.38 145.959 74.1 145.059 74.1C144.119 74.1 143.339 74.38 142.719 74.94C142.099 75.5 141.749 76.32 141.669 77.4H148.209Z" fill="#797EF6"/>
<path d="M162.433 70.05C163.713 70.05 164.813 70.34 165.733 70.92C166.653 71.5 167.323 72.29 167.743 73.29V64.8H172.873V87H167.743V83.97C167.323 84.97 166.653 85.76 165.733 86.34C164.813 86.92 163.713 87.21 162.433 87.21C161.053 87.21 159.813 86.87 158.713 86.19C157.633 85.49 156.773 84.49 156.133 83.19C155.513 81.89 155.203 80.37 155.203 78.63C155.203 76.87 155.513 75.35 156.133 74.07C156.773 72.77 157.633 71.78 158.713 71.1C159.813 70.4 161.053 70.05 162.433 70.05ZM164.083 74.55C162.983 74.55 162.093 74.91 161.413 75.63C160.753 76.35 160.423 77.35 160.423 78.63C160.423 79.91 160.753 80.91 161.413 81.63C162.093 82.35 162.983 82.71 164.083 82.71C165.163 82.71 166.043 82.34 166.723 81.6C167.423 80.86 167.773 79.87 167.773 78.63C167.773 77.37 167.423 76.38 166.723 75.66C166.043 74.92 165.163 74.55 164.083 74.55ZM175.925 65.55C175.925 64.77 176.205 64.13 176.765 63.63C177.325 63.11 178.065 62.85 178.985 62.85C179.905 62.85 180.645 63.11 181.205 63.63C181.765 64.13 182.045 64.77 182.045 65.55C182.045 66.31 181.765 66.95 181.205 67.47C180.645 67.97 179.905 68.22 178.985 68.22C178.065 68.22 177.325 67.97 176.765 67.47C176.205 66.95 175.925 66.31 175.925 65.55ZM181.535 70.26V87H176.405V70.26H181.535ZM192.637 70.05C194.797 70.05 196.607 70.65 198.067 71.85C199.527 73.03 200.447 74.66 200.827 76.74H195.397C195.237 76.02 194.907 75.46 194.407 75.06C193.907 74.66 193.277 74.46 192.517 74.46C191.617 74.46 190.877 74.82 190.297 75.54C189.717 76.24 189.427 77.27 189.427 78.63C189.427 79.99 189.717 81.03 190.297 81.75C190.877 82.45 191.617 82.8 192.517 82.8C193.277 82.8 193.907 82.6 194.407 82.2C194.907 81.8 195.237 81.24 195.397 80.52H200.827C200.447 82.6 199.527 84.24 198.067 85.44C196.607 86.62 194.797 87.21 192.637 87.21C190.997 87.21 189.537 86.87 188.257 86.19C186.997 85.49 186.007 84.49 185.287 83.19C184.567 81.89 184.207 80.37 184.207 78.63C184.207 76.87 184.557 75.35 185.257 74.07C185.977 72.77 186.977 71.78 188.257 71.1C189.537 70.4 190.997 70.05 192.637 70.05ZM203.024 65.55C203.024 64.77 203.304 64.13 203.864 63.63C204.424 63.11 205.164 62.85 206.084 62.85C207.004 62.85 207.744 63.11 208.304 63.63C208.864 64.13 209.144 64.77 209.144 65.55C209.144 66.31 208.864 66.95 208.304 67.47C207.744 67.97 207.004 68.22 206.084 68.22C205.164 68.22 204.424 67.97 203.864 67.47C203.304 66.95 203.024 66.31 203.024 65.55ZM208.634 70.26V87H203.504V70.26H208.634ZM221.656 82.59V87H219.346C217.386 87 215.856 86.52 214.756 85.56C213.676 84.58 213.136 82.97 213.136 80.73V74.58H210.886V70.26H213.136V66.15H218.266V70.26H221.626V74.58H218.266V80.82C218.266 81.48 218.396 81.94 218.656 82.2C218.936 82.46 219.396 82.59 220.036 82.59H221.656Z" fill="#7DD6F6"/>
<circle cx="64.3361" cy="77" r="35" fill="url(#paint0_linear_1_685)"/>
<path d="M77.8881 67.5695C75.884 67.4678 74.1789 69.0179 74.0763 71.0343C73.9825 72.8837 75.2747 74.4817 77.0362 74.8115L76.6507 82.469C76.4096 82.5634 76.2291 82.745 76.2219 83.0196C76.2104 83.4598 76.167 83.8985 76.1179 84.3358C76.0645 84.8109 75.9952 85.2859 75.9129 85.7581C75.8884 85.8946 75.8624 86.0312 75.8364 86.1677C75.8335 86.1837 75.8306 86.1953 75.8292 86.2041C75.8277 86.2099 75.8263 86.2157 75.8249 86.2229C75.8075 86.3028 75.7916 86.3813 75.7743 86.4612C75.7093 86.7619 75.6386 87.0626 75.5606 87.3605C75.2213 88.6621 74.7593 89.9507 74.0908 91.1725C74.0576 91.2335 74.0229 91.2945 73.9883 91.3556C74.0042 91.3279 73.9276 91.4601 73.9031 91.4994C73.8063 91.6592 73.7053 91.8161 73.6013 91.973C73.4035 92.2664 73.1898 92.5526 72.9588 92.8316C72.8505 92.9608 72.7379 93.0887 72.6209 93.2151C72.5661 93.2746 72.5098 93.3328 72.4535 93.3909C72.4159 93.4286 72.3769 93.4664 72.3394 93.5056C72.3278 93.5173 72.3019 93.542 72.2816 93.5608C72.0319 93.7904 71.7676 94.0097 71.4832 94.2131C71.3431 94.3134 71.1973 94.4107 71.0471 94.5037C70.9764 94.5473 70.9042 94.5894 70.832 94.6315C71.0255 94.5153 70.7165 94.6925 70.666 94.7187C70.3296 94.8901 69.9729 95.0398 69.6033 95.1632C69.5658 95.1763 69.5268 95.1865 69.4907 95.1996C69.4863 95.201 69.482 95.2025 69.4777 95.2039C69.4762 95.2039 69.4733 95.2054 69.4719 95.2054C69.3838 95.2286 69.2972 95.2533 69.2077 95.2751C68.9983 95.3274 68.7846 95.371 68.5695 95.4058C68.3688 95.4393 68.1652 95.4625 67.9616 95.4843C67.9486 95.4858 67.9284 95.4872 67.9082 95.4887C67.9227 95.4872 67.9414 95.4872 67.9631 95.4858C67.9328 95.4872 67.9024 95.4901 67.8721 95.4916C67.8606 95.493 67.8548 95.493 67.8562 95.493C67.8476 95.493 67.8389 95.4945 67.8302 95.4945C67.6931 95.5003 67.5574 95.5075 67.4202 95.509C66.9408 95.5163 66.4701 95.4799 65.9937 95.4378C65.9908 95.4378 65.9879 95.4378 65.985 95.4364C65.9402 95.4305 65.8955 95.4233 65.8507 95.4175C65.7511 95.4029 65.6515 95.3855 65.5533 95.3681C65.3194 95.3245 65.0869 95.2737 64.8588 95.2126C64.6769 95.1647 64.5022 95.1066 64.3231 95.0514C64.3188 95.0499 64.3159 95.0485 64.3116 95.0485C64.3087 95.047 64.3044 95.0456 64.3 95.0441C64.2625 95.0296 64.225 95.0165 64.1874 95.002C64.0762 94.9584 63.9665 94.9134 63.8582 94.8669C63.6979 94.7971 63.5406 94.7216 63.389 94.6417C63.3052 94.5981 63.2215 94.5531 63.1392 94.5066C63.0973 94.4834 62.8692 94.3395 62.924 94.3773C62.6353 94.1841 62.3595 93.9821 62.1054 93.7613C61.9827 93.6553 61.8657 93.5463 61.7516 93.4359C61.7199 93.4054 61.5639 93.2412 61.626 93.3095C61.5668 93.2441 61.5076 93.1802 61.4499 93.1148C60.9792 92.5759 60.6038 91.9962 60.2775 91.3977C60.2702 91.3846 60.263 91.3715 60.2572 91.3584C60.2486 91.3425 60.2385 91.3207 60.2313 91.3076C60.198 91.2379 60.1634 91.1681 60.1302 91.0984C60.0522 90.9357 59.98 90.7701 59.9107 90.6045C59.7793 90.2892 59.6609 89.9696 59.5555 89.6486C59.531 89.5759 59.5108 89.5018 59.4891 89.4292C61.0485 89.3202 62.5559 88.7043 63.8062 87.7541C67.579 84.8849 69.1586 79.8511 69.1788 75.2502C69.1904 72.689 69.1788 70.1278 69.1788 67.5666C69.1788 66.9709 68.7355 66.6615 68.2764 66.6382C68.2605 66.6353 68.2432 66.6324 68.2259 66.6324C67.6238 66.631 67.0217 66.6295 66.4196 66.6281L66.421 66.1516L63.9853 66.1458C63.7413 66.1458 63.5435 66.3433 63.542 66.5888L63.5406 67.4954C63.5406 67.7409 63.7369 67.9399 63.9809 67.9414L66.4182 67.9472L66.4196 67.5259C66.7012 67.5259 66.9841 67.5273 67.2657 67.5273C67.2657 67.5404 67.2643 67.5535 67.2643 67.5666C67.2643 69.9055 67.2643 72.2445 67.2643 74.5834C67.2643 78.2749 66.5062 82.1523 63.9824 84.9866C62.8345 86.2767 61.3069 87.3299 59.5527 87.4999C57.8316 87.6655 56.1654 86.9973 54.8775 85.867C51.8757 83.2317 50.7192 79.0056 50.7134 75.1238C50.7105 72.6047 50.7134 70.0856 50.7134 67.568C50.7134 67.5549 50.712 67.5419 50.712 67.5288C50.9646 67.5288 51.2173 67.5273 51.47 67.5273L51.4714 67.9486L53.9086 67.9428C54.1526 67.9428 54.3505 67.7423 54.349 67.4968L54.3476 66.5903C54.3476 66.3448 54.1483 66.1458 53.9043 66.1472L51.4685 66.153L51.47 66.6295C50.8679 66.631 50.2658 66.6324 49.6637 66.6339C49.6218 66.6339 49.5829 66.6441 49.5453 66.66C49.1468 66.7385 48.8003 67.0407 48.8003 67.5695C48.8003 70.013 48.8003 72.458 48.8003 74.9016C48.8003 79.0942 49.9207 83.4859 52.8633 86.5934C54.1642 87.9677 55.8189 88.9745 57.6699 89.3217C58.2128 91.3352 59.1801 93.3211 61.0153 94.8204C63.659 96.9821 68.2302 97.5472 71.4688 95.9288C74.56 94.3846 76.0645 91.5052 76.9207 88.8481C77.3135 87.6307 77.582 86.3856 77.7654 85.1377C77.8607 84.484 77.9531 83.8201 77.9646 83.1591C77.9646 83.1285 77.9675 83.098 77.9675 83.0675C77.9733 82.8162 77.8304 82.6346 77.6239 82.5242L78.0094 74.8638C79.7954 74.7156 81.2393 73.257 81.3331 71.4077C81.4328 69.3898 79.8907 67.6726 77.8881 67.5695Z" fill="white"/>
<defs>
<linearGradient id="paint0_linear_1_685" x1="64.3361" y1="42" x2="64.3361" y2="112" gradientUnits="userSpaceOnUse">
<stop stop-color="#797EF6"/>
<stop offset="1" stop-color="#7DD6F6"/>
</linearGradient>
</defs>
</svg>
