<svg width="110" height="110" viewBox="0 0 110 110" fill="none" xmlns="http://www.w3.org/2000/svg">
<g filter="url(#filter0_d_1_660)">
<circle cx="55" cy="35" r="35" fill="url(#paint0_linear_1_660)"/>
</g>
<path d="M65.7941 19.2059H60.6471C60.6471 18.6208 60.4147 18.0598 60.001 17.6461C59.5873 17.2324 59.0262 17 58.4412 17H52.5588C51.9738 17 51.4127 17.2324 50.999 17.6461C50.5853 18.0598 50.3529 18.6208 50.3529 19.2059H45.2059C44.6208 19.2059 44.0598 19.4383 43.6461 19.852C43.2324 20.2657 43 20.8267 43 21.4118V48.6176C43 49.2027 43.2324 49.7638 43.6461 50.1774C44.0598 50.5911 44.6208 50.8235 45.2059 50.8235H65.7941C66.3792 50.8235 66.9402 50.5911 67.3539 50.1774C67.7676 49.7638 68 49.2027 68 48.6176V21.4118C68 20.8267 67.7676 20.2657 67.3539 19.852C66.9402 19.4383 66.3792 19.2059 65.7941 19.2059ZM51.8235 19.2059C51.8235 19.0109 51.901 18.8238 52.0389 18.686C52.1768 18.5481 52.3638 18.4706 52.5588 18.4706H58.4412C58.6362 18.4706 58.8232 18.5481 58.9611 18.686C59.099 18.8238 59.1765 19.0109 59.1765 19.2059V20.6765C59.1765 20.8715 59.099 21.0585 58.9611 21.1964C58.8232 21.3343 58.6362 21.4118 58.4412 21.4118H52.5588C52.3638 21.4118 52.1768 21.3343 52.0389 21.1964C51.901 21.0585 51.8235 20.8715 51.8235 20.6765V19.2059ZM66.5294 48.6176C66.5294 48.8127 66.4519 48.9997 66.314 49.1376C66.1762 49.2755 65.9891 49.3529 65.7941 49.3529H45.2059C45.0109 49.3529 44.8238 49.2755 44.686 49.1376C44.5481 48.9997 44.4706 48.8127 44.4706 48.6176V21.4118C44.4706 21.2168 44.5481 21.0297 44.686 20.8918C44.8238 20.7539 45.0109 20.6765 45.2059 20.6765H50.3529C50.3529 21.2615 50.5853 21.8226 50.999 22.2363C51.4127 22.6499 51.9738 22.8824 52.5588 22.8824H58.4412C59.0262 22.8824 59.5873 22.6499 60.001 22.2363C60.4147 21.8226 60.6471 21.2615 60.6471 20.6765H65.7941C65.9891 20.6765 66.1762 20.7539 66.314 20.8918C66.4519 21.0297 66.5294 21.2168 66.5294 21.4118V48.6176Z" fill="white"/>
<path d="M53.2941 28.7648H54.7647V30.2354C54.7647 30.4304 54.8422 30.6175 54.9801 30.7554C55.118 30.8933 55.305 30.9707 55.5 30.9707C55.695 30.9707 55.8821 30.8933 56.0199 30.7554C56.1578 30.6175 56.2353 30.4304 56.2353 30.2354V28.7648H57.7059C57.9009 28.7648 58.0879 28.6874 58.2258 28.5495C58.3637 28.4116 58.4412 28.2246 58.4412 28.0296C58.4412 27.8345 58.3637 27.6475 58.2258 27.5096C58.0879 27.3717 57.9009 27.2943 57.7059 27.2943H56.2353V25.8237C56.2353 25.6287 56.1578 25.4416 56.0199 25.3037C55.8821 25.1658 55.695 25.0884 55.5 25.0884C55.305 25.0884 55.118 25.1658 54.9801 25.3037C54.8422 25.4416 54.7647 25.6287 54.7647 25.8237V27.2943H53.2941C53.0991 27.2943 52.9121 27.3717 52.7742 27.5096C52.6363 27.6475 52.5588 27.8345 52.5588 28.0296C52.5588 28.2246 52.6363 28.4116 52.7742 28.5495C52.9121 28.6874 53.0991 28.7648 53.2941 28.7648Z" fill="white"/>
<path d="M63.5882 33.1765H47.4118C47.2168 33.1765 47.0297 33.254 46.8918 33.3919C46.754 33.5298 46.6765 33.7168 46.6765 33.9118C46.6765 34.1068 46.754 34.2938 46.8918 34.4317C47.0297 34.5696 47.2168 34.6471 47.4118 34.6471H63.5882C63.7833 34.6471 63.9703 34.5696 64.1082 34.4317C64.2461 34.2938 64.3235 34.1068 64.3235 33.9118C64.3235 33.7168 64.2461 33.5298 64.1082 33.3919C63.9703 33.254 63.7833 33.1765 63.5882 33.1765Z" fill="white"/>
<path d="M63.5882 37.5881H47.4118C47.2168 37.5881 47.0297 37.6656 46.8918 37.8035C46.754 37.9414 46.6765 38.1284 46.6765 38.3234C46.6765 38.5184 46.754 38.7055 46.8918 38.8434C47.0297 38.9813 47.2168 39.0587 47.4118 39.0587H63.5882C63.7833 39.0587 63.9703 38.9813 64.1082 38.8434C64.2461 38.7055 64.3235 38.5184 64.3235 38.3234C64.3235 38.1284 64.2461 37.9414 64.1082 37.8035C63.9703 37.6656 63.7833 37.5881 63.5882 37.5881Z" fill="white"/>
<path d="M63.5882 42H47.4118C47.2168 42 47.0297 42.0775 46.8918 42.2154C46.754 42.3533 46.6765 42.5403 46.6765 42.7353C46.6765 42.9303 46.754 43.1173 46.8918 43.2552C47.0297 43.3931 47.2168 43.4706 47.4118 43.4706H63.5882C63.7833 43.4706 63.9703 43.3931 64.1082 43.2552C64.2461 43.1173 64.3235 42.9303 64.3235 42.7353C64.3235 42.5403 64.2461 42.3533 64.1082 42.2154C63.9703 42.0775 63.7833 42 63.5882 42Z" fill="white"/>
<defs>
<filter id="filter0_d_1_660" x="0" y="0" width="110" height="110" filterUnits="userSpaceOnUse" color-interpolation-filters="sRGB">
<feFlood flood-opacity="0" result="BackgroundImageFix"/>
<feColorMatrix in="SourceAlpha" type="matrix" values="0 0 0 0 0 0 0 0 0 0 0 0 0 0 0 0 0 0 127 0" result="hardAlpha"/>
<feOffset dy="20"/>
<feGaussianBlur stdDeviation="10"/>
<feColorMatrix type="matrix" values="0 0 0 0 0.149983 0 0 0 0 0.679167 0 0 0 0 0.555585 0 0 0 0.2 0"/>
<feBlend mode="normal" in2="BackgroundImageFix" result="effect1_dropShadow_1_660"/>
<feBlend mode="normal" in="SourceGraphic" in2="effect1_dropShadow_1_660" result="shape"/>
</filter>
<linearGradient id="paint0_linear_1_660" x1="55" y1="0" x2="55" y2="70" gradientUnits="userSpaceOnUse">
<stop stop-color="#26AD8E"/>
<stop offset="1" stop-color="#5BC199"/>
</linearGradient>
</defs>
</svg>
