<svg width="110" height="110" viewBox="0 0 110 110" fill="none" xmlns="http://www.w3.org/2000/svg">
<g filter="url(#filter0_d_1_641)">
<circle cx="55" cy="35" r="35" fill="url(#paint0_linear_1_641)"/>
</g>
<path d="M69.8878 45.5939L68.263 39.1347C68.088 38.4542 67.7269 37.8359 67.2203 37.3491C66.7137 36.8622 66.0815 36.526 65.3946 36.3781L58.5101 34.9116L58.2333 32.8488C59.357 31.8698 60.2537 30.6577 60.8612 29.2968C61.4686 27.936 61.7721 26.4591 61.7506 24.9689V21.751C61.7506 19.9605 61.0393 18.2434 59.7733 16.9773C58.5072 15.7113 56.7901 15 54.9996 15C53.2092 15 51.492 15.7113 50.226 16.9773C48.9599 18.2434 48.2487 19.9605 48.2487 21.751V24.9689C48.2272 26.4581 48.5303 27.934 49.1369 29.2942C49.7435 30.6543 50.6391 31.866 51.7614 32.8451L51.4524 34.9206L44.6054 36.3781C43.9185 36.526 43.2863 36.8622 42.7797 37.3491C42.2731 37.8359 41.912 38.4542 41.737 39.1347L40.1122 45.5939C39.9734 46.1484 39.9632 46.7273 40.0824 47.2863C40.2015 47.8454 40.4469 48.3698 40.7997 48.8195C41.1525 49.2693 41.6035 49.6324 42.1181 49.8812C42.6327 50.13 43.1974 50.2579 43.769 50.2551H66.231C66.8026 50.2579 67.3673 50.13 67.8819 49.8812C68.3965 49.6324 68.8475 49.2693 69.2003 48.8195C69.5531 48.3698 69.7985 47.8454 69.9176 47.2863C70.0368 46.7273 70.0266 46.1484 69.8878 45.5939ZM53.8137 40.1406C53.9488 40.328 54.1253 40.4817 54.3296 40.5897C54.5338 40.6977 54.7602 40.757 54.9911 40.7631C55.2221 40.7692 55.4513 40.7219 55.661 40.6248C55.8706 40.5278 56.055 40.3836 56.1998 40.2036C58.3961 37.441 58.3954 37.5032 58.5326 37.2429L57.8283 48.7548H52.1717L51.4381 36.8004C51.5574 37.0472 51.4621 36.8596 53.8137 40.1406ZM51.2588 30.0659C52.4046 29.4343 53.6917 29.103 55 29.103C56.3083 29.103 57.5954 29.4343 58.7412 30.0659C57.8567 31.4275 56.5382 32.4504 54.9996 32.9688C53.4613 32.4501 52.1432 31.4272 51.2588 30.0659ZM49.7489 24.9689V24.8264C49.8674 24.8317 49.9844 24.8369 50.1239 24.8369C52.3741 24.8163 54.5622 24.0965 56.3851 22.7771C57.4107 23.8488 58.7773 24.5301 60.2504 24.7041V24.9689C60.2533 26.2646 59.9874 27.5468 59.4695 28.7345C58.1011 27.9786 56.5633 27.5821 55 27.5821C53.4367 27.5821 51.8989 27.9786 50.5305 28.7345C50.0126 27.5468 49.7464 26.2646 49.7489 24.9689ZM49.7489 21.751C49.7489 20.3584 50.3021 19.0228 51.2868 18.0381C52.2715 17.0534 53.607 16.5002 54.9996 16.5002C56.3922 16.5002 57.7278 17.0534 58.7125 18.0381C59.6972 19.0228 60.2504 20.3584 60.2504 21.751V23.1957C59.0058 23.0057 57.8842 22.3382 57.1239 21.3347C57.0662 21.2482 56.9912 21.1747 56.9036 21.1188C56.816 21.0629 56.7178 21.0258 56.6151 21.0099C56.5124 20.9939 56.4076 20.9995 56.3071 21.0262C56.2067 21.053 56.1129 21.1003 56.0318 21.1651C54.2742 22.6334 52.0379 23.4039 49.7489 23.3299V21.751ZM54.7941 34.4735C54.9286 34.5126 55.0714 34.5126 55.2059 34.4735C55.7761 34.3078 56.3262 34.0796 56.8464 33.7932L57.2147 36.5348L55.0311 39.2637L52.7868 36.1485L53.1386 33.7842C53.663 34.0751 54.2182 34.3063 54.7941 34.4735ZM41.5667 45.9599L43.1922 39.5008C43.2977 39.0919 43.515 38.7204 43.8197 38.428C44.1244 38.1356 44.5045 37.9338 44.9174 37.8453L49.9334 36.7771L50.6685 48.7548H43.7675C43.4245 48.7566 43.0855 48.6801 42.7765 48.5311C42.4675 48.3821 42.1966 48.1645 41.9844 47.895C41.7721 47.6255 41.6242 47.3111 41.5518 46.9758C41.4794 46.6404 41.4845 46.293 41.5667 45.9599ZM66.231 48.7548H59.33L60.0651 36.7771L65.0803 37.8453C65.4932 37.9339 65.8733 38.1357 66.178 38.4281C66.4827 38.7205 66.7 39.0919 66.8056 39.5008L68.431 45.9599C68.5132 46.2929 68.5183 46.6403 68.446 46.9756C68.3736 47.3109 68.2258 47.6252 68.0136 47.8947C67.8015 48.1642 67.5306 48.3818 67.2217 48.5308C66.9128 48.6799 66.574 48.7565 66.231 48.7548Z" fill="white"/>
<defs>
<filter id="filter0_d_1_641" x="0" y="0" width="110" height="110" filterUnits="userSpaceOnUse" color-interpolation-filters="sRGB">
<feFlood flood-opacity="0" result="BackgroundImageFix"/>
<feColorMatrix in="SourceAlpha" type="matrix" values="0 0 0 0 0 0 0 0 0 0 0 0 0 0 0 0 0 0 127 0" result="hardAlpha"/>
<feOffset dy="20"/>
<feGaussianBlur stdDeviation="10"/>
<feColorMatrix type="matrix" values="0 0 0 0 1 0 0 0 0 0.623529 0 0 0 0 0.0784314 0 0 0 0.2 0"/>
<feBlend mode="normal" in2="BackgroundImageFix" result="effect1_dropShadow_1_641"/>
<feBlend mode="normal" in="SourceGraphic" in2="effect1_dropShadow_1_641" result="shape"/>
</filter>
<linearGradient id="paint0_linear_1_641" x1="55" y1="0" x2="55" y2="70" gradientUnits="userSpaceOnUse">
<stop stop-color="#FF9F14"/>
<stop offset="1" stop-color="#FC7575"/>
</linearGradient>
</defs>
</svg>
