<svg width="110" height="110" viewBox="0 0 110 110" fill="none" xmlns="http://www.w3.org/2000/svg">
<g filter="url(#filter0_d_1_632)">
<circle cx="55" cy="35" r="35" fill="url(#paint0_linear_1_632)"/>
</g>
<path d="M61.7184 20.0044C59.0665 19.93 56.4854 20.8667 54.4984 22.6247C52.513 20.8642 49.9309 19.9271 47.2784 20.0044C38.1006 20.2217 33.4203 31.3622 40.2603 38.1925L53.018 50.9305C53.4122 51.3235 53.946 51.5441 54.5026 51.5441C55.0592 51.5441 55.5931 51.3235 55.9873 50.9305L68.7449 38.1925C75.5766 31.3636 70.899 20.2217 61.7184 20.0044ZM67.7468 37.2006L54.9933 49.9387C54.862 50.0692 54.6843 50.1425 54.4991 50.1425C54.3139 50.1425 54.1363 50.0692 54.0049 49.9387L41.2508 37.2006C35.4951 31.4527 39.1479 21.5998 47.3128 21.4057C48.5516 21.3715 49.7842 21.5913 50.9349 22.0514C52.0856 22.5116 53.1299 23.2024 54.0035 24.0813C54.135 24.2127 54.3133 24.2865 54.4991 24.2865C54.685 24.2865 54.8633 24.2127 54.9947 24.0813C55.8679 23.2015 56.912 22.5099 58.0628 22.0493C59.2135 21.5886 60.4464 21.3686 61.6855 21.4029C69.8511 21.5998 73.5017 31.4541 67.7475 37.2006H67.7468Z" fill="white"/>
<path d="M60.8078 31.9175H57.303V28.4126C57.303 28.2267 57.2291 28.0484 57.0977 27.917C56.9662 27.7855 56.7879 27.7117 56.602 27.7117H52.3962C52.2103 27.7117 52.032 27.7855 51.9005 27.917C51.7691 28.0484 51.6952 28.2267 51.6952 28.4126V31.9175H48.1904C48.0044 31.9175 47.8261 31.9913 47.6947 32.1228C47.5632 32.2543 47.4894 32.4326 47.4894 32.6185V36.8243C47.4894 37.0102 47.5632 37.1885 47.6947 37.3199C47.8261 37.4514 48.0044 37.5253 48.1904 37.5253H51.6952V41.0301C51.6952 41.216 51.7691 41.3943 51.9005 41.5258C52.032 41.6572 52.2103 41.7311 52.3962 41.7311H56.602C56.7879 41.7311 56.9662 41.6572 57.0977 41.5258C57.2291 41.3943 57.303 41.216 57.303 41.0301V37.5253H60.8078C60.9937 37.5253 61.172 37.4514 61.3035 37.3199C61.4349 37.1885 61.5088 37.0102 61.5088 36.8243V32.6185C61.5088 32.4326 61.4349 32.2543 61.3035 32.1228C61.172 31.9913 60.9937 31.9175 60.8078 31.9175ZM60.1068 36.1233H56.602C56.4161 36.1233 56.2378 36.1972 56.1063 36.3286C55.9749 36.4601 55.901 36.6384 55.901 36.8243V40.3291H53.0971V36.8243C53.0971 36.6384 53.0233 36.4601 52.8918 36.3286C52.7604 36.1972 52.5821 36.1233 52.3962 36.1233H48.8913V33.3194H52.3962C52.5821 33.3194 52.7604 33.2456 52.8918 33.1141C53.0233 32.9827 53.0971 32.8044 53.0971 32.6185V29.1136H55.901V32.6185C55.901 32.8044 55.9749 32.9827 56.1063 33.1141C56.2378 33.2456 56.4161 33.3194 56.602 33.3194H60.1068V36.1233Z" fill="white"/>
<defs>
<filter id="filter0_d_1_632" x="0" y="0" width="110" height="110" filterUnits="userSpaceOnUse" color-interpolation-filters="sRGB">
<feFlood flood-opacity="0" result="BackgroundImageFix"/>
<feColorMatrix in="SourceAlpha" type="matrix" values="0 0 0 0 0 0 0 0 0 0 0 0 0 0 0 0 0 0 127 0" result="hardAlpha"/>
<feOffset dy="20"/>
<feGaussianBlur stdDeviation="10"/>
<feColorMatrix type="matrix" values="0 0 0 0 0.47451 0 0 0 0 0.494118 0 0 0 0 0.964706 0 0 0 0.2 0"/>
<feBlend mode="normal" in2="BackgroundImageFix" result="effect1_dropShadow_1_632"/>
<feBlend mode="normal" in="SourceGraphic" in2="effect1_dropShadow_1_632" result="shape"/>
</filter>
<linearGradient id="paint0_linear_1_632" x1="55" y1="0" x2="55" y2="70" gradientUnits="userSpaceOnUse">
<stop stop-color="#7DD6F6"/>
<stop offset="1" stop-color="#797EF6"/>
</linearGradient>
</defs>
</svg>
