<svg width="35" height="35" viewBox="0 0 35 35" fill="none" xmlns="http://www.w3.org/2000/svg">
<circle cx="17.5" cy="17.5" r="17.5" fill="white" fill-opacity="0.1"/>
<path d="M18.1903 11C14.3533 11 12.3127 13.4589 12.3127 16.14C12.3127 17.3834 13.0074 18.934 14.1196 19.4258C14.2885 19.5019 14.3804 19.4695 14.418 19.3129C14.4513 19.1939 14.5974 18.6207 14.6683 18.3503C14.6901 18.2637 14.6788 18.1884 14.6088 18.1071C14.2395 17.6801 13.9464 16.9021 13.9464 16.1724C13.9464 14.3024 15.4331 12.4867 17.9628 12.4867C20.1504 12.4867 21.6808 13.9078 21.6808 15.9405C21.6808 18.2375 20.4654 19.8265 18.886 19.8265C18.0118 19.8265 17.3608 19.1405 17.5673 18.2917C17.8167 17.281 18.3058 16.1942 18.3058 15.4653C18.3058 14.8117 17.9365 14.2709 17.1823 14.2709C16.2923 14.2709 15.5704 15.1521 15.5704 16.3351C15.5704 17.0868 15.8365 17.5943 15.8365 17.5943C15.8365 17.5943 14.9562 21.1505 14.7925 21.8146C14.516 22.939 14.8302 24.76 14.8573 24.9166C14.8739 25.0033 14.971 25.0304 15.0253 24.9595C15.1119 24.8457 16.176 23.3276 16.4744 22.2303C16.5829 21.8304 17.0283 20.2089 17.0283 20.2089C17.3214 20.7383 18.1676 21.182 19.0688 21.182C21.75 21.182 23.6873 18.8255 23.6873 15.9011C23.6777 13.0975 21.2783 11 18.1903 11Z" fill="white"/>
</svg>
