<svg width="16" height="15" viewBox="0 0 16 15" fill="none" xmlns="http://www.w3.org/2000/svg">
<path d="M14.1325 9.84578C13.2141 9.84578 12.3124 9.70215 11.4579 9.41977C11.0392 9.27695 10.5245 9.40797 10.2689 9.67043L8.58231 10.9436C6.62633 9.89953 5.42149 8.69508 4.39165 6.75379L5.62739 5.11113C5.94844 4.79051 6.0636 4.32215 5.92563 3.8827C5.64204 3.02371 5.49797 2.12242 5.49797 1.20367C5.49801 0.539961 4.95805 0 4.29438 0H1.53969C0.87602 0 0.33606 0.539961 0.33606 1.20363C0.33606 8.81105 6.52504 15 14.1325 15C14.7961 15 15.3361 14.46 15.3361 13.7964V11.0494C15.3361 10.3857 14.7961 9.84578 14.1325 9.84578Z" fill="white"/>
</svg>
