<svg width="12" height="14" viewBox="0 0 12 14" fill="none" xmlns="http://www.w3.org/2000/svg">
<path d="M6.19026 0C2.35321 0 0.312622 2.45886 0.312622 5.13998C0.312622 6.38341 1.0074 7.93398 2.11958 8.42575C2.28846 8.50188 2.38034 8.46951 2.41797 8.31287C2.45122 8.19387 2.59735 7.62072 2.66823 7.35033C2.6901 7.2637 2.67873 7.18845 2.60873 7.10707C2.23946 6.68005 1.94632 5.90214 1.94632 5.17236C1.94632 3.3024 3.43301 1.48669 5.96275 1.48669C8.15035 1.48669 9.68079 2.90776 9.68079 4.94047C9.68079 7.23745 8.46536 8.82652 6.88592 8.82652C6.01175 8.82652 5.36072 8.14049 5.56723 7.2917C5.81662 6.28103 6.30577 5.19423 6.30577 4.46533C6.30577 3.81167 5.9365 3.2709 5.18222 3.2709C4.2923 3.2709 3.57039 4.15206 3.57039 5.33512C3.57039 6.08677 3.83641 6.5943 3.83641 6.5943C3.83641 6.5943 2.95612 10.1505 2.79248 10.8146C2.51597 11.939 2.83011 13.76 2.85724 13.9166C2.87386 14.0033 2.97099 14.0304 3.02524 13.9595C3.11187 13.8457 4.17592 12.3276 4.47431 11.2303C4.58281 10.8304 5.02821 9.20891 5.02821 9.20891C5.32135 9.73831 6.16751 10.182 7.0688 10.182C9.74992 10.182 11.6873 7.82548 11.6873 4.9011C11.6776 2.09747 9.27828 0 6.19026 0Z" fill="#F1F9F4"/>
</svg>
