<svg width="17" height="16" viewBox="0 0 17 16" fill="none" xmlns="http://www.w3.org/2000/svg">
<path d="M12.0777 10.3276C12.8651 9.25241 13.336 7.93174 13.336 6.50002C13.336 2.91603 10.42 0 6.83602 0C3.25205 0 0.33606 2.91603 0.33606 6.50002C0.33606 10.084 3.25208 13 6.83605 13C8.26775 13 9.58854 12.529 10.6637 11.7417L14.922 16L16.3361 14.5859C16.3361 14.5859 12.0777 10.3276 12.0777 10.3276ZM6.83605 11C4.3546 11 2.33607 8.98148 2.33607 6.50002C2.33607 4.01857 4.3546 2.00002 6.83605 2.00002C9.31749 2.00002 11.336 4.01857 11.336 6.50002C11.336 8.98148 9.31746 11 6.83605 11Z" fill="#162F62"/>
</svg>
