<svg width="18" height="15" viewBox="0 0 18 15" fill="none" xmlns="http://www.w3.org/2000/svg">
<path d="M5.84778 9.99036H14.846C15.0688 9.99036 15.2642 9.84303 15.3245 9.62902L17.3169 2.65623C17.3597 2.50591 17.3304 2.34444 17.2361 2.21954C17.1416 2.09502 16.9948 2.02148 16.8381 2.02148H4.69799L4.34196 0.419434C4.29138 0.191292 4.08905 0.0292969 3.85559 0.0292969H0.834106C0.558884 0.0292969 0.33606 0.252121 0.33606 0.527344C0.33606 0.802696 0.558884 1.02539 0.834106 1.02539H3.45586L5.2544 9.11865C4.72523 9.34874 4.35364 9.87545 4.35364 10.4884C4.35364 11.3123 5.02393 11.9826 5.84778 11.9826H14.846C15.1213 11.9826 15.344 11.7599 15.344 11.4845C15.344 11.2093 15.1213 10.9865 14.846 10.9865H5.84778C5.57346 10.9865 5.34973 10.7632 5.34973 10.4884C5.34973 10.2136 5.57346 9.99036 5.84778 9.99036Z" fill="#162F62"/>
<path d="M5.34973 13.4766C5.34973 14.3005 6.02002 14.9707 6.844 14.9707C7.66785 14.9707 8.33814 14.3005 8.33814 13.4766C8.33814 12.6527 7.66785 11.9824 6.844 11.9824C6.02002 11.9824 5.34973 12.6527 5.34973 13.4766Z" fill="#162F62"/>
<path d="M12.3557 13.4766C12.3557 14.3005 13.026 14.9707 13.8499 14.9707C14.6738 14.9707 15.344 14.3005 15.344 13.4766C15.344 12.6527 14.6738 11.9824 13.8499 11.9824C13.026 11.9824 12.3557 12.6527 12.3557 13.4766Z" fill="#162F62"/>
</svg>
