<svg width="0" height="0" class="hidden">
  <symbol fill="none" xmlns="http://www.w3.org/2000/svg" viewBox="0 0 16 15" id="phone">
    <path d="M14.1325 9.84578C13.2141 9.84578 12.3124 9.70215 11.4579 9.41977C11.0392 9.27695 10.5245 9.40797 10.2689 9.67043L8.58231 10.9436C6.62633 9.89953 5.42149 8.69508 4.39165 6.75379L5.62739 5.11113C5.94844 4.79051 6.0636 4.32215 5.92563 3.8827C5.64204 3.02371 5.49797 2.12242 5.49797 1.20367C5.49801 0.539961 4.95805 0 4.29438 0H1.53969C0.87602 0 0.33606 0.539961 0.33606 1.20363C0.33606 8.81105 6.52504 15 14.1325 15C14.7961 15 15.3361 14.46 15.3361 13.7964V11.0494C15.3361 10.3857 14.7961 9.84578 14.1325 9.84578Z" fill="white"></path>
  </symbol>
  <symbol fill="none" xmlns="http://www.w3.org/2000/svg" viewBox="0 0 12 14" id="pinterest">
    <path d="M6.19026 0C2.35321 0 0.312622 2.45886 0.312622 5.13998C0.312622 6.38341 1.0074 7.93398 2.11958 8.42575C2.28846 8.50188 2.38034 8.46951 2.41797 8.31287C2.45122 8.19387 2.59735 7.62072 2.66823 7.35033C2.6901 7.2637 2.67873 7.18845 2.60873 7.10707C2.23946 6.68005 1.94632 5.90214 1.94632 5.17236C1.94632 3.3024 3.43301 1.48669 5.96275 1.48669C8.15035 1.48669 9.68079 2.90776 9.68079 4.94047C9.68079 7.23745 8.46536 8.82652 6.88592 8.82652C6.01175 8.82652 5.36072 8.14049 5.56723 7.2917C5.81662 6.28103 6.30577 5.19423 6.30577 4.46533C6.30577 3.81167 5.9365 3.2709 5.18222 3.2709C4.2923 3.2709 3.57039 4.15206 3.57039 5.33512C3.57039 6.08677 3.83641 6.5943 3.83641 6.5943C3.83641 6.5943 2.95612 10.1505 2.79248 10.8146C2.51597 11.939 2.83011 13.76 2.85724 13.9166C2.87386 14.0033 2.97099 14.0304 3.02524 13.9595C3.11187 13.8457 4.17592 12.3276 4.47431 11.2303C4.58281 10.8304 5.02821 9.20891 5.02821 9.20891C5.32135 9.73831 6.16751 10.182 7.0688 10.182C9.74992 10.182 11.6873 7.82548 11.6873 4.9011C11.6776 2.09747 9.27828 0 6.19026 0Z" fill="#F1F9F4"></path>
  </symbol>
  <symbol fill="none" xmlns="http://www.w3.org/2000/svg" viewBox="0 0 16 20" id="play">
    <path d="M14.7394 8.14282L3.63017 0.537491C3.11712 0.186017 2.60019 0 2.17053 0C1.33984 0 0.825989 0.666683 0.825989 1.78262V18.22C0.825989 19.3346 1.3392 20 2.16794 20C2.59825 20 3.10692 19.8138 3.6211 19.4614L14.7355 11.8562C15.4503 11.3663 15.8461 10.7071 15.8461 9.99911C15.8463 9.29163 15.455 8.63256 14.7394 8.14282Z" fill="white"></path>
  </symbol>
  <symbol fill="none" xmlns="http://www.w3.org/2000/svg" viewBox="0 0 14 11" id="pos">
    <path d="M11.7767 0.740479L5.37661 7.14057L1.89542 3.65941L0.33606 5.21878L5.37661 10.2593L13.3361 2.29987L11.7767 0.740479Z" fill="white"></path>
  </symbol>
  <symbol fill="none" xmlns="http://www.w3.org/2000/svg" viewBox="0 0 2 17" id="rect">
    <rect x="0.33606" width="1" height="17" fill="#999999"></rect>
  </symbol>
  <symbol fill="none" xmlns="http://www.w3.org/2000/svg" viewBox="0 0 56 56" id="teeth-icon">
    <path d="M42.5347 0C36.0639 0 29.7708 5.17307 27.8339 6.92078C25.5284 4.86089 19.43 0 13.1332 0C4.87993 0 -1.71826 9.47352 0.929099 18.7737C2.00417 22.3201 3.54976 25.7054 5.52431 28.8384C7.03726 31.4182 8.23293 33.4547 8.23293 35.6425C8.23293 44.7141 11.1204 55.3073 19.2585 55.3073C19.5689 55.308 19.868 55.1906 20.0954 54.9787C20.3228 54.7667 20.4615 54.4761 20.4836 54.1655C20.7188 50.8642 21.9928 41.5333 25.0236 38.0539C25.3909 37.679 25.8289 37.3814 26.312 37.1782C26.7951 36.9749 27.3137 36.8703 27.8376 36.8703C28.3615 36.8703 28.8801 36.9749 29.3632 37.1782C29.8464 37.3814 30.2843 37.679 30.6516 38.0539C34.2986 42.2412 35.1843 54.0475 35.1904 54.1655C35.2125 54.4761 35.3512 54.7667 35.5786 54.9787C35.806 55.1906 36.1051 55.308 36.4155 55.3073C44.5536 55.3073 47.4411 44.7141 47.4411 35.6425C47.4411 33.4547 48.6355 31.4182 50.1485 28.8384C52.1235 25.7057 53.6691 22.3203 54.7437 18.7737C57.3959 9.43542 50.7549 0 42.5347 0ZM52.3818 18.0978C51.3659 21.4454 49.902 24.6393 48.0303 27.5922C46.3985 30.3784 44.9848 32.7849 44.9848 35.6425C44.9848 36.3123 44.8954 51.3743 37.5181 52.7484C37.175 49.4299 35.9475 40.4038 32.4953 36.4364C31.898 35.7986 31.1768 35.2902 30.3761 34.9428C29.5755 34.5953 28.7124 34.416 27.8401 34.416C26.9677 34.416 26.1046 34.5953 25.304 34.9428C24.5033 35.2902 23.7821 35.7986 23.1848 36.4364C19.7289 40.4038 18.5026 49.4263 18.1621 52.7484C10.7713 51.3743 10.6831 36.3123 10.6831 35.6425C10.6831 32.7849 9.27055 30.3784 7.63632 27.5922C5.76461 24.6393 4.30079 21.4454 3.2849 18.0978C1.00995 10.1077 6.7604 2.4581 13.1332 2.4581C18.3666 2.4581 23.7606 6.63687 25.94 8.52838C21.9708 11.0467 17.7835 7.80816 17.574 7.64223C17.3201 7.43883 16.9961 7.34496 16.6732 7.38126C16.3503 7.41756 16.0549 7.58107 15.8522 7.83581C15.6495 8.09055 15.5559 8.41566 15.5921 8.73962C15.6283 9.06357 15.7912 9.35984 16.0452 9.56324C18.4598 11.5015 24.2653 13.9264 28.9549 9.22894C30.8329 7.34603 36.9386 2.4581 42.5347 2.4581C48.9258 2.4581 54.6506 10.1335 52.3818 18.0978Z" fill="white"></path>
  </symbol>
  <symbol fill="none" xmlns="http://www.w3.org/2000/svg" viewBox="0 0 15 13" id="twitter">
    <path d="M15 1.84906C14.4422 2.09375 13.8478 2.25594 13.2281 2.33469C13.8656 1.95406 14.3522 1.35594 14.5809 0.635C13.9866 0.989375 13.3303 1.23969 12.6309 1.37938C12.0666 0.778438 11.2622 0.40625 10.3847 0.40625C8.68219 0.40625 7.31156 1.78813 7.31156 3.48219C7.31156 3.72594 7.33219 3.96031 7.38281 4.18344C4.82625 4.05875 2.56406 2.83344 1.04437 0.966875C0.779062 1.42719 0.623438 1.95406 0.623438 2.52125C0.623438 3.58625 1.17188 4.53031 1.98937 5.07687C1.49531 5.0675 1.01063 4.92406 0.6 4.69812C0.6 4.7075 0.6 4.71969 0.6 4.73187C0.6 6.22625 1.66594 7.4675 3.06375 7.75344C2.81344 7.82188 2.54063 7.85469 2.2575 7.85469C2.06063 7.85469 1.86187 7.84344 1.67531 7.80219C2.07375 9.02 3.20438 9.91531 4.54875 9.94438C3.5025 10.7628 2.17406 11.2559 0.735938 11.2559C0.48375 11.2559 0.241875 11.2447 0 11.2137C1.36219 12.0922 2.97656 12.5938 4.7175 12.5938C10.3763 12.5938 13.47 7.90625 13.47 3.84312C13.47 3.70719 13.4653 3.57594 13.4587 3.44563C14.0691 3.0125 14.5819 2.47156 15 1.84906Z" fill="#F1F9F4"></path>
  </symbol>
  <symbol fill="none" xmlns="http://www.w3.org/2000/svg" viewBox="0 0 16 15" id="email1">
    <g clip-path="url(#clip0_1_715)">
      <path d="M14.8003 2.14307H0.871796L7.83609 7.8795L14.8791 2.15914C14.8533 2.1516 14.827 2.14624 14.8003 2.14307Z" fill="white"></path>
      <path d="M8.17408 8.98708C7.9767 9.1487 7.69272 9.1487 7.49534 8.98708L0.33606 3.08887V12.3214C0.33606 12.6172 0.575907 12.8571 0.871784 12.8571H14.8003C15.0962 12.8571 15.3361 12.6172 15.3361 12.3214V3.16816L8.17408 8.98708Z" fill="white"></path>
    </g>
    <defs>
      <clipPath id="clip0_1_715">
        <rect width="15" height="15" fill="white" transform="translate(0.33606)"></rect>
      </clipPath>
    </defs>
  </symbol>
  <symbol fill="none" xmlns="http://www.w3.org/2000/svg" viewBox="0 0 16 15" id="ad">
    <g clip-path="url(#clip0_1_724)">
      <path d="M13.2722 3.89906C12.7438 2.1914 11.3546 0.801819 9.64696 0.273333C7.83957 -0.28653 5.91659 0.0246317 4.44878 1.10616C2.99179 2.18021 2.12206 3.90076 2.12206 5.70849C2.12206 6.95557 2.51657 8.14037 3.26267 9.13458L7.83664 15L12.4106 9.13414C13.5272 7.64539 13.8414 5.73726 13.2722 3.89906ZM7.83664 8.78554C6.14012 8.78554 4.75956 7.40498 4.75956 5.70846C4.75956 4.01194 6.14012 2.63138 7.83664 2.63138C9.53317 2.63138 10.9137 4.01194 10.9137 5.70846C10.9137 7.40498 9.53317 8.78554 7.83664 8.78554Z" fill="white"></path>
      <path d="M7.83664 3.5166C6.62478 3.5166 5.63873 4.49679 5.63873 5.70865C5.63873 6.92051 6.62478 7.90656 7.83664 7.90656C9.04851 7.90656 10.0345 6.92051 10.0345 5.70865C10.0346 4.49679 9.04851 3.5166 7.83664 3.5166Z" fill="white"></path>
    </g>
    <defs>
      <clipPath id="clip0_1_724">
        <rect width="15" height="15" fill="white" transform="translate(0.33606)"></rect>
      </clipPath>
    </defs>
  </symbol>
  <symbol fill="none" xmlns="http://www.w3.org/2000/svg" viewBox="0 0 226 163" id="logo-medicit">
    <path d="M133.956 65.94V87H128.826V73.83L124.266 87H119.826L115.236 73.8V87H110.106V65.94H116.376L122.106 80.61L127.716 65.94H133.956ZM153.399 78.18C153.399 78.6 153.349 79.06 153.249 79.56H141.639C141.699 80.82 142.019 81.73 142.599 82.29C143.179 82.83 143.919 83.1 144.819 83.1C145.579 83.1 146.209 82.91 146.709 82.53C147.209 82.15 147.539 81.66 147.699 81.06H153.129C152.909 82.24 152.429 83.3 151.689 84.24C150.949 85.16 150.009 85.89 148.869 86.43C147.729 86.95 146.459 87.21 145.059 87.21C143.419 87.21 141.959 86.87 140.679 86.19C139.419 85.49 138.429 84.49 137.709 83.19C136.989 81.89 136.629 80.37 136.629 78.63C136.629 76.87 136.979 75.35 137.679 74.07C138.399 72.77 139.399 71.78 140.679 71.1C141.959 70.4 143.419 70.05 145.059 70.05C146.719 70.05 148.179 70.39 149.439 71.07C150.699 71.75 151.669 72.71 152.349 73.95C153.049 75.17 153.399 76.58 153.399 78.18ZM148.209 77.4C148.229 76.3 147.929 75.48 147.309 74.94C146.709 74.38 145.959 74.1 145.059 74.1C144.119 74.1 143.339 74.38 142.719 74.94C142.099 75.5 141.749 76.32 141.669 77.4H148.209Z" fill="#797EF6"></path>
    <path d="M162.433 70.05C163.713 70.05 164.813 70.34 165.733 70.92C166.653 71.5 167.323 72.29 167.743 73.29V64.8H172.873V87H167.743V83.97C167.323 84.97 166.653 85.76 165.733 86.34C164.813 86.92 163.713 87.21 162.433 87.21C161.053 87.21 159.813 86.87 158.713 86.19C157.633 85.49 156.773 84.49 156.133 83.19C155.513 81.89 155.203 80.37 155.203 78.63C155.203 76.87 155.513 75.35 156.133 74.07C156.773 72.77 157.633 71.78 158.713 71.1C159.813 70.4 161.053 70.05 162.433 70.05ZM164.083 74.55C162.983 74.55 162.093 74.91 161.413 75.63C160.753 76.35 160.423 77.35 160.423 78.63C160.423 79.91 160.753 80.91 161.413 81.63C162.093 82.35 162.983 82.71 164.083 82.71C165.163 82.71 166.043 82.34 166.723 81.6C167.423 80.86 167.773 79.87 167.773 78.63C167.773 77.37 167.423 76.38 166.723 75.66C166.043 74.92 165.163 74.55 164.083 74.55ZM175.925 65.55C175.925 64.77 176.205 64.13 176.765 63.63C177.325 63.11 178.065 62.85 178.985 62.85C179.905 62.85 180.645 63.11 181.205 63.63C181.765 64.13 182.045 64.77 182.045 65.55C182.045 66.31 181.765 66.95 181.205 67.47C180.645 67.97 179.905 68.22 178.985 68.22C178.065 68.22 177.325 67.97 176.765 67.47C176.205 66.95 175.925 66.31 175.925 65.55ZM181.535 70.26V87H176.405V70.26H181.535ZM192.637 70.05C194.797 70.05 196.607 70.65 198.067 71.85C199.527 73.03 200.447 74.66 200.827 76.74H195.397C195.237 76.02 194.907 75.46 194.407 75.06C193.907 74.66 193.277 74.46 192.517 74.46C191.617 74.46 190.877 74.82 190.297 75.54C189.717 76.24 189.427 77.27 189.427 78.63C189.427 79.99 189.717 81.03 190.297 81.75C190.877 82.45 191.617 82.8 192.517 82.8C193.277 82.8 193.907 82.6 194.407 82.2C194.907 81.8 195.237 81.24 195.397 80.52H200.827C200.447 82.6 199.527 84.24 198.067 85.44C196.607 86.62 194.797 87.21 192.637 87.21C190.997 87.21 189.537 86.87 188.257 86.19C186.997 85.49 186.007 84.49 185.287 83.19C184.567 81.89 184.207 80.37 184.207 78.63C184.207 76.87 184.557 75.35 185.257 74.07C185.977 72.77 186.977 71.78 188.257 71.1C189.537 70.4 190.997 70.05 192.637 70.05ZM203.024 65.55C203.024 64.77 203.304 64.13 203.864 63.63C204.424 63.11 205.164 62.85 206.084 62.85C207.004 62.85 207.744 63.11 208.304 63.63C208.864 64.13 209.144 64.77 209.144 65.55C209.144 66.31 208.864 66.95 208.304 67.47C207.744 67.97 207.004 68.22 206.084 68.22C205.164 68.22 204.424 67.97 203.864 67.47C203.304 66.95 203.024 66.31 203.024 65.55ZM208.634 70.26V87H203.504V70.26H208.634ZM221.656 82.59V87H219.346C217.386 87 215.856 86.52 214.756 85.56C213.676 84.58 213.136 82.97 213.136 80.73V74.58H210.886V70.26H213.136V66.15H218.266V70.26H221.626V74.58H218.266V80.82C218.266 81.48 218.396 81.94 218.656 82.2C218.936 82.46 219.396 82.59 220.036 82.59H221.656Z" fill="#7DD6F6"></path>
    <circle cx="64.3361" cy="77" r="35" fill="url(#paint0_linear_1_685)"></circle>
    <path d="M77.8881 67.5695C75.884 67.4678 74.1789 69.0179 74.0763 71.0343C73.9825 72.8837 75.2747 74.4817 77.0362 74.8115L76.6507 82.469C76.4096 82.5634 76.2291 82.745 76.2219 83.0196C76.2104 83.4598 76.167 83.8985 76.1179 84.3358C76.0645 84.8109 75.9952 85.2859 75.9129 85.7581C75.8884 85.8946 75.8624 86.0312 75.8364 86.1677C75.8335 86.1837 75.8306 86.1953 75.8292 86.2041C75.8277 86.2099 75.8263 86.2157 75.8249 86.2229C75.8075 86.3028 75.7916 86.3813 75.7743 86.4612C75.7093 86.7619 75.6386 87.0626 75.5606 87.3605C75.2213 88.6621 74.7593 89.9507 74.0908 91.1725C74.0576 91.2335 74.0229 91.2945 73.9883 91.3556C74.0042 91.3279 73.9276 91.4601 73.9031 91.4994C73.8063 91.6592 73.7053 91.8161 73.6013 91.973C73.4035 92.2664 73.1898 92.5526 72.9588 92.8316C72.8505 92.9608 72.7379 93.0887 72.6209 93.2151C72.5661 93.2746 72.5098 93.3328 72.4535 93.3909C72.4159 93.4286 72.3769 93.4664 72.3394 93.5056C72.3278 93.5173 72.3019 93.542 72.2816 93.5608C72.0319 93.7904 71.7676 94.0097 71.4832 94.2131C71.3431 94.3134 71.1973 94.4107 71.0471 94.5037C70.9764 94.5473 70.9042 94.5894 70.832 94.6315C71.0255 94.5153 70.7165 94.6925 70.666 94.7187C70.3296 94.8901 69.9729 95.0398 69.6033 95.1632C69.5658 95.1763 69.5268 95.1865 69.4907 95.1996C69.4863 95.201 69.482 95.2025 69.4777 95.2039C69.4762 95.2039 69.4733 95.2054 69.4719 95.2054C69.3838 95.2286 69.2972 95.2533 69.2077 95.2751C68.9983 95.3274 68.7846 95.371 68.5695 95.4058C68.3688 95.4393 68.1652 95.4625 67.9616 95.4843C67.9486 95.4858 67.9284 95.4872 67.9082 95.4887C67.9227 95.4872 67.9414 95.4872 67.9631 95.4858C67.9328 95.4872 67.9024 95.4901 67.8721 95.4916C67.8606 95.493 67.8548 95.493 67.8562 95.493C67.8476 95.493 67.8389 95.4945 67.8302 95.4945C67.6931 95.5003 67.5574 95.5075 67.4202 95.509C66.9408 95.5163 66.4701 95.4799 65.9937 95.4378C65.9908 95.4378 65.9879 95.4378 65.985 95.4364C65.9402 95.4305 65.8955 95.4233 65.8507 95.4175C65.7511 95.4029 65.6515 95.3855 65.5533 95.3681C65.3194 95.3245 65.0869 95.2737 64.8588 95.2126C64.6769 95.1647 64.5022 95.1066 64.3231 95.0514C64.3188 95.0499 64.3159 95.0485 64.3116 95.0485C64.3087 95.047 64.3044 95.0456 64.3 95.0441C64.2625 95.0296 64.225 95.0165 64.1874 95.002C64.0762 94.9584 63.9665 94.9134 63.8582 94.8669C63.6979 94.7971 63.5406 94.7216 63.389 94.6417C63.3052 94.5981 63.2215 94.5531 63.1392 94.5066C63.0973 94.4834 62.8692 94.3395 62.924 94.3773C62.6353 94.1841 62.3595 93.9821 62.1054 93.7613C61.9827 93.6553 61.8657 93.5463 61.7516 93.4359C61.7199 93.4054 61.5639 93.2412 61.626 93.3095C61.5668 93.2441 61.5076 93.1802 61.4499 93.1148C60.9792 92.5759 60.6038 91.9962 60.2775 91.3977C60.2702 91.3846 60.263 91.3715 60.2572 91.3584C60.2486 91.3425 60.2385 91.3207 60.2313 91.3076C60.198 91.2379 60.1634 91.1681 60.1302 91.0984C60.0522 90.9357 59.98 90.7701 59.9107 90.6045C59.7793 90.2892 59.6609 89.9696 59.5555 89.6486C59.531 89.5759 59.5108 89.5018 59.4891 89.4292C61.0485 89.3202 62.5559 88.7043 63.8062 87.7541C67.579 84.8849 69.1586 79.8511 69.1788 75.2502C69.1904 72.689 69.1788 70.1278 69.1788 67.5666C69.1788 66.9709 68.7355 66.6615 68.2764 66.6382C68.2605 66.6353 68.2432 66.6324 68.2259 66.6324C67.6238 66.631 67.0217 66.6295 66.4196 66.6281L66.421 66.1516L63.9853 66.1458C63.7413 66.1458 63.5435 66.3433 63.542 66.5888L63.5406 67.4954C63.5406 67.7409 63.7369 67.9399 63.9809 67.9414L66.4182 67.9472L66.4196 67.5259C66.7012 67.5259 66.9841 67.5273 67.2657 67.5273C67.2657 67.5404 67.2643 67.5535 67.2643 67.5666C67.2643 69.9055 67.2643 72.2445 67.2643 74.5834C67.2643 78.2749 66.5062 82.1523 63.9824 84.9866C62.8345 86.2767 61.3069 87.3299 59.5527 87.4999C57.8316 87.6655 56.1654 86.9973 54.8775 85.867C51.8757 83.2317 50.7192 79.0056 50.7134 75.1238C50.7105 72.6047 50.7134 70.0856 50.7134 67.568C50.7134 67.5549 50.712 67.5419 50.712 67.5288C50.9646 67.5288 51.2173 67.5273 51.47 67.5273L51.4714 67.9486L53.9086 67.9428C54.1526 67.9428 54.3505 67.7423 54.349 67.4968L54.3476 66.5903C54.3476 66.3448 54.1483 66.1458 53.9043 66.1472L51.4685 66.153L51.47 66.6295C50.8679 66.631 50.2658 66.6324 49.6637 66.6339C49.6218 66.6339 49.5829 66.6441 49.5453 66.66C49.1468 66.7385 48.8003 67.0407 48.8003 67.5695C48.8003 70.013 48.8003 72.458 48.8003 74.9016C48.8003 79.0942 49.9207 83.4859 52.8633 86.5934C54.1642 87.9677 55.8189 88.9745 57.6699 89.3217C58.2128 91.3352 59.1801 93.3211 61.0153 94.8204C63.659 96.9821 68.2302 97.5472 71.4688 95.9288C74.56 94.3846 76.0645 91.5052 76.9207 88.8481C77.3135 87.6307 77.582 86.3856 77.7654 85.1377C77.8607 84.484 77.9531 83.8201 77.9646 83.1591C77.9646 83.1285 77.9675 83.098 77.9675 83.0675C77.9733 82.8162 77.8304 82.6346 77.6239 82.5242L78.0094 74.8638C79.7954 74.7156 81.2393 73.257 81.3331 71.4077C81.4328 69.3898 79.8907 67.6726 77.8881 67.5695Z" fill="white"></path>
    <defs>
      <linearGradient id="paint0_linear_1_685" x1="64.3361" y1="42" x2="64.3361" y2="112" gradientUnits="userSpaceOnUse">
        <stop stop-color="#797EF6"></stop>
        <stop offset="1" stop-color="#7DD6F6"></stop>
      </linearGradient>
    </defs>
  </symbol>
  <symbol fill="none" xmlns="http://www.w3.org/2000/svg" viewBox="0 0 67 24" id="icon-nav">
    <path d="M46.8478 18.9904H55.846C56.0688 18.9904 56.2642 18.843 56.3245 18.629L58.3169 11.6562C58.3597 11.5059 58.3304 11.3444 58.2361 11.2195C58.1416 11.095 57.9948 11.0215 57.8381 11.0215H45.698L45.342 9.41943C45.2914 9.19129 45.0891 9.0293 44.8556 9.0293H41.8341C41.5589 9.0293 41.3361 9.25212 41.3361 9.52734C41.3361 9.8027 41.5589 10.0254 41.8341 10.0254H44.4559L46.2544 18.1187C45.7252 18.3487 45.3536 18.8755 45.3536 19.4884C45.3536 20.3123 46.0239 20.9826 46.8478 20.9826H55.846C56.1213 20.9826 56.344 20.7599 56.344 20.4845C56.344 20.2093 56.1213 19.9865 55.846 19.9865H46.8478C46.5735 19.9865 46.3497 19.7632 46.3497 19.4884C46.3497 19.2136 46.5735 18.9904 46.8478 18.9904Z" fill="var(--primary-color)"></path>
    <path d="M46.3497 22.4766C46.3497 23.3005 47.02 23.9707 47.844 23.9707C48.6679 23.9707 49.3381 23.3005 49.3381 22.4766C49.3381 21.6527 48.6679 20.9824 47.844 20.9824C47.02 20.9824 46.3497 21.6527 46.3497 22.4766Z" fill="var(--primary-color)"></path>
    <path d="M53.3557 22.4766C53.3557 23.3005 54.026 23.9707 54.8499 23.9707C55.6738 23.9707 56.344 23.3005 56.344 22.4766C56.344 21.6527 55.6738 20.9824 54.8499 20.9824C54.026 20.9824 53.3557 21.6527 53.3557 22.4766Z" fill="var(--primary-color)"></path>
    <circle cx="58.8361" cy="9.5" r="7.5" fill="#F96969"></circle>
    <path d="M12.0777 18.3276C12.8651 17.2524 13.336 15.9317 13.336 14.5C13.336 10.916 10.42 8 6.83602 8C3.25205 8 0.33606 10.916 0.33606 14.5C0.33606 18.084 3.25208 21 6.83605 21C8.26775 21 9.58854 20.529 10.6637 19.7417L14.922 24L16.3361 22.5859C16.3361 22.5859 12.0777 18.3276 12.0777 18.3276ZM6.83605 19C4.3546 19 2.33607 16.9815 2.33607 14.5C2.33607 12.0186 4.3546 10 6.83605 10C9.31749 10 11.336 12.0186 11.336 14.5C11.336 16.9815 9.31746 19 6.83605 19Z" fill="var(--primary-color)"></path>
    <path d="M58.9361 4.264C59.4961 4.264 59.9761 4.364 60.3761 4.564C60.7761 4.756 61.0761 5.024 61.2761 5.368C61.4841 5.712 61.5881 6.096 61.5881 6.52C61.5881 7.056 61.4361 7.504 61.1321 7.864C60.8361 8.216 60.4161 8.428 59.8721 8.5V8.56C60.4561 8.728 60.9121 8.98 61.2401 9.316C61.5761 9.644 61.7441 10.1 61.7441 10.684C61.7441 11.396 61.5081 11.976 61.0361 12.424C60.5641 12.864 59.8881 13.084 59.0081 13.084C58.1041 13.084 57.3761 12.856 56.8241 12.4C56.2721 11.936 55.9561 11.252 55.8761 10.348H57.2321C57.2801 10.828 57.4521 11.212 57.7481 11.5C58.0441 11.78 58.4441 11.92 58.9481 11.92C59.4201 11.92 59.7801 11.796 60.0281 11.548C60.2841 11.3 60.4121 10.98 60.4121 10.588C60.4121 10.116 60.2281 9.756 59.8601 9.508C59.5001 9.26 58.9761 9.136 58.2881 9.136H57.9641V8.008H58.2881C59.5921 8.024 60.2441 7.58 60.2441 6.676C60.2441 6.284 60.1241 5.976 59.8841 5.752C59.6441 5.528 59.3161 5.416 58.9001 5.416C58.4841 5.416 58.1361 5.544 57.8561 5.8C57.5761 6.048 57.4081 6.412 57.3521 6.892H56.0081C56.0641 6.06 56.3441 5.416 56.8481 4.96C57.3521 4.496 58.0481 4.264 58.9361 4.264Z" fill="white"></path>
  </symbol>
  <symbol fill="none" xmlns="http://www.w3.org/2000/svg" viewBox="0 0 7 10" id="3">
    <path d="M3.93606 0.263999C4.49606 0.263999 4.97606 0.364 5.37606 0.564C5.77606 0.756 6.07606 1.024 6.27606 1.368C6.48406 1.712 6.58806 2.096 6.58806 2.52C6.58806 3.056 6.43606 3.504 6.13206 3.864C5.83606 4.216 5.41606 4.428 4.87206 4.5V4.56C5.45606 4.728 5.91206 4.98 6.24006 5.316C6.57606 5.644 6.74406 6.1 6.74406 6.684C6.74406 7.396 6.50806 7.976 6.03606 8.424C5.56406 8.864 4.88806 9.084 4.00806 9.084C3.10406 9.084 2.37606 8.856 1.82406 8.4C1.27206 7.936 0.95606 7.252 0.87606 6.348H2.23206C2.28006 6.828 2.45206 7.212 2.74806 7.5C3.04406 7.78 3.44406 7.92 3.94806 7.92C4.42006 7.92 4.78006 7.796 5.02806 7.548C5.28406 7.3 5.41206 6.98 5.41206 6.588C5.41206 6.116 5.22806 5.756 4.86006 5.508C4.50006 5.26 3.97606 5.136 3.28806 5.136H2.96406V4.008H3.28806C4.59206 4.024 5.24406 3.58 5.24406 2.676C5.24406 2.284 5.12406 1.976 4.88406 1.752C4.64406 1.528 4.31606 1.416 3.90006 1.416C3.48406 1.416 3.13606 1.544 2.85606 1.8C2.57606 2.048 2.40806 2.412 2.35206 2.892H1.00806C1.06406 2.06 1.34406 1.416 1.84806 0.96C2.35206 0.496 3.04806 0.263999 3.93606 0.263999Z" fill="white"></path>
  </symbol>
  <symbol fill="none" xmlns="http://www.w3.org/2000/svg" viewBox="0 0 29 2" id="after">
    <rect x="28.5811" y="2" width="28.3019" height="2" transform="rotate(180 28.5811 2)" fill="#797EF6"></rect>
  </symbol>
  <symbol fill="none" xmlns="http://www.w3.org/2000/svg" viewBox="0 0 63 62" id="arrow1">
    <g filter="url(#filter0_d_1_579)">
      <circle cx="31.3361" cy="31" r="30" transform="rotate(180 31.3361 31)" fill="white"></circle>
    </g>
    <rect width="9.68905" height="1.95061" transform="matrix(-0.72639 0.687283 -0.644125 -0.76492 25.6306 24.4324)" fill="#797EF6"></rect>
    <rect width="1.93781" height="9.75305" transform="matrix(-0.72639 0.687283 -0.644125 -0.76492 25.0259 35.7279)" fill="#797EF6"></rect>
    <rect x="47.5811" y="31" width="28.3019" height="2" transform="rotate(180 47.5811 31)" fill="#797EF6"></rect>
    <defs>
      <filter id="filter0_d_1_579" x="0.33606" y="0" width="62" height="62" filterUnits="userSpaceOnUse" color-interpolation-filters="sRGB">
        <feFlood flood-opacity="0" result="BackgroundImageFix"></feFlood>
        <feColorMatrix in="SourceAlpha" type="matrix" values="0 0 0 0 0 0 0 0 0 0 0 0 0 0 0 0 0 0 127 0" result="hardAlpha"></feColorMatrix>
        <feOffset></feOffset>
        <feGaussianBlur stdDeviation="0.5"></feGaussianBlur>
        <feColorMatrix type="matrix" values="0 0 0 0 0 0 0 0 0 0 0 0 0 0 0 0 0 0 0.15 0"></feColorMatrix>
        <feBlend mode="normal" in2="BackgroundImageFix" result="effect1_dropShadow_1_579"></feBlend>
        <feBlend mode="normal" in="SourceGraphic" in2="effect1_dropShadow_1_579" result="shape"></feBlend>
      </filter>
    </defs>
  </symbol>
  <symbol fill="none" xmlns="http://www.w3.org/2000/svg" viewBox="0 0 61 60" id="arrow2">
    <circle cx="30.3361" cy="30" r="30" fill="url(#paint0_linear_1_574)"></circle>
    <rect width="9.68905" height="1.95061" transform="matrix(0.72639 -0.687283 0.644125 0.76492 40.2866 35.5676)" fill="white"></rect>
    <rect width="1.93781" height="9.75305" transform="matrix(0.72639 -0.687283 0.644125 0.76492 40.8912 24.2721)" fill="white"></rect>
    <rect x="18.3361" y="29" width="28.3019" height="2" fill="white"></rect>
    <defs>
      <linearGradient id="paint0_linear_1_574" x1="30.3361" y1="0" x2="30.3361" y2="60" gradientUnits="userSpaceOnUse">
        <stop stop-color="#7DD6F6"></stop>
        <stop offset="1" stop-color="#797EF6"></stop>
      </linearGradient>
    </defs>
  </symbol>
  <symbol fill="none" xmlns="http://www.w3.org/2000/svg" viewBox="0 0 29 2" id="before">
    <rect x="28.5811" y="2" width="28.3019" height="2" transform="rotate(180 28.5811 2)" fill="#797EF6"></rect>
  </symbol>
  <symbol fill="none" xmlns="http://www.w3.org/2000/svg" viewBox="0 0 8 15" id="fb">
    <path d="M6.13125 2.49062H7.50063V0.105625C7.26438 0.073125 6.45188 0 5.50563 0C3.53125 0 2.17875 1.24187 2.17875 3.52437V5.625H0V8.29125H2.17875V15H4.85V8.29187H6.94063L7.2725 5.62563H4.84938V3.78875C4.85 3.01812 5.0575 2.49062 6.13125 2.49062Z" fill="#F1F9F4"></path>
  </symbol>
  <symbol fill="none" xmlns="http://www.w3.org/2000/svg" viewBox="0 0 14 14" id="fleche">
    <path d="M7.00002 0L5.76188 1.23814L10.6488 6.12499H0V7.87501H10.6488L5.76188 12.7619L7.00002 14L14 7.00002L7.00002 0Z" fill="#FF9F14"></path>
  </symbol>
  <symbol xmlns="http://www.w3.org/2000/svg" viewBox="0 0 448 512" id="instagram">
    <path d="M224.1 141c-63.6 0-114.9 51.3-114.9 114.9s51.3 114.9 114.9 114.9S339 319.5 339 255.9 287.7 141 224.1 141zm0 189.6c-41.1 0-74.7-33.5-74.7-74.7s33.5-74.7 74.7-74.7 74.7 33.5 74.7 74.7-33.6 74.7-74.7 74.7zm146.4-194.3c0 14.9-12 26.8-26.8 26.8-14.9 0-26.8-12-26.8-26.8s12-26.8 26.8-26.8 26.8 12 26.8 26.8zm76.1 27.2c-1.7-35.9-9.9-67.7-36.2-93.9-26.2-26.2-58-34.4-93.9-36.2-37-2.1-147.9-2.1-184.9 0-35.8 1.7-67.6 9.9-93.9 36.1s-34.4 58-36.2 93.9c-2.1 37-2.1 147.9 0 184.9 1.7 35.9 9.9 67.7 36.2 93.9s58 34.4 93.9 36.2c37 2.1 147.9 2.1 184.9 0 35.9-1.7 67.7-9.9 93.9-36.2 26.2-26.2 34.4-58 36.2-93.9 2.1-37 2.1-147.8 0-184.8zM398.8 388c-7.8 19.6-22.9 34.7-42.6 42.6-29.5 11.7-99.5 9-132.1 9s-102.7 2.6-132.1-9c-19.6-7.8-34.7-22.9-42.6-42.6-11.7-29.5-9-99.5-9-132.1s-2.6-102.7 9-132.1c7.8-19.6 22.9-34.7 42.6-42.6 29.5-11.7 99.5-9 132.1-9s102.7-2.6 132.1 9c19.6 7.8 34.7 22.9 42.6 42.6 11.7 29.5 9 99.5 9 132.1s2.7 102.7-9 132.1z"></path>
  </symbol>
  <symbol fill="none" xmlns="http://www.w3.org/2000/svg" viewBox="0 0 56 62" id="instant-medicine-icons">
    <path d="M14.403 27.7146C17.1438 27.7146 19.8229 26.9019 22.1017 25.3793C24.3806 23.8566 26.1567 21.6924 27.2055 19.1603C28.2544 16.6282 28.5288 13.8419 27.9941 11.1539C27.4594 8.46584 26.1396 5.9967 24.2016 4.05872C22.2637 2.12074 19.7945 0.800958 17.1065 0.266271C14.4184 -0.268417 11.6322 0.0060041 9.10007 1.05483C6.56797 2.10366 4.40376 3.87979 2.88109 6.15861C1.35843 8.43743 0.545715 11.1166 0.545715 13.8573C0.549907 17.5312 2.01122 21.0534 4.60906 23.6513C7.2069 26.2491 10.7291 27.7104 14.403 27.7146ZM14.403 25.0751C11.8849 25.0759 9.44081 24.2236 7.4691 22.6574L23.2031 6.92338C24.5103 8.57501 25.3252 10.5617 25.5545 12.6555C25.7837 14.7494 25.4179 16.8654 24.499 18.7607C23.5801 20.656 22.1455 22.2538 20.3597 23.3707C18.5739 24.4877 16.5093 25.0784 14.403 25.0751ZM14.403 2.63949C16.9211 2.63929 19.365 3.49146 21.337 5.05727L5.60298 20.7913C4.2958 19.1396 3.48083 17.1529 3.25161 15.0591C3.02238 12.9653 3.38819 10.8493 4.30706 8.95395C5.22592 7.05863 6.66059 5.46081 8.44638 4.34389C10.2322 3.22698 12.2967 2.63624 14.403 2.63949Z" fill="white"></path>
    <path d="M17.3158 34.06C16.4579 33.2021 15.4394 32.5215 14.3185 32.0573C13.1976 31.593 11.9963 31.354 10.783 31.354C8.33277 31.354 5.98288 32.3274 4.25029 34.06C3.3924 34.9178 2.71188 35.9363 2.24759 37.0572C1.78331 38.1781 1.54434 39.3794 1.54434 40.5927C1.54434 43.0429 2.5177 45.3928 4.25029 47.1254L15.4496 58.3235C17.1822 60.056 19.5321 61.0294 21.9824 61.0294C24.4326 61.0294 26.7825 60.056 28.5151 58.3235C30.2477 56.5909 31.2211 54.241 31.2211 51.7907C31.2211 49.3405 30.2477 46.9906 28.5151 45.258L17.3158 34.06ZM6.11641 35.9261C7.35516 34.6905 9.03338 33.9966 10.783 33.9966C12.5327 33.9966 14.2109 34.6905 15.4496 35.9261L20.1149 40.5914L10.783 49.9246L6.11641 45.258C4.88087 44.0195 4.187 42.3415 4.187 40.592C4.187 38.8426 4.88087 37.1646 6.11641 35.9261ZM26.6477 56.456C25.4102 57.6935 23.7318 58.3887 21.9817 58.3887C20.2316 58.3887 18.5533 57.6935 17.3158 56.456L12.6491 51.7907L21.9811 42.4575L26.6477 47.1241C27.8832 48.3626 28.5771 50.0406 28.5771 51.7901C28.5771 53.5395 27.8832 55.2175 26.6477 56.456Z" fill="white"></path>
    <path d="M50.2552 3.11619C47.1723 1.80569 43.3926 2.86016 39.5904 6.08694C35.6281 9.6856 32.5309 14.1336 30.5303 19.0983C25.5984 30.6711 26.5328 41.7834 32.6604 44.3952C36.2989 45.9419 40.2846 44.0072 43.3253 41.4244C47.287 37.8256 50.3838 33.3776 52.384 28.4131C57.3159 16.8402 56.3815 5.72797 50.2552 3.11619ZM41.6162 39.4092C38.6626 41.9167 35.7724 42.8537 33.6977 41.9642C29.2805 40.0809 28.8001 30.8163 32.473 21.3577L49.4106 28.5767C47.6033 32.6963 44.9473 36.3884 41.6162 39.4118V39.4092ZM50.4439 26.1484L33.5064 18.9294C35.3135 14.8115 37.969 11.1212 41.2994 8.09955C43.4374 6.28094 46.6404 4.44254 49.2179 5.54452C53.6351 7.4278 54.1168 16.6924 50.4439 26.151V26.1484Z" fill="white"></path>
  </symbol>
  <symbol fill="none" xmlns="http://www.w3.org/2000/svg" viewBox="0 0 56 47" id="kidneys-icon">
    <path d="M18.0956 13.4785C19.3938 11.8412 20.1115 9.81921 20.1361 7.72987C20.1607 6.70437 19.9762 5.6846 19.5935 4.73283C19.2109 3.78106 18.6383 2.91726 17.9107 2.19418C17.1831 1.4711 16.3158 0.903914 15.3616 0.527257C14.4075 0.1506 13.3866 -0.0276237 12.3613 0.00346829C6.81396 0.00346829 0.33606 3.74897 0.33606 14.3035C0.33606 24.858 6.81396 28.6035 12.3613 28.6035C13.3866 28.6347 14.4076 28.4566 15.3618 28.08C16.316 27.7034 17.1834 27.1362 17.9111 26.4131C18.6387 25.69 19.2113 24.8261 19.5939 23.8743C19.9764 22.9225 20.1609 21.9026 20.1361 20.8771C20.1218 19.1324 19.6134 17.4276 18.6698 15.9601C20.0761 16.5274 21.281 17.5017 22.1302 18.758C22.9793 20.0144 23.434 21.4957 23.4361 23.0122V45.1035C23.4361 45.3952 23.552 45.675 23.7582 45.8813C23.9645 46.0876 24.2443 46.2035 24.5361 46.2035C24.8278 46.2035 25.1076 46.0876 25.3139 45.8813C25.5202 45.675 25.6361 45.3952 25.6361 45.1035V23.0122C25.6322 20.8072 24.8863 18.6676 23.5185 16.9382C22.1506 15.2087 20.2404 13.9901 18.0956 13.4785ZM12.3613 26.4035C7.61146 26.4035 2.53606 23.2245 2.53606 14.3035C2.53606 5.38247 7.61146 2.20347 12.3613 2.20347C13.0974 2.17296 13.8319 2.29466 14.5189 2.56096C15.2058 2.82725 15.8304 3.23241 16.3537 3.75111C16.8769 4.2698 17.2875 4.89087 17.5598 5.57547C17.832 6.26008 17.9601 6.9935 17.9361 7.72987C17.9024 8.84021 17.6295 9.93019 17.1359 10.9254C16.6423 11.9205 15.9397 12.7974 15.0761 13.4961C14.9648 13.5991 14.8759 13.7239 14.8152 13.8629C14.7545 14.0018 14.7231 14.1518 14.7231 14.3035C14.7231 14.4551 14.7545 14.6051 14.8152 14.7441C14.8759 14.883 14.9648 15.0079 15.0761 15.1109C15.919 15.8277 16.6072 16.7086 17.0989 17.6999C17.5906 18.6912 17.8754 19.7722 17.9361 20.8771C17.9603 21.6135 17.8323 22.347 17.5601 23.0317C17.2879 23.7163 16.8773 24.3375 16.354 24.8562C15.8308 25.3749 15.2061 25.7801 14.519 26.0463C13.832 26.3126 13.0974 26.4341 12.3613 26.4035Z" fill="white"></path>
    <path d="M43.3108 0.00350309C42.2854 -0.0277481 41.2645 0.150367 40.3103 0.526967C39.356 0.903567 38.4886 1.47075 37.761 2.19386C37.0333 2.91697 36.4608 3.78083 36.0782 4.73268C35.6957 5.68452 35.5112 6.70436 35.536 7.7299C35.5603 9.81948 36.2785 11.8417 37.5776 13.4785C35.4326 13.9899 33.5221 15.2085 32.154 16.9379C30.786 18.6674 30.0399 20.8071 30.036 23.0122V45.1035C30.036 45.3952 30.1519 45.675 30.3582 45.8813C30.5645 46.0876 30.8443 46.2035 31.136 46.2035C31.4277 46.2035 31.7075 46.0876 31.9138 45.8813C32.1201 45.675 32.236 45.3952 32.236 45.1035V23.0122C32.2381 21.4959 32.6927 20.0148 33.5416 18.7584C34.3906 17.5021 35.5952 16.5277 37.0012 15.9601C36.0584 17.4279 35.5505 19.1327 35.536 20.8771C35.5113 21.9026 35.6959 22.9224 36.0785 23.8741C36.4611 24.8259 37.0337 25.6897 37.7613 26.4128C38.4889 27.1359 39.3563 27.7031 40.3104 28.0797C41.2646 28.4564 42.2855 28.6346 43.3108 28.6035C48.8581 28.6035 55.336 24.8635 55.336 14.3035C55.336 3.7435 48.8581 0.00350309 43.3108 0.00350309ZM43.3108 26.4035C42.5747 26.434 41.8402 26.3123 41.1532 26.046C40.4663 25.7797 39.8416 25.3746 39.3184 24.8559C38.7952 24.3372 38.3846 23.7161 38.1123 23.0315C37.84 22.3469 37.7119 21.6135 37.736 20.8771C37.7697 19.7668 38.0426 18.6768 38.5362 17.6816C39.0298 16.6865 39.7324 15.8096 40.596 15.1109C40.7073 15.0079 40.7961 14.883 40.8569 14.7441C40.9176 14.6051 40.9489 14.4551 40.9489 14.3035C40.9489 14.1519 40.9176 14.0019 40.8569 13.8629C40.7961 13.724 40.7073 13.5991 40.596 13.4961C39.7531 12.7792 39.0649 11.8983 38.5732 10.907C38.0815 9.91575 37.7967 8.83477 37.736 7.7299C37.7118 6.99349 37.8397 6.26 38.112 5.57532C38.3842 4.89064 38.7948 4.2695 39.318 3.75077C39.8413 3.23205 40.466 2.82689 41.153 2.56065C41.8401 2.29442 42.5746 2.17283 43.3108 2.2035C48.0606 2.2035 53.136 5.3825 53.136 14.3035C53.136 23.2245 48.0606 26.4035 43.3108 26.4035Z" fill="white"></path>
    <path d="M13.5361 11.0036C13.0481 10.9479 12.5813 10.773 12.1769 10.4943C11.7725 10.2156 11.4429 9.84154 11.2173 9.40527C11.086 9.1446 10.8566 8.94676 10.5794 8.85527C10.3022 8.76378 10.0001 8.78614 9.73944 8.91742C9.47877 9.0487 9.28093 9.27816 9.18944 9.55531C9.09795 9.83246 9.1203 10.1346 9.25159 10.3953C9.66022 11.1953 10.2702 11.875 11.0216 12.3674C11.7729 12.8598 12.6395 13.148 13.5361 13.2036C13.8278 13.2036 14.1076 13.0877 14.3139 12.8814C14.5202 12.6751 14.6361 12.3953 14.6361 12.1036C14.6361 11.8118 14.5202 11.532 14.3139 11.3258C14.1076 11.1195 13.8278 11.0036 13.5361 11.0036Z" fill="white"></path>
    <path d="M13.5361 15.4036C12.6395 15.4591 11.7729 15.7473 11.0215 16.2397C10.2702 16.7322 9.66022 17.4119 9.25159 18.2119C9.18658 18.3409 9.14764 18.4815 9.13697 18.6257C9.12631 18.7698 9.14414 18.9146 9.18944 19.0518C9.23474 19.1891 9.30663 19.316 9.40099 19.4255C9.49536 19.5349 9.61037 19.6247 9.73944 19.6897C9.86851 19.7547 10.0091 19.7937 10.1532 19.8043C10.2974 19.815 10.4422 19.7972 10.5794 19.7519C10.7166 19.7066 10.8436 19.6347 10.953 19.5403C11.0625 19.4459 11.1523 19.3309 11.2173 19.2019C11.4431 18.7658 11.7728 18.3919 12.1771 18.1132C12.5815 17.8345 13.0482 17.6595 13.5361 17.6036C13.8278 17.6036 14.1076 17.4877 14.3139 17.2814C14.5202 17.0751 14.6361 16.7953 14.6361 16.5036C14.6361 16.2118 14.5202 15.932 14.3139 15.7257C14.1076 15.5195 13.8278 15.4036 13.5361 15.4036Z" fill="white"></path>
    <path d="M42.136 13.2036C43.0336 13.149 43.9013 12.8612 44.6537 12.3687C45.406 11.8762 46.0169 11.196 46.426 10.3953C46.491 10.2662 46.53 10.1256 46.5406 9.98147C46.5513 9.83735 46.5335 9.69254 46.4882 9.55531C46.4429 9.41808 46.371 9.29111 46.2766 9.18166C46.1822 9.07221 46.0672 8.98242 45.9382 8.91742C45.6775 8.78614 45.3753 8.76378 45.0982 8.85527C44.821 8.94676 44.5916 9.1446 44.4603 9.40527C44.2339 9.84207 43.9035 10.2164 43.4981 10.4952C43.0927 10.7739 42.6249 10.9485 42.136 11.0036C41.8443 11.0036 41.5645 11.1195 41.3582 11.3258C41.1519 11.532 41.036 11.8118 41.036 12.1036C41.036 12.3953 41.1519 12.6751 41.3582 12.8814C41.5645 13.0877 41.8443 13.2036 42.136 13.2036Z" fill="white"></path>
    <path d="M42.136 15.4036C41.8443 15.4036 41.5645 15.5195 41.3582 15.7257C41.1519 15.932 41.036 16.2118 41.036 16.5036C41.036 16.7953 41.1519 17.0751 41.3582 17.2814C41.5645 17.4877 41.8443 17.6036 42.136 17.6036C42.624 17.6592 43.0908 17.8341 43.4952 18.1128C43.8996 18.3916 44.2292 18.7656 44.4548 19.2019C44.5861 19.4625 44.8155 19.6604 45.0927 19.7519C45.3698 19.8434 45.672 19.821 45.9327 19.6897C46.1933 19.5584 46.3912 19.329 46.4827 19.0518C46.5741 18.7747 46.5518 18.4725 46.4205 18.2119C46.0119 17.4119 45.4018 16.7322 44.6505 16.2397C43.8992 15.7473 43.0326 15.4591 42.136 15.4036Z" fill="white"></path>
  </symbol>
  <symbol fill="none" xmlns="http://www.w3.org/2000/svg" viewBox="0 0 110 110" id="logo-info1">
    <g filter="url(#filter0_d_1_633)">
      <circle cx="55" cy="35" r="35" fill="url(#paint0_linear_1_633)"></circle>
    </g>
    <defs>
      <filter id="filter0_d_1_633" x="0" y="0" width="110" height="110" filterUnits="userSpaceOnUse" color-interpolation-filters="sRGB">
        <feFlood flood-opacity="0" result="BackgroundImageFix"></feFlood>
        <feColorMatrix in="SourceAlpha" type="matrix" values="0 0 0 0 0 0 0 0 0 0 0 0 0 0 0 0 0 0 127 0" result="hardAlpha"></feColorMatrix>
        <feOffset dy="20"></feOffset>
        <feGaussianBlur stdDeviation="10"></feGaussianBlur>
        <feColorMatrix type="matrix" values="0 0 0 0 0.47451 0 0 0 0 0.494118 0 0 0 0 0.964706 0 0 0 0.2 0"></feColorMatrix>
        <feBlend mode="normal" in2="BackgroundImageFix" result="effect1_dropShadow_1_633"></feBlend>
        <feBlend mode="normal" in="SourceGraphic" in2="effect1_dropShadow_1_633" result="shape"></feBlend>
      </filter>
      <linearGradient id="paint0_linear_1_633" x1="55" y1="0" x2="55" y2="70" gradientUnits="userSpaceOnUse">
        <stop stop-color="#7DD6F6"></stop>
        <stop offset="1" stop-color="#797EF6"></stop>
      </linearGradient>
    </defs>
  </symbol>
  <symbol fill="none" xmlns="http://www.w3.org/2000/svg" viewBox="0 0 110 110" id="logo-info2">
    <g filter="url(#filter0_d_1_642)">
      <circle cx="55" cy="35" r="35" fill="url(#paint0_linear_1_642)"></circle>
    </g>
    <defs>
      <filter id="filter0_d_1_642" x="0" y="0" width="110" height="110" filterUnits="userSpaceOnUse" color-interpolation-filters="sRGB">
        <feFlood flood-opacity="0" result="BackgroundImageFix"></feFlood>
        <feColorMatrix in="SourceAlpha" type="matrix" values="0 0 0 0 0 0 0 0 0 0 0 0 0 0 0 0 0 0 127 0" result="hardAlpha"></feColorMatrix>
        <feOffset dy="20"></feOffset>
        <feGaussianBlur stdDeviation="10"></feGaussianBlur>
        <feColorMatrix type="matrix" values="0 0 0 0 1 0 0 0 0 0.623529 0 0 0 0 0.0784314 0 0 0 0.2 0"></feColorMatrix>
        <feBlend mode="normal" in2="BackgroundImageFix" result="effect1_dropShadow_1_642"></feBlend>
        <feBlend mode="normal" in="SourceGraphic" in2="effect1_dropShadow_1_642" result="shape"></feBlend>
      </filter>
      <linearGradient id="paint0_linear_1_642" x1="55" y1="0" x2="55" y2="70" gradientUnits="userSpaceOnUse">
        <stop stop-color="#FF9F14"></stop>
        <stop offset="1" stop-color="#FC7575"></stop>
      </linearGradient>
    </defs>
  </symbol>
  <symbol fill="none" xmlns="http://www.w3.org/2000/svg" viewBox="0 0 110 110" id="logo-info3">
    <g filter="url(#filter0_d_1_661)">
      <circle cx="55" cy="35" r="35" fill="url(#paint0_linear_1_661)"></circle>
    </g>
    <defs>
      <filter id="filter0_d_1_661" x="0" y="0" width="110" height="110" filterUnits="userSpaceOnUse" color-interpolation-filters="sRGB">
        <feFlood flood-opacity="0" result="BackgroundImageFix"></feFlood>
        <feColorMatrix in="SourceAlpha" type="matrix" values="0 0 0 0 0 0 0 0 0 0 0 0 0 0 0 0 0 0 127 0" result="hardAlpha"></feColorMatrix>
        <feOffset dy="20"></feOffset>
        <feGaussianBlur stdDeviation="10"></feGaussianBlur>
        <feColorMatrix type="matrix" values="0 0 0 0 0.149983 0 0 0 0 0.679167 0 0 0 0 0.555585 0 0 0 0.2 0"></feColorMatrix>
        <feBlend mode="normal" in2="BackgroundImageFix" result="effect1_dropShadow_1_661"></feBlend>
        <feBlend mode="normal" in="SourceGraphic" in2="effect1_dropShadow_1_661" result="shape"></feBlend>
      </filter>
      <linearGradient id="paint0_linear_1_661" x1="55" y1="0" x2="55" y2="70" gradientUnits="userSpaceOnUse">
        <stop stop-color="#26AD8E"></stop>
        <stop offset="1" stop-color="#5BC199"></stop>
      </linearGradient>
    </defs>
  </symbol>
  <symbol fill="none" xmlns="http://www.w3.org/2000/svg" viewBox="0 0 110 110" id="logo-info4">
    <g filter="url(#filter0_d_1_661)">
      <circle cx="55" cy="35" r="35" fill="url(#paint0_linear_1_661)"></circle>
    </g>
    <defs>
      <filter id="filter0_d_1_661" x="0" y="0" width="110" height="110" filterUnits="userSpaceOnUse" color-interpolation-filters="sRGB">
        <feFlood flood-opacity="0" result="BackgroundImageFix"></feFlood>
        <feColorMatrix in="SourceAlpha" type="matrix" values="0 0 0 0 0 0 0 0 0 0 0 0 0 0 0 0 0 0 127 0" result="hardAlpha"></feColorMatrix>
        <feOffset dy="20"></feOffset>
        <feGaussianBlur stdDeviation="10"></feGaussianBlur>
        <feColorMatrix type="matrix" values="0 0 0 0 0.149983 0 0 0 0 0.679167 0 0 0 0 0.555585 0 0 0 0.2 0"></feColorMatrix>
        <feBlend mode="normal" in2="BackgroundImageFix" result="effect1_dropShadow_1_661"></feBlend>
        <feBlend mode="normal" in="SourceGraphic" in2="effect1_dropShadow_1_661" result="shape"></feBlend>
      </filter>
      <linearGradient id="paint0_linear_1_661" x1="55" y1="0" x2="55" y2="70" gradientUnits="userSpaceOnUse">
        <stop stop-color="#26AD8E"></stop>
        <stop offset="1" stop-color="#5BC199"></stop>
      </linearGradient>
    </defs>
  </symbol>
  <symbol fill="none" xmlns="http://www.w3.org/2000/svg" viewBox="0 0 35 32" id="logo-info11">
    <path d="M24.7184 0.0044307C22.0665 -0.0699839 19.4854 0.866712 17.4984 2.62466C15.513 0.864183 12.9309 -0.0728884 10.2784 0.0044307C1.10063 0.221731 -3.57974 11.3622 3.26032 18.1925L16.018 30.9305C16.4122 31.3235 16.946 31.5441 17.5026 31.5441C18.0592 31.5441 18.5931 31.3235 18.9873 30.9305L31.7449 18.1925C38.5766 11.3636 33.899 0.221731 24.7184 0.0044307ZM30.7468 17.2006L17.9933 29.9387C17.862 30.0692 17.6843 30.1425 17.4991 30.1425C17.3139 30.1425 17.1363 30.0692 17.0049 29.9387L4.25079 17.2006C-1.50487 11.4527 2.14788 1.59984 10.3128 1.40567C11.5516 1.37152 12.7842 1.59128 13.9349 2.05142C15.0856 2.51157 16.1299 3.20236 17.0035 4.08127C17.135 4.21268 17.3133 4.28651 17.4991 4.28651C17.685 4.28651 17.8633 4.21268 17.9947 4.08127C18.8679 3.20149 19.912 2.50993 21.0628 2.04927C22.2135 1.58861 23.4464 1.36862 24.6855 1.40287C32.8511 1.59984 36.5017 11.4541 30.7475 17.2006H30.7468Z" fill="white"></path>
  </symbol>
  <symbol fill="none" xmlns="http://www.w3.org/2000/svg" viewBox="0 0 30 36" id="logo-info22">
    <path d="M29.8878 30.5939L28.263 24.1347C28.088 23.4542 27.7269 22.8359 27.2203 22.3491C26.7137 21.8622 26.0815 21.526 25.3946 21.3781L18.5101 19.9116L18.2333 17.8488C19.357 16.8698 20.2537 15.6577 20.8612 14.2968C21.4686 12.936 21.7721 11.4591 21.7506 9.96893V6.75097C21.7506 4.9605 21.0393 3.24336 19.7733 1.97731C18.5072 0.711261 16.7901 0 14.9996 0C13.2092 0 11.492 0.711261 10.226 1.97731C8.95992 3.24336 8.24866 4.9605 8.24866 6.75097V9.96893C8.22717 11.4581 8.53028 12.934 9.13691 14.2942C9.74354 15.6543 10.6391 16.866 11.7614 17.8451L11.4524 19.9206L4.60539 21.3781C3.91849 21.526 3.28633 21.8622 2.77971 22.3491C2.2731 22.8359 1.91204 23.4542 1.73697 24.1347L0.112241 30.5939C-0.0265527 31.1484 -0.0367657 31.7273 0.0823826 32.2863C0.201531 32.8454 0.446888 33.3698 0.799708 33.8195C1.15253 34.2693 1.60348 34.6324 2.1181 34.8812C2.63273 35.13 3.19741 35.2579 3.76902 35.2551H26.231C26.8026 35.2579 27.3673 35.13 27.8819 34.8812C28.3965 34.6324 28.8475 34.2693 29.2003 33.8195C29.5531 33.3698 29.7985 32.8454 29.9176 32.2863C30.0368 31.7273 30.0266 31.1484 29.8878 30.5939ZM13.8137 25.1406C13.9488 25.328 14.1253 25.4817 14.3296 25.5897C14.5338 25.6977 14.7602 25.757 14.9911 25.7631C15.2221 25.7692 15.4513 25.7219 15.661 25.6248C15.8706 25.5278 16.055 25.3836 16.1998 25.2036C18.3961 22.441 18.3954 22.5032 18.5326 22.2429L17.8283 33.7548H12.1717L11.4381 21.8004C11.5574 22.0472 11.4621 21.8596 13.8137 25.1406ZM11.2588 15.0659C12.4046 14.4343 13.6917 14.103 15 14.103C16.3083 14.103 17.5954 14.4343 18.7412 15.0659C17.8567 16.4275 16.5382 17.4504 14.9996 17.9688C13.4613 17.4501 12.1432 16.4272 11.2588 15.0659ZM9.74887 9.96893V9.82641C9.86739 9.83166 9.98441 9.83691 10.1239 9.83691C12.3741 9.81632 14.5622 9.09649 16.3851 7.77711C17.4107 8.84876 18.7773 9.53006 20.2504 9.70414V9.96893C20.2533 11.2646 19.9874 12.5468 19.4695 13.7345C18.1011 12.9786 16.5633 12.5821 15 12.5821C13.4367 12.5821 11.8989 12.9786 10.5305 13.7345C10.0126 12.5468 9.74643 11.2646 9.74887 9.96893ZM9.74887 6.75097C9.74887 5.35838 10.3021 4.02283 11.2868 3.03812C12.2715 2.05342 13.607 1.50021 14.9996 1.50021C16.3922 1.50021 17.7278 2.05342 18.7125 3.03812C19.6972 4.02283 20.2504 5.35838 20.2504 6.75097V8.19567C19.0058 8.00575 17.8842 7.33815 17.1239 6.33466C17.0662 6.24823 16.9912 6.17474 16.9036 6.11883C16.816 6.06292 16.7178 6.02582 16.6151 6.00989C16.5124 5.99395 16.4076 5.99952 16.3071 6.02624C16.2067 6.05297 16.1129 6.10026 16.0318 6.16513C14.2742 7.63342 12.0379 8.40394 9.74887 8.32994V6.75097ZM14.7941 19.4735C14.9286 19.5126 15.0714 19.5126 15.2059 19.4735C15.7761 19.3078 16.3262 19.0796 16.8464 18.7932L17.2147 21.5348L15.0311 24.2637L12.7868 21.1485L13.1386 18.7842C13.663 19.0751 14.2182 19.3063 14.7941 19.4735ZM1.5667 30.9599L3.19218 24.5008C3.2977 24.0919 3.51499 23.7204 3.8197 23.428C4.12441 23.1356 4.50451 22.9338 4.91743 22.8453L9.9334 21.7771L10.6685 33.7548H3.76752C3.42447 33.7566 3.08554 33.6801 2.77653 33.5311C2.46752 33.3821 2.19659 33.1645 1.98436 32.895C1.77212 32.6255 1.62419 32.3111 1.55181 31.9758C1.47943 31.6404 1.48453 31.293 1.5667 30.9599ZM26.231 33.7548H19.33L20.0651 21.7771L25.0803 22.8453C25.4932 22.9339 25.8733 23.1357 26.178 23.4281C26.4827 23.7205 26.7 24.0919 26.8056 24.5008L28.431 30.9599C28.5132 31.2929 28.5183 31.6403 28.446 31.9756C28.3736 32.3109 28.2258 32.6252 28.0136 32.8947C27.8015 33.1642 27.5306 33.3818 27.2217 33.5308C26.9128 33.6799 26.574 33.7565 26.231 33.7548Z" fill="white"></path>
  </symbol>
  <symbol fill="none" xmlns="http://www.w3.org/2000/svg" viewBox="0 0 25 34" id="logo-info33">
    <path d="M22.7941 2.20588H17.6471C17.6471 1.62085 17.4147 1.05977 17.001 0.646088C16.5873 0.232405 16.0262 0 15.4412 0H9.55882C8.97379 0 8.41271 0.232405 7.99903 0.646088C7.58535 1.05977 7.35294 1.62085 7.35294 2.20588H2.20588C1.62085 2.20588 1.05977 2.43829 0.646088 2.85197C0.232405 3.26565 0 3.82673 0 4.41176V31.6176C0 32.2027 0.232405 32.7638 0.646088 33.1774C1.05977 33.5911 1.62085 33.8235 2.20588 33.8235H22.7941C23.3792 33.8235 23.9402 33.5911 24.3539 33.1774C24.7676 32.7638 25 32.2027 25 31.6176V4.41176C25 3.82673 24.7676 3.26565 24.3539 2.85197C23.9402 2.43829 23.3792 2.20588 22.7941 2.20588ZM8.82353 2.20588C8.82353 2.01087 8.901 1.82385 9.03889 1.68595C9.17679 1.54806 9.36381 1.47059 9.55882 1.47059H15.4412C15.6362 1.47059 15.8232 1.54806 15.9611 1.68595C16.099 1.82385 16.1765 2.01087 16.1765 2.20588V3.67647C16.1765 3.87148 16.099 4.05851 15.9611 4.1964C15.8232 4.3343 15.6362 4.41176 15.4412 4.41176H9.55882C9.36381 4.41176 9.17679 4.3343 9.03889 4.1964C8.901 4.05851 8.82353 3.87148 8.82353 3.67647V2.20588ZM23.5294 31.6176C23.5294 31.8127 23.4519 31.9997 23.314 32.1376C23.1762 32.2755 22.9891 32.3529 22.7941 32.3529H2.20588C2.01087 32.3529 1.82385 32.2755 1.68595 32.1376C1.54806 31.9997 1.47059 31.8127 1.47059 31.6176V4.41176C1.47059 4.21675 1.54806 4.02973 1.68595 3.89183C1.82385 3.75394 2.01087 3.67647 2.20588 3.67647H7.35294C7.35294 4.26151 7.58535 4.82258 7.99903 5.23627C8.41271 5.64995 8.97379 5.88235 9.55882 5.88235H15.4412C16.0262 5.88235 16.5873 5.64995 17.001 5.23627C17.4147 4.82258 17.6471 4.26151 17.6471 3.67647H22.7941C22.9891 3.67647 23.1762 3.75394 23.314 3.89183C23.4519 4.02973 23.5294 4.21675 23.5294 4.41176V31.6176Z" fill="white"></path>
  </symbol>
  <symbol fill="none" xmlns="http://www.w3.org/2000/svg" viewBox="0 0 25 34" id="logo-info44">
    <path d="M22.7941 2.20588H17.6471C17.6471 1.62085 17.4147 1.05977 17.001 0.646088C16.5873 0.232405 16.0262 0 15.4412 0H9.55882C8.97379 0 8.41271 0.232405 7.99903 0.646088C7.58535 1.05977 7.35294 1.62085 7.35294 2.20588H2.20588C1.62085 2.20588 1.05977 2.43829 0.646088 2.85197C0.232405 3.26565 0 3.82673 0 4.41176V31.6176C0 32.2027 0.232405 32.7638 0.646088 33.1774C1.05977 33.5911 1.62085 33.8235 2.20588 33.8235H22.7941C23.3792 33.8235 23.9402 33.5911 24.3539 33.1774C24.7676 32.7638 25 32.2027 25 31.6176V4.41176C25 3.82673 24.7676 3.26565 24.3539 2.85197C23.9402 2.43829 23.3792 2.20588 22.7941 2.20588ZM8.82353 2.20588C8.82353 2.01087 8.901 1.82385 9.03889 1.68595C9.17679 1.54806 9.36381 1.47059 9.55882 1.47059H15.4412C15.6362 1.47059 15.8232 1.54806 15.9611 1.68595C16.099 1.82385 16.1765 2.01087 16.1765 2.20588V3.67647C16.1765 3.87148 16.099 4.05851 15.9611 4.1964C15.8232 4.3343 15.6362 4.41176 15.4412 4.41176H9.55882C9.36381 4.41176 9.17679 4.3343 9.03889 4.1964C8.901 4.05851 8.82353 3.87148 8.82353 3.67647V2.20588ZM23.5294 31.6176C23.5294 31.8127 23.4519 31.9997 23.314 32.1376C23.1762 32.2755 22.9891 32.3529 22.7941 32.3529H2.20588C2.01087 32.3529 1.82385 32.2755 1.68595 32.1376C1.54806 31.9997 1.47059 31.8127 1.47059 31.6176V4.41176C1.47059 4.21675 1.54806 4.02973 1.68595 3.89183C1.82385 3.75394 2.01087 3.67647 2.20588 3.67647H7.35294C7.35294 4.26151 7.58535 4.82258 7.99903 5.23627C8.41271 5.64995 8.97379 5.88235 9.55882 5.88235H15.4412C16.0262 5.88235 16.5873 5.64995 17.001 5.23627C17.4147 4.82258 17.6471 4.26151 17.6471 3.67647H22.7941C22.9891 3.67647 23.1762 3.75394 23.314 3.89183C23.4519 4.02973 23.5294 4.21675 23.5294 4.41176V31.6176Z" fill="white"></path>
  </symbol>
  <symbol fill="none" xmlns="http://www.w3.org/2000/svg" viewBox="0 0 15 15" id="logo-info111">
    <path d="M13.8078 4.91749H10.303V1.41264C10.303 1.22673 10.2291 1.04844 10.0977 0.916979C9.96619 0.785522 9.7879 0.71167 9.60199 0.71167H5.39617C5.21026 0.71167 5.03197 0.785522 4.90051 0.916979C4.76905 1.04844 4.6952 1.22673 4.6952 1.41264V4.91749H1.19035C1.00444 4.91749 0.826147 4.99134 0.694689 5.1228C0.563232 5.25426 0.48938 5.43255 0.48938 5.61846V9.82428C0.48938 10.0102 0.563232 10.1885 0.694689 10.3199C0.826147 10.4514 1.00444 10.5253 1.19035 10.5253H4.6952V14.0301C4.6952 14.216 4.76905 14.3943 4.90051 14.5258C5.03197 14.6572 5.21026 14.7311 5.39617 14.7311H9.60199C9.7879 14.7311 9.96619 14.6572 10.0977 14.5258C10.2291 14.3943 10.303 14.216 10.303 14.0301V10.5253H13.8078C13.9937 10.5253 14.172 10.4514 14.3035 10.3199C14.4349 10.1885 14.5088 10.0102 14.5088 9.82428V5.61846C14.5088 5.43255 14.4349 5.25426 14.3035 5.1228C14.172 4.99134 13.9937 4.91749 13.8078 4.91749ZM13.1068 9.12331H9.60199C9.41608 9.12331 9.23779 9.19716 9.10633 9.32862C8.97487 9.46008 8.90102 9.63837 8.90102 9.82428V13.3291H6.09714V9.82428C6.09714 9.63837 6.02329 9.46008 5.89183 9.32862C5.76037 9.19716 5.58208 9.12331 5.39617 9.12331H1.89132V6.31943H5.39617C5.58208 6.31943 5.76037 6.24558 5.89183 6.11412C6.02329 5.98266 6.09714 5.80437 6.09714 5.61846V2.11361H8.90102V5.61846C8.90102 5.80437 8.97487 5.98266 9.10633 6.11412C9.23779 6.24558 9.41608 6.31943 9.60199 6.31943H13.1068V9.12331Z" fill="white"></path>
  </symbol>
  <symbol fill="none" xmlns="http://www.w3.org/2000/svg" viewBox="0 0 17 16" id="loupe">
    <path d="M12.0777 10.3276C12.8651 9.25241 13.336 7.93174 13.336 6.50002C13.336 2.91603 10.42 0 6.83602 0C3.25205 0 0.33606 2.91603 0.33606 6.50002C0.33606 10.084 3.25208 13 6.83605 13C8.26775 13 9.58854 12.529 10.6637 11.7417L14.922 16L16.3361 14.5859C16.3361 14.5859 12.0777 10.3276 12.0777 10.3276ZM6.83605 11C4.3546 11 2.33607 8.98148 2.33607 6.50002C2.33607 4.01857 4.3546 2.00002 6.83605 2.00002C9.31749 2.00002 11.336 4.01857 11.336 6.50002C11.336 8.98148 9.31746 11 6.83605 11Z" fill="var(--primary-color)"></path>
  </symbol>
  <symbol fill="none" xmlns="http://www.w3.org/2000/svg" viewBox="0 0 18 12" id="panier">
    <path d="M5.84778 9.99036H14.846C15.0688 9.99036 15.2642 9.84303 15.3245 9.62902L17.3169 2.65623C17.3597 2.50591 17.3304 2.34444 17.2361 2.21954C17.1416 2.09502 16.9948 2.02148 16.8381 2.02148H4.69799L4.34196 0.419434C4.29138 0.191292 4.08905 0.0292969 3.85559 0.0292969H0.834106C0.558884 0.0292969 0.33606 0.252121 0.33606 0.527344C0.33606 0.802696 0.558884 1.02539 0.834106 1.02539H3.45586L5.2544 9.11865C4.72523 9.34874 4.35364 9.87545 4.35364 10.4884C4.35364 11.3123 5.02393 11.9826 5.84778 11.9826H14.846C15.1213 11.9826 15.344 11.7599 15.344 11.4845C15.344 11.2093 15.1213 10.9865 14.846 10.9865H5.84778C5.57346 10.9865 5.34973 10.7632 5.34973 10.4884C5.34973 10.2136 5.57346 9.99036 5.84778 9.99036Z" fill="var(--primary-color)"></path>
  </symbol>
</svg>