<svg width="35" height="35" viewBox="0 0 35 35" fill="none" xmlns="http://www.w3.org/2000/svg">
<circle cx="17.5" cy="17.5" r="17.5" fill="white" fill-opacity="0.1"/>
<path d="M25 12.8491C24.4422 13.0938 23.8478 13.2559 23.2281 13.3347C23.8656 12.9541 24.3522 12.3559 24.5809 11.635C23.9866 11.9894 23.3303 12.2397 22.6309 12.3794C22.0666 11.7784 21.2622 11.4062 20.3847 11.4062C18.6822 11.4062 17.3116 12.7881 17.3116 14.4822C17.3116 14.7259 17.3322 14.9603 17.3828 15.1834C14.8263 15.0587 12.5641 13.8334 11.0444 11.9669C10.7791 12.4272 10.6234 12.9541 10.6234 13.5213C10.6234 14.5863 11.1719 15.5303 11.9894 16.0769C11.4953 16.0675 11.0106 15.9241 10.6 15.6981C10.6 15.7075 10.6 15.7197 10.6 15.7319C10.6 17.2262 11.6659 18.4675 13.0637 18.7534C12.8134 18.8219 12.5406 18.8547 12.2575 18.8547C12.0606 18.8547 11.8619 18.8434 11.6753 18.8022C12.0738 20.02 13.2044 20.9153 14.5488 20.9444C13.5025 21.7628 12.1741 22.2559 10.7359 22.2559C10.4838 22.2559 10.2419 22.2447 10 22.2137C11.3622 23.0922 12.9766 23.5938 14.7175 23.5938C20.3763 23.5938 23.47 18.9062 23.47 14.8431C23.47 14.7072 23.4653 14.5759 23.4587 14.4456C24.0691 14.0125 24.5819 13.4716 25 12.8491Z" fill="white"/>
</svg>
