<svg width="56" height="56" viewBox="0 0 56 56" fill="none" xmlns="http://www.w3.org/2000/svg">
<path d="M42.5347 0C36.0639 0 29.7708 5.17307 27.8339 6.92078C25.5284 4.86089 19.43 0 13.1332 0C4.87993 0 -1.71826 9.47352 0.929099 18.7737C2.00417 22.3201 3.54976 25.7054 5.52431 28.8384C7.03726 31.4182 8.23293 33.4547 8.23293 35.6425C8.23293 44.7141 11.1204 55.3073 19.2585 55.3073C19.5689 55.308 19.868 55.1906 20.0954 54.9787C20.3228 54.7667 20.4615 54.4761 20.4836 54.1655C20.7188 50.8642 21.9928 41.5333 25.0236 38.0539C25.3909 37.679 25.8289 37.3814 26.312 37.1782C26.7951 36.9749 27.3137 36.8703 27.8376 36.8703C28.3615 36.8703 28.8801 36.9749 29.3632 37.1782C29.8464 37.3814 30.2843 37.679 30.6516 38.0539C34.2986 42.2412 35.1843 54.0475 35.1904 54.1655C35.2125 54.4761 35.3512 54.7667 35.5786 54.9787C35.806 55.1906 36.1051 55.308 36.4155 55.3073C44.5536 55.3073 47.4411 44.7141 47.4411 35.6425C47.4411 33.4547 48.6355 31.4182 50.1485 28.8384C52.1235 25.7057 53.6691 22.3203 54.7437 18.7737C57.3959 9.43542 50.7549 0 42.5347 0V0ZM52.3818 18.0978C51.3659 21.4454 49.902 24.6393 48.0303 27.5922C46.3985 30.3784 44.9848 32.7849 44.9848 35.6425C44.9848 36.3123 44.8954 51.3743 37.5181 52.7484C37.175 49.4299 35.9475 40.4038 32.4953 36.4364C31.898 35.7986 31.1768 35.2902 30.3761 34.9428C29.5755 34.5953 28.7124 34.416 27.8401 34.416C26.9677 34.416 26.1046 34.5953 25.304 34.9428C24.5033 35.2902 23.7821 35.7986 23.1848 36.4364C19.7289 40.4038 18.5026 49.4263 18.1621 52.7484C10.7713 51.3743 10.6831 36.3123 10.6831 35.6425C10.6831 32.7849 9.27055 30.3784 7.63632 27.5922C5.7646 24.6393 4.30079 21.4454 3.2849 18.0978C1.00995 10.1077 6.7604 2.4581 13.1332 2.4581C18.3666 2.4581 23.7606 6.63687 25.94 8.52838C21.9708 11.0467 17.7835 7.80816 17.574 7.64223C17.3201 7.43883 16.9961 7.34496 16.6732 7.38126C16.3503 7.41756 16.0549 7.58107 15.8522 7.83581C15.6495 8.09055 15.5559 8.41566 15.5921 8.73962C15.6283 9.06357 15.7912 9.35984 16.0452 9.56324C18.4598 11.5015 24.2653 13.9264 28.9549 9.22894C30.8329 7.34603 36.9386 2.4581 42.5347 2.4581C48.9258 2.4581 54.6506 10.1335 52.3818 18.0978Z" fill="white"/>
</svg>
